<svg xmlns="http://www.w3.org/2000/svg" height="522px" width="504px" version="1.1"><polyline points="254.0,92.0,250.0,100.0,245.0,108.0,240.0,116.0,236.0,124.0,231.0,132.0,227.0,140.0,222.0,148.0,217.0,156.0,213.0,164.0,208.0,172.0,203.0,180.0,199.0,188.0,194.0,196.0,190.0,204.0,185.0,212.0,180.0,220.0,176.0,228.0,171.0,236.0,166.0,244.0,162.0,252.0,157.0,260.0,153.0,268.0,148.0,276.0,143.0,284.0,139.0,292.0,134.0,300.0,130.0,308.0,125.0,316.0,120.0,324.0,116.0,332.0,111.0,340.0,106.0,348.0,102.0,356.0,97.0,364.0,93.0,372.0,88.0,380.0,83.0,388.0,79.0,396.0,74.0,404.0,69.0,412.0,65.0,420.0,60.0,428.0,56.0,436.0,51.0,444.0,46.0,452.0,42.0,460.0,37.0,468.0,32.0,476.0,28.0,484.0,23.0,492.0,19.0,500.0,14.0,508.0,9.0,516.0,8.0,518.0,16.0,504.0,24.0,490.0,32.0,476.0,40.0,463.0,48.0,449.0,56.0,435.0,64.0,421.0,72.0,407.0,80.0,393.0,88.0,380.0,96.0,366.0,104.0,352.0,112.0,338.0,120.0,324.0,128.0,310.0,136.0,296.0,144.0,283.0,152.0,269.0,160.0,255.0,168.0,241.0,176.0,227.0,184.0,213.0,192.0,199.0,200.0,186.0,208.0,172.0,216.0,158.0,224.0,144.0,232.0,130.0,240.0,116.0,248.0,102.0,256.0,92.0,264.0,105.0,272.0,119.0,280.0,133.0,288.0,147.0,296.0,160.0,304.0,174.0,312.0,188.0,320.0,202.0,328.0,216.0,336.0,230.0,344.0,244.0,352.0,257.0,360.0,271.0,368.0,285.0,376.0,299.0,384.0,313.0,392.0,327.0,400.0,340.0,408.0,354.0,416.0,368.0,424.0,382.0,432.0,396.0,440.0,410.0,448.0,423.0,456.0,437.0,464.0,451.0,472.0,465.0,480.0,479.0,488.0,493.0,496.0,506.0,504.0,520.0" stroke="black" stroke-width="1" fill="none" />
<polyline points="460.0,489.0,452.0,475.0,444.0,461.0,436.0,447.0,428.0,434.0,420.0,420.0,412.0,406.0,404.0,392.0,396.0,378.0,388.0,365.0,380.0,351.0,372.0,340.0" stroke="black" stroke-width="1" fill="none" />
<polyline points="374.0,340.0,375.0,348.0,377.0,356.0,378.0,364.0,379.0,372.0,380.0,380.0,379.0,388.0,379.0,396.0,377.0,404.0,375.0,412.0,373.0,420.0,370.0,428.0,366.0,436.0,361.0,444.0,356.0,452.0,350.0,460.0,342.0,468.0,333.0,476.0,322.0,484.0,307.0,492.0" stroke="black" stroke-width="1" fill="none" />
<polyline points="286.0,499.0,294.0,497.0,302.0,495.0,310.0,491.0,318.0,487.0,326.0,481.0,334.0,475.0,342.0,468.0,350.0,460.0,358.0,449.0,366.0,435.0,374.0,416.0" stroke="black" stroke-width="1" fill="none" />
<polyline points="353.0,350.0,345.0,331.0,337.0,318.0,329.0,309.0,321.0,301.0,313.0,295.0,305.0,290.0,297.0,286.0,289.0,283.0,281.0,281.0,273.0,279.0,265.0,278.0" stroke="black" stroke-width="1" fill="none" />
<polyline points="265.0,278.0,265.0,286.0,265.0,294.0,265.0,302.0,265.0,310.0,265.0,318.0,265.0,326.0,265.0,334.0,265.0,342.0,265.0,350.0,265.0,358.0,265.0,366.0,265.0,374.0,265.0,382.0,265.0,390.0,265.0,398.0,265.0,406.0,265.0,414.0,265.0,422.0,265.0,430.0,265.0,438.0,265.0,446.0,265.0,454.0,265.0,462.0,265.0,470.0,265.0,478.0,270.0,480.0,278.0,479.0,286.0,477.0,294.0,474.0,302.0,470.0,310.0,465.0,318.0,459.0,326.0,452.0,334.0,443.0,342.0,432.0,350.0,416.0" stroke="black" stroke-width="1" fill="none" />
<polyline points="375.0,342.0,379.0,350.0,383.0,358.0,388.0,366.0,393.0,374.0,397.0,382.0,402.0,390.0,407.0,398.0,411.0,406.0,416.0,414.0,420.0,422.0,425.0,430.0,430.0,438.0,434.0,446.0,439.0,454.0,444.0,462.0,448.0,470.0,453.0,478.0,458.0,486.0,462.0,494.0" stroke="black" stroke-width="1" fill="none" />
<polyline points="462.0,500.0,454.0,500.0,446.0,500.0,438.0,500.0,430.0,500.0,422.0,500.0,414.0,500.0,406.0,500.0,398.0,500.0,390.0,500.0,382.0,500.0,374.0,500.0,366.0,500.0,358.0,500.0,350.0,500.0,342.0,500.0,334.0,500.0,326.0,500.0,318.0,500.0,310.0,500.0,302.0,500.0,294.0,500.0,286.0,501.0" stroke="black" stroke-width="1" fill="none" />
<polyline points="238.0,480.0,230.0,478.0,222.0,476.0,214.0,473.0,206.0,469.0,198.0,464.0,190.0,458.0,182.0,450.0,174.0,441.0,166.0,429.0,158.0,411.0" stroke="black" stroke-width="1" fill="none" />
<polyline points="139.0,418.0,147.0,437.0,155.0,450.0,163.0,460.0,171.0,469.0,179.0,476.0,187.0,482.0,195.0,487.0,203.0,491.0,211.0,495.0,219.0,498.0,227.0,499.0" stroke="black" stroke-width="1" fill="none" />
<polyline points="246.0,477.0,246.0,469.0,246.0,461.0,246.0,453.0,246.0,445.0,246.0,437.0,246.0,429.0,246.0,421.0,246.0,413.0,246.0,405.0,246.0,397.0,246.0,389.0,246.0,381.0,246.0,373.0,246.0,365.0,246.0,357.0,246.0,349.0,246.0,341.0,246.0,333.0,246.0,325.0,246.0,317.0,246.0,309.0,246.0,301.0,246.0,293.0,246.0,285.0,245.0,278.0,237.0,279.0,229.0,281.0,221.0,283.0,213.0,286.0,205.0,290.0,197.0,295.0,189.0,301.0,181.0,309.0,173.0,318.0,165.0,330.0,157.0,349.0" stroke="black" stroke-width="1" fill="none" />
<polyline points="139.0,343.0,136.0,351.0,135.0,359.0,134.0,367.0,133.0,375.0,133.0,383.0,133.0,391.0,134.0,399.0,136.0,407.0,138.0,415.0,140.0,423.0,144.0,431.0,147.0,439.0,152.0,447.0,158.0,455.0,164.0,463.0,172.0,471.0,182.0,479.0,194.0,487.0,211.0,495.0" stroke="black" stroke-width="1" fill="none" />
<polyline points="225.0,501.0,217.0,500.0,209.0,500.0,201.0,500.0,193.0,500.0,185.0,500.0,177.0,500.0,169.0,500.0,161.0,500.0,153.0,500.0,145.0,500.0,137.0,500.0,129.0,500.0,121.0,500.0,113.0,500.0,105.0,500.0,97.0,500.0,89.0,500.0,81.0,500.0,73.0,500.0,65.0,500.0,57.0,500.0,49.0,500.0" stroke="black" stroke-width="1" fill="none" />
<polyline points="8.0,522.0,16.0,522.0,24.0,522.0,32.0,522.0,40.0,522.0,48.0,522.0,56.0,522.0,64.0,522.0,72.0,522.0,80.0,522.0,88.0,522.0,96.0,522.0,104.0,522.0,112.0,522.0,120.0,522.0,128.0,522.0,136.0,522.0,144.0,522.0,152.0,522.0,160.0,522.0,168.0,522.0,176.0,522.0,184.0,522.0,192.0,522.0,200.0,522.0,208.0,522.0,216.0,522.0,224.0,522.0,232.0,522.0,240.0,522.0,248.0,522.0,256.0,522.0,264.0,522.0,272.0,522.0,280.0,522.0,288.0,522.0,296.0,522.0,304.0,522.0,312.0,522.0,320.0,522.0,328.0,522.0,336.0,522.0,344.0,522.0,352.0,522.0,360.0,522.0,368.0,522.0,376.0,522.0,384.0,522.0,392.0,522.0,400.0,522.0,408.0,522.0,416.0,522.0,424.0,522.0,432.0,522.0,440.0,522.0,448.0,522.0,456.0,522.0,464.0,522.0,472.0,522.0,480.0,522.0,488.0,522.0,496.0,522.0" stroke="black" stroke-width="1" fill="none" />
<polyline points="344.0,289.0,336.0,275.0,328.0,261.0,320.0,247.0,312.0,234.0,304.0,220.0,296.0,206.0,288.0,192.0,280.0,178.0,272.0,165.0,264.0,155.0" stroke="black" stroke-width="1" fill="none" />
<polyline points="266.0,155.0,270.0,163.0,275.0,171.0,280.0,179.0,284.0,187.0,289.0,195.0,293.0,203.0,298.0,211.0,303.0,219.0,307.0,227.0,312.0,235.0,317.0,243.0,321.0,251.0,326.0,259.0,331.0,267.0,335.0,275.0,340.0,283.0,345.0,291.0,350.0,299.0" stroke="black" stroke-width="1" fill="none" />
<polyline points="284.0,282.0,303.0,290.0,316.0,298.0,325.0,306.0,333.0,314.0,339.0,322.0,344.0,330.0,348.0,338.0,351.0,346.0,354.0,354.0,355.0,362.0,357.0,370.0,357.0,378.0,357.0,386.0,356.0,394.0,354.0,402.0,352.0,410.0,349.0,418.0,346.0,426.0,341.0,434.0,335.0,442.0,328.0,450.0,319.0,458.0,308.0,466.0,293.0,474.0" stroke="black" stroke-width="1" fill="none" />
<polyline points="135.0,346.0,127.0,361.0,119.0,374.0,111.0,388.0,103.0,402.0,95.0,416.0,87.0,430.0,79.0,444.0,71.0,458.0,63.0,472.0,55.0,486.0,48.0,500.0,52.0,492.0,56.0,484.0,61.0,476.0,65.0,468.0,70.0,460.0,75.0,452.0,79.0,444.0,84.0,436.0,88.0,428.0,93.0,420.0,98.0,412.0,102.0,404.0,107.0,396.0,111.0,388.0,116.0,380.0,121.0,372.0,125.0,364.0,130.0,356.0,134.0,348.0,138.0,340.0" stroke="black" stroke-width="1" fill="none" />
<polyline points="227.0,281.0,207.0,289.0,194.0,297.0,185.0,305.0,177.0,313.0,171.0,321.0,166.0,329.0,162.0,337.0,159.0,345.0,156.0,353.0,154.0,361.0,153.0,369.0,153.0,377.0,153.0,385.0,154.0,393.0,155.0,401.0,157.0,409.0,160.0,417.0,163.0,425.0,168.0,433.0,173.0,441.0,180.0,449.0,188.0,457.0,198.0,465.0,213.0,473.0" stroke="black" stroke-width="1" fill="none" />
<polyline points="223.0,261.0,202.0,269.0,188.0,277.0,177.0,285.0,169.0,293.0,166.0,297.0,174.0,288.0,182.0,281.0,190.0,276.0,198.0,271.0,206.0,267.0,214.0,264.0,222.0,262.0,230.0,260.0,238.0,258.0" stroke="black" stroke-width="1" fill="none" />
<polyline points="290.0,262.0,310.0,270.0,324.0,278.0,335.0,286.0,343.0,294.0" stroke="black" stroke-width="1" fill="none" />
<polyline points="246.0,252.0,246.0,244.0,246.0,236.0,246.0,228.0,246.0,220.0,246.0,212.0,246.0,204.0,246.0,196.0,246.0,188.0,246.0,180.0,246.0,172.0,246.0,164.0,246.0,156.0" stroke="black" stroke-width="1" fill="none" />
<polyline points="244.0,156.0,240.0,164.0,236.0,172.0,231.0,180.0,227.0,188.0,222.0,196.0,217.0,204.0,213.0,212.0,208.0,220.0,204.0,228.0,199.0,236.0,194.0,244.0,190.0,252.0,185.0,260.0,181.0,268.0,176.0,276.0,171.0,284.0,166.0,292.0,163.0,296.0,171.0,284.0,179.0,270.0,187.0,256.0,195.0,242.0,203.0,229.0,211.0,215.0,219.0,201.0,227.0,187.0,235.0,173.0,243.0,159.0" stroke="black" stroke-width="1" fill="none" />
<polyline points="266.0,154.0,265.0,162.0,265.0,170.0,265.0,178.0,265.0,186.0,265.0,194.0,265.0,202.0,265.0,210.0,265.0,218.0,265.0,226.0,265.0,234.0,265.0,242.0,265.0,250.0,268.0,258.0,273.0,258.0,281.0,259.0,289.0,261.0,297.0,264.0,305.0,267.0,313.0,271.0,321.0,275.0,329.0,280.0,337.0,287.0,345.0,295.0" stroke="black" stroke-width="1" fill="none" />
<polyline points="256.0,93.0,261.0,101.0,265.0,109.0,270.0,117.0,275.0,125.0,279.0,133.0,284.0,141.0,289.0,149.0,293.0,157.0,298.0,165.0,302.0,173.0,307.0,181.0,312.0,189.0,316.0,197.0,321.0,205.0,326.0,213.0,330.0,221.0,335.0,229.0,339.0,237.0,344.0,245.0,349.0,253.0,353.0,261.0,358.0,269.0,363.0,277.0,367.0,285.0,372.0,293.0,376.0,301.0,381.0,309.0,386.0,317.0,390.0,325.0,395.0,333.0,400.0,341.0,404.0,349.0,409.0,357.0,413.0,365.0,418.0,373.0,423.0,381.0,427.0,389.0,432.0,397.0,437.0,405.0,441.0,413.0,446.0,421.0,450.0,429.0,455.0,437.0,460.0,445.0,464.0,453.0,469.0,461.0,474.0,469.0,478.0,477.0,483.0,485.0,487.0,493.0,492.0,501.0,497.0,509.0,501.0,517.0" stroke="black" stroke-width="1" fill="none" />
</svg>