<svg xmlns="http://www.w3.org/2000/svg" height="570px" width="512px" version="1.1"><polyline points="1.0,0.0,1.0,8.0,1.0,16.0,1.0,24.0,1.0,32.0,1.0,40.0,1.0,48.0,1.0,56.0,1.0,64.0,1.0,72.0,1.0,80.0,1.0,88.0,1.0,96.0,1.0,104.0,1.0,112.0,1.0,120.0,1.0,128.0,1.0,136.0,1.0,144.0,1.0,152.0,1.0,160.0,1.0,168.0,1.0,176.0,1.0,184.0,1.0,192.0,1.0,200.0,1.0,208.0,1.0,216.0,1.0,224.0,1.0,232.0,1.0,240.0,1.0,248.0,1.0,256.0,1.0,264.0,1.0,272.0,1.0,280.0,1.0,288.0,1.0,296.0,1.0,304.0,1.0,312.0,1.0,320.0,1.0,328.0,1.0,336.0,1.0,344.0,1.0,352.0,1.0,360.0,1.0,368.0,1.0,376.0,1.0,384.0,1.0,392.0,1.0,400.0,1.0,408.0,1.0,416.0,1.0,424.0,1.0,432.0,1.0,440.0,1.0,448.0,1.0,456.0,1.0,464.0,1.0,472.0,1.0,480.0,1.0,488.0,1.0,496.0,1.0,504.0,1.0,512.0,1.0,520.0,1.0,528.0,1.0,536.0,1.0,544.0,1.0,552.0,1.0,560.0,1.0,568.0,8.0,570.0,16.0,570.0,24.0,570.0,32.0,570.0,40.0,570.0,48.0,570.0,56.0,570.0,64.0,570.0,72.0,570.0,80.0,570.0,88.0,570.0,96.0,570.0,104.0,570.0,112.0,570.0,120.0,570.0,128.0,570.0,136.0,570.0,144.0,570.0,152.0,570.0,160.0,570.0,168.0,570.0,176.0,570.0,184.0,570.0,192.0,570.0,200.0,570.0,208.0,570.0,216.0,570.0,224.0,570.0,232.0,570.0,240.0,570.0,248.0,570.0,256.0,570.0,264.0,570.0,272.0,570.0" stroke="black" stroke-width="1" fill="none" />
<polyline points="266.0,557.0,274.0,566.0,282.0,569.0,290.0,566.0,298.0,564.0,306.0,564.0,314.0,565.0,322.0,563.0,330.0,561.0,338.0,555.0,346.0,547.0,354.0,538.0" stroke="black" stroke-width="1" fill="none" />
<polyline points="359.0,526.0,367.0,519.0" stroke="black" stroke-width="1" fill="none" />
<polyline points="372.0,492.0,380.0,487.0,388.0,485.0" stroke="black" stroke-width="1" fill="none" />
<polyline points="388.0,448.0,396.0,440.0,404.0,433.0,412.0,425.0,420.0,424.0,428.0,416.0" stroke="black" stroke-width="1" fill="none" />
<polyline points="458.0,423.0,466.0,414.0,474.0,411.0,482.0,406.0,490.0,393.0,498.0,387.0" stroke="black" stroke-width="1" fill="none" />
<polyline points="497.0,389.0,501.0,397.0,503.0,405.0,499.0,412.0,497.0,420.0,495.0,428.0,492.0,436.0,491.0,444.0,489.0,452.0,487.0,460.0,485.0,468.0,484.0,476.0,480.0,484.0" stroke="black" stroke-width="1" fill="none" />
<polyline points="473.0,490.0,465.0,492.0,457.0,483.0" stroke="black" stroke-width="1" fill="none" />
<polyline points="505.0,570.0,497.0,570.0,489.0,570.0,481.0,570.0,473.0,570.0,465.0,570.0,457.0,570.0,449.0,570.0,441.0,570.0,433.0,570.0,425.0,570.0,417.0,570.0,409.0,570.0,401.0,570.0,393.0,570.0,385.0,570.0,377.0,570.0,369.0,570.0,361.0,570.0,353.0,570.0,345.0,570.0,337.0,570.0,329.0,570.0,321.0,570.0,313.0,570.0,305.0,570.0,297.0,570.0,289.0,570.0" stroke="black" stroke-width="1" fill="none" />
<polyline points="261.0,533.0,253.0,516.0,245.0,504.0" stroke="black" stroke-width="1" fill="none" />
<polyline points="228.0,441.0,220.0,433.0" stroke="black" stroke-width="1" fill="none" />
<polyline points="223.0,393.0,231.0,385.0" stroke="black" stroke-width="1" fill="none" />
<polyline points="231.0,356.0,223.0,343.0" stroke="black" stroke-width="1" fill="none" />
<polyline points="216.0,325.0,208.0,318.0,200.0,310.0" stroke="black" stroke-width="1" fill="none" />
<polyline points="204.0,270.0,196.0,263.0,188.0,263.0,180.0,262.0,172.0,261.0,169.0,259.0,170.0,255.0,162.0,249.0,154.0,248.0,146.0,250.0,138.0,254.0,130.0,255.0,122.0,259.0,114.0,259.0,106.0,256.0,98.0,256.0,90.0,259.0,82.0,262.0,74.0,262.0,66.0,258.0,58.0,253.0,50.0,247.0,42.0,241.0,34.0,230.0,26.0,218.0,18.0,208.0,10.0,200.0" stroke="black" stroke-width="1" fill="none" />
<polyline points="3.0,188.0,8.0,196.0,9.0,204.0,18.0,212.0,25.0,220.0,30.0,228.0,34.0,236.0,41.0,244.0,53.0,252.0,65.0,260.0" stroke="black" stroke-width="1" fill="none" />
<polyline points="197.0,266.0,203.0,274.0,201.0,282.0,200.0,290.0,198.0,298.0,198.0,306.0,200.0,314.0,209.0,322.0,217.0,330.0,221.0,338.0,222.0,346.0,228.0,354.0,226.0,362.0,229.0,370.0,233.0,378.0,229.0,386.0,223.0,394.0,223.0,402.0,221.0,410.0,218.0,418.0,217.0,426.0,218.0,434.0,226.0,442.0,230.0,450.0,232.0,458.0,237.0,466.0,236.0,474.0,238.0,482.0,241.0,490.0,241.0,498.0,243.0,506.0,248.0,514.0,253.0,522.0,257.0,530.0,261.0,538.0,265.0,546.0,263.0,554.0,267.0,562.0" stroke="black" stroke-width="1" fill="none" />
<polyline points="421.0,331.0,429.0,317.0,437.0,310.0,445.0,300.0,453.0,292.0,461.0,285.0,469.0,280.0,477.0,272.0,485.0,263.0,493.0,251.0,501.0,235.0" stroke="black" stroke-width="1" fill="none" />
<polyline points="511.0,223.0,511.0,231.0,511.0,239.0,511.0,247.0,511.0,255.0,511.0,263.0,511.0,271.0,511.0,279.0,511.0,287.0,511.0,295.0,511.0,303.0,511.0,311.0,511.0,319.0,511.0,327.0,511.0,335.0,511.0,343.0,511.0,351.0,511.0,359.0,511.0,367.0,511.0,375.0,511.0,383.0,511.0,391.0,511.0,399.0,511.0,407.0,511.0,415.0,511.0,423.0,511.0,431.0,511.0,439.0,511.0,447.0,511.0,455.0,511.0,463.0,511.0,471.0,511.0,479.0,511.0,487.0,511.0,495.0,511.0,503.0,511.0,511.0,511.0,519.0,511.0,527.0,511.0,535.0,511.0,543.0,511.0,551.0,511.0,559.0,511.0,567.0" stroke="black" stroke-width="1" fill="none" />
<polyline points="458.0,489.0,454.0,481.0,454.0,473.0,452.0,465.0,453.0,457.0,458.0,449.0,459.0,441.0,458.0,433.0,458.0,425.0,461.0,417.0,479.0,409.0,484.0,401.0,490.0,393.0,495.0,385.0" stroke="black" stroke-width="1" fill="none" />
<polyline points="508.0,210.0,509.0,218.0,506.0,226.0,502.0,234.0,497.0,242.0,494.0,250.0,488.0,258.0,483.0,266.0,475.0,274.0,466.0,282.0,455.0,290.0,447.0,298.0,442.0,306.0,432.0,314.0,427.0,322.0,422.0,330.0,419.0,338.0,423.0,346.0,422.0,354.0,424.0,362.0,426.0,370.0,430.0,378.0,431.0,386.0,431.0,394.0,432.0,402.0,430.0,410.0,426.0,418.0,411.0,426.0,403.0,434.0,394.0,442.0,388.0,450.0,393.0,458.0,393.0,466.0,394.0,474.0,393.0,482.0,374.0,490.0,376.0,498.0,374.0,506.0,372.0,514.0,362.0,522.0,358.0,530.0,354.0,538.0,347.0,546.0,339.0,554.0" stroke="black" stroke-width="1" fill="none" />
<polyline points="503.0,208.0,495.0,212.0,487.0,212.0,479.0,213.0,471.0,215.0,463.0,218.0,455.0,211.0,447.0,195.0,439.0,189.0,431.0,185.0,423.0,176.0" stroke="black" stroke-width="1" fill="none" />
<polyline points="419.0,161.0,411.0,154.0" stroke="black" stroke-width="1" fill="none" />
<polyline points="404.0,127.0,396.0,121.0" stroke="black" stroke-width="1" fill="none" />
<polyline points="392.0,105.0,384.0,92.0" stroke="black" stroke-width="1" fill="none" />
<polyline points="378.0,75.0,370.0,66.0" stroke="black" stroke-width="1" fill="none" />
<polyline points="371.0,65.0,371.0,73.0,376.0,81.0,382.0,89.0,384.0,97.0,389.0,105.0,394.0,113.0,393.0,121.0,403.0,129.0,407.0,137.0,406.0,145.0,408.0,153.0,415.0,161.0,419.0,169.0,421.0,177.0,428.0,185.0,439.0,193.0,448.0,201.0,451.0,209.0,457.0,217.0" stroke="black" stroke-width="1" fill="none" />
<polyline points="385.0,77.0,385.0,69.0,384.0,61.0,382.0,54.0,374.0,54.0,366.0,51.0,358.0,50.0,350.0,54.0,342.0,55.0,334.0,52.0,326.0,49.0,318.0,51.0,310.0,46.0,302.0,42.0,294.0,39.0,286.0,40.0,278.0,46.0" stroke="black" stroke-width="1" fill="none" />
<polyline points="286.0,40.0,278.0,48.0,280.0,56.0" stroke="black" stroke-width="1" fill="none" />
<polyline points="273.0,61.0,265.0,56.0,257.0,54.0,249.0,52.0,241.0,44.0,233.0,39.0,225.0,41.0,217.0,38.0,209.0,31.0" stroke="black" stroke-width="1" fill="none" />
<polyline points="207.0,33.0,208.0,25.0,212.0,17.0,210.0,9.0,208.0,11.0" stroke="black" stroke-width="1" fill="none" />
<polyline points="174.0,4.0,166.0,3.0,158.0,3.0,150.0,6.0,142.0,7.0,134.0,9.0,126.0,13.0,118.0,19.0,110.0,18.0,102.0,18.0,94.0,14.0,86.0,15.0" stroke="black" stroke-width="1" fill="none" />
<polyline points="90.0,13.0,85.0,21.0,81.0,29.0,67.0,37.0,62.0,45.0,58.0,53.0,59.0,61.0,55.0,69.0,47.0,77.0" stroke="black" stroke-width="1" fill="none" />
<polyline points="38.0,80.0,32.0,88.0,26.0,96.0,22.0,104.0,15.0,112.0,13.0,120.0,6.0,128.0,6.0,136.0,11.0,144.0,11.0,152.0,12.0,160.0,11.0,168.0,9.0,176.0,5.0,180.0" stroke="black" stroke-width="1" fill="none" />
<polyline points="6.0,127.0,14.0,115.0,22.0,104.0,30.0,91.0,38.0,80.0,46.0,78.0,54.0,70.0" stroke="black" stroke-width="1" fill="none" />
<polyline points="57.0,55.0,65.0,40.0,73.0,32.0,81.0,29.0" stroke="black" stroke-width="1" fill="none" />
<polyline points="0.0,1.0,8.0,1.0,16.0,1.0,24.0,1.0,32.0,1.0,40.0,1.0,48.0,1.0,56.0,1.0,64.0,1.0,72.0,1.0,80.0,1.0,88.0,1.0,96.0,1.0,104.0,1.0,112.0,1.0,120.0,1.0,128.0,1.0,136.0,1.0,144.0,1.0,152.0,1.0,160.0,1.0,168.0,1.0,176.0,1.0,184.0,1.0,192.0,1.0,200.0,2.0,211.0,1.0,219.0,1.0,227.0,1.0,235.0,1.0,243.0,1.0,251.0,1.0,259.0,1.0,267.0,1.0,275.0,1.0,283.0,1.0,291.0,1.0,299.0,1.0,307.0,1.0,315.0,1.0,323.0,1.0,331.0,1.0,339.0,1.0,347.0,1.0,355.0,1.0,363.0,1.0,371.0,1.0,379.0,1.0,387.0,1.0,395.0,1.0,403.0,1.0,411.0,1.0,419.0,1.0,427.0,1.0,435.0,1.0,443.0,1.0,451.0,1.0,459.0,1.0,467.0,1.0,475.0,1.0,483.0,1.0,491.0,1.0,499.0,1.0,507.0,1.0" stroke="black" stroke-width="1" fill="none" />
<polyline points="511.0,2.0,511.0,10.0,511.0,18.0,511.0,26.0,511.0,34.0,511.0,42.0,511.0,50.0,511.0,58.0,511.0,66.0,511.0,74.0,511.0,82.0,511.0,90.0,511.0,98.0,511.0,106.0,511.0,114.0,511.0,122.0,511.0,130.0,511.0,138.0,511.0,146.0,511.0,154.0,511.0,162.0,511.0,170.0,511.0,178.0,511.0,186.0,511.0,194.0,511.0,202.0,501.0,209.0" stroke="black" stroke-width="1" fill="none" />
<polyline points="315.0,51.0,300.0,43.0" stroke="black" stroke-width="1" fill="none" />
<polyline points="245.0,50.0,233.0,42.0" stroke="black" stroke-width="1" fill="none" />
<polyline points="0.0,186.0,440.0,186.0" stroke="black" stroke-width="1" fill="none" />
<polyline points="440.0,192.0,224.0,408.0" stroke="black" stroke-width="1" fill="none" />
<polyline points="224.0,410.0,432.0,410.0" stroke="black" stroke-width="1" fill="none" />
<polyline points="432.0,408.0,416.0,424.0" stroke="black" stroke-width="1" fill="none" />
<polyline points="432.0,400.0,272.0,560.0" stroke="black" stroke-width="1" fill="none" />
<polyline points="272.0,558.0,328.0,558.0" stroke="black" stroke-width="1" fill="none" />
<polyline points="304.0,560.0,392.0,472.0" stroke="black" stroke-width="1" fill="none" />
<polyline points="392.0,464.0,296.0,560.0" stroke="black" stroke-width="1" fill="none" />
<polyline points="280.0,568.0,392.0,456.0" stroke="black" stroke-width="1" fill="none" />
<polyline points="392.0,448.0,272.0,568.0" stroke="black" stroke-width="1" fill="none" />
<polyline points="272.0,562.0,296.0,562.0" stroke="black" stroke-width="1" fill="none" />
<polyline points="272.0,552.0,432.0,392.0" stroke="black" stroke-width="1" fill="none" />
<polyline points="432.0,384.0,264.0,552.0" stroke="black" stroke-width="1" fill="none" />
<polyline points="264.0,554.0,336.0,554.0" stroke="black" stroke-width="1" fill="none" />
<polyline points="320.0,560.0,376.0,504.0" stroke="black" stroke-width="1" fill="none" />
<polyline points="376.0,496.0,312.0,560.0" stroke="black" stroke-width="1" fill="none" />
<polyline points="328.0,560.0,360.0,528.0" stroke="black" stroke-width="1" fill="none" />
<polyline points="336.0,550.0,272.0,550.0" stroke="black" stroke-width="1" fill="none" />
<polyline points="272.0,542.0,344.0,542.0" stroke="black" stroke-width="1" fill="none" />
<polyline points="264.0,544.0,432.0,376.0" stroke="black" stroke-width="1" fill="none" />
<polyline points="432.0,368.0,264.0,536.0" stroke="black" stroke-width="1" fill="none" />
<polyline points="264.0,534.0,352.0,534.0" stroke="black" stroke-width="1" fill="none" />
<polyline points="344.0,546.0,264.0,546.0" stroke="black" stroke-width="1" fill="none" />
<polyline points="264.0,538.0,352.0,538.0" stroke="black" stroke-width="1" fill="none" />
<polyline points="360.0,530.0,264.0,530.0" stroke="black" stroke-width="1" fill="none" />
<polyline points="264.0,528.0,424.0,368.0" stroke="black" stroke-width="1" fill="none" />
<polyline points="424.0,360.0,256.0,528.0" stroke="black" stroke-width="1" fill="none" />
<polyline points="256.0,522.0,360.0,522.0" stroke="black" stroke-width="1" fill="none" />
<polyline points="360.0,526.0,264.0,526.0" stroke="black" stroke-width="1" fill="none" />
<polyline points="256.0,520.0,424.0,352.0" stroke="black" stroke-width="1" fill="none" />
<polyline points="424.0,344.0,256.0,512.0" stroke="black" stroke-width="1" fill="none" />
<polyline points="256.0,514.0,368.0,514.0" stroke="black" stroke-width="1" fill="none" />
<polyline points="456.0,482.0,480.0,482.0" stroke="black" stroke-width="1" fill="none" />
<polyline points="480.0,480.0,472.0,488.0" stroke="black" stroke-width="1" fill="none" />
<polyline points="464.0,488.0,488.0,464.0" stroke="black" stroke-width="1" fill="none" />
<polyline points="488.0,456.0,464.0,480.0" stroke="black" stroke-width="1" fill="none" />
<polyline points="464.0,486.0,472.0,486.0" stroke="black" stroke-width="1" fill="none" />
<polyline points="456.0,480.0,488.0,448.0" stroke="black" stroke-width="1" fill="none" />
<polyline points="488.0,440.0,456.0,472.0" stroke="black" stroke-width="1" fill="none" />
<polyline points="456.0,470.0,480.0,470.0" stroke="black" stroke-width="1" fill="none" />
<polyline points="488.0,454.0,464.0,454.0" stroke="black" stroke-width="1" fill="none" />
<polyline points="464.0,446.0,488.0,446.0" stroke="black" stroke-width="1" fill="none" />
<polyline points="496.0,424.0,456.0,464.0" stroke="black" stroke-width="1" fill="none" />
<polyline points="456.0,462.0,480.0,462.0" stroke="black" stroke-width="1" fill="none" />
<polyline points="480.0,478.0,456.0,478.0" stroke="black" stroke-width="1" fill="none" />
<polyline points="456.0,474.0,488.0,474.0" stroke="black" stroke-width="1" fill="none" />
<polyline points="488.0,466.0,456.0,466.0" stroke="black" stroke-width="1" fill="none" />
<polyline points="456.0,458.0,488.0,458.0" stroke="black" stroke-width="1" fill="none" />
<polyline points="496.0,442.0,464.0,442.0" stroke="black" stroke-width="1" fill="none" />
<polyline points="464.0,440.0,504.0,400.0" stroke="black" stroke-width="1" fill="none" />
<polyline points="504.0,392.0,464.0,432.0" stroke="black" stroke-width="1" fill="none" />
<polyline points="464.0,430.0,488.0,430.0" stroke="black" stroke-width="1" fill="none" />
<polyline points="496.0,416.0,456.0,456.0" stroke="black" stroke-width="1" fill="none" />
<polyline points="456.0,450.0,488.0,450.0" stroke="black" stroke-width="1" fill="none" />
<polyline points="488.0,438.0,464.0,438.0" stroke="black" stroke-width="1" fill="none" />
<polyline points="456.0,434.0,496.0,434.0" stroke="black" stroke-width="1" fill="none" />
<polyline points="496.0,414.0,480.0,414.0" stroke="black" stroke-width="1" fill="none" />
<polyline points="472.0,416.0,464.0,424.0" stroke="black" stroke-width="1" fill="none" />
<polyline points="464.0,422.0,496.0,422.0" stroke="black" stroke-width="1" fill="none" />
<polyline points="496.0,406.0,488.0,406.0" stroke="black" stroke-width="1" fill="none" />
<polyline points="488.0,400.0,496.0,392.0" stroke="black" stroke-width="1" fill="none" />
<polyline points="488.0,394.0,504.0,394.0" stroke="black" stroke-width="1" fill="none" />
<polyline points="504.0,402.0,480.0,402.0" stroke="black" stroke-width="1" fill="none" />
<polyline points="472.0,410.0,504.0,410.0" stroke="black" stroke-width="1" fill="none" />
<polyline points="496.0,426.0,456.0,426.0" stroke="black" stroke-width="1" fill="none" />
<polyline points="456.0,418.0,496.0,418.0" stroke="black" stroke-width="1" fill="none" />
<polyline points="416.0,344.0,248.0,512.0" stroke="black" stroke-width="1" fill="none" />
<polyline points="248.0,510.0,368.0,510.0" stroke="black" stroke-width="1" fill="none" />
<polyline points="360.0,518.0,256.0,518.0" stroke="black" stroke-width="1" fill="none" />
<polyline points="248.0,506.0,376.0,506.0" stroke="black" stroke-width="1" fill="none" />
<polyline points="248.0,504.0,424.0,328.0" stroke="black" stroke-width="1" fill="none" />
<polyline points="448.0,296.0,248.0,496.0" stroke="black" stroke-width="1" fill="none" />
<polyline points="248.0,494.0,368.0,494.0" stroke="black" stroke-width="1" fill="none" />
<polyline points="248.0,488.0,496.0,240.0" stroke="black" stroke-width="1" fill="none" />
<polyline points="488.0,256.0,456.0,288.0" stroke="black" stroke-width="1" fill="none" />
<polyline points="472.0,222.0,504.0,222.0" stroke="black" stroke-width="1" fill="none" />
<polyline points="496.0,216.0,240.0,472.0" stroke="black" stroke-width="1" fill="none" />
<polyline points="240.0,470.0,392.0,470.0" stroke="black" stroke-width="1" fill="none" />
<polyline points="376.0,502.0,248.0,502.0" stroke="black" stroke-width="1" fill="none" />
<polyline points="240.0,498.0,376.0,498.0" stroke="black" stroke-width="1" fill="none" />
<polyline points="376.0,486.0,248.0,486.0" stroke="black" stroke-width="1" fill="none" />
<polyline points="240.0,488.0,512.0,216.0" stroke="black" stroke-width="1" fill="none" />
<polyline points="512.0,208.0,240.0,480.0" stroke="black" stroke-width="1" fill="none" />
<polyline points="240.0,478.0,392.0,478.0" stroke="black" stroke-width="1" fill="none" />
<polyline points="376.0,490.0,240.0,490.0" stroke="black" stroke-width="1" fill="none" />
<polyline points="240.0,482.0,392.0,482.0" stroke="black" stroke-width="1" fill="none" />
<polyline points="392.0,474.0,240.0,474.0" stroke="black" stroke-width="1" fill="none" />
<polyline points="240.0,466.0,392.0,466.0" stroke="black" stroke-width="1" fill="none" />
<polyline points="240.0,464.0,488.0,216.0" stroke="black" stroke-width="1" fill="none" />
<polyline points="488.0,210.0,512.0,210.0" stroke="black" stroke-width="1" fill="none" />
<polyline points="480.0,216.0,240.0,456.0" stroke="black" stroke-width="1" fill="none" />
<polyline points="240.0,454.0,384.0,454.0" stroke="black" stroke-width="1" fill="none" />
<polyline points="392.0,462.0,240.0,462.0" stroke="black" stroke-width="1" fill="none" />
<polyline points="232.0,458.0,392.0,458.0" stroke="black" stroke-width="1" fill="none" />
<polyline points="232.0,456.0,472.0,216.0" stroke="black" stroke-width="1" fill="none" />
<polyline points="464.0,216.0,232.0,448.0" stroke="black" stroke-width="1" fill="none" />
<polyline points="232.0,446.0,384.0,446.0" stroke="black" stroke-width="1" fill="none" />
<polyline points="424.0,382.0,240.0,382.0" stroke="black" stroke-width="1" fill="none" />
<polyline points="240.0,376.0,432.0,184.0" stroke="black" stroke-width="1" fill="none" />
<polyline points="424.0,184.0,232.0,376.0" stroke="black" stroke-width="1" fill="none" />
<polyline points="232.0,378.0,432.0,378.0" stroke="black" stroke-width="1" fill="none" />
<polyline points="456.0,216.0,232.0,440.0" stroke="black" stroke-width="1" fill="none" />
<polyline points="232.0,438.0,392.0,438.0" stroke="black" stroke-width="1" fill="none" />
<polyline points="424.0,374.0,240.0,374.0" stroke="black" stroke-width="1" fill="none" />
<polyline points="232.0,370.0,432.0,370.0" stroke="black" stroke-width="1" fill="none" />
<polyline points="448.0,208.0,224.0,432.0" stroke="black" stroke-width="1" fill="none" />
<polyline points="224.0,430.0,400.0,430.0" stroke="black" stroke-width="1" fill="none" />
<polyline points="392.0,450.0,232.0,450.0" stroke="black" stroke-width="1" fill="none" />
<polyline points="232.0,442.0,392.0,442.0" stroke="black" stroke-width="1" fill="none" />
<polyline points="432.0,406.0,232.0,406.0" stroke="black" stroke-width="1" fill="none" />
<polyline points="232.0,398.0,432.0,398.0" stroke="black" stroke-width="1" fill="none" />
<polyline points="456.0,208.0,224.0,440.0" stroke="black" stroke-width="1" fill="none" />
<polyline points="224.0,434.0,400.0,434.0" stroke="black" stroke-width="1" fill="none" />
<polyline points="432.0,390.0,232.0,390.0" stroke="black" stroke-width="1" fill="none" />
<polyline points="224.0,386.0,432.0,386.0" stroke="black" stroke-width="1" fill="none" />
<polyline points="440.0,200.0,224.0,416.0" stroke="black" stroke-width="1" fill="none" />
<polyline points="224.0,414.0,424.0,414.0" stroke="black" stroke-width="1" fill="none" />
<polyline points="232.0,368.0,424.0,176.0" stroke="black" stroke-width="1" fill="none" />
<polyline points="416.0,176.0,232.0,360.0" stroke="black" stroke-width="1" fill="none" />
<polyline points="232.0,358.0,416.0,358.0" stroke="black" stroke-width="1" fill="none" />
<polyline points="448.0,200.0,224.0,424.0" stroke="black" stroke-width="1" fill="none" />
<polyline points="224.0,422.0,416.0,422.0" stroke="black" stroke-width="1" fill="none" />
<polyline points="424.0,366.0,232.0,366.0" stroke="black" stroke-width="1" fill="none" />
<polyline points="224.0,362.0,424.0,362.0" stroke="black" stroke-width="1" fill="none" />
<polyline points="432.0,192.0,224.0,400.0" stroke="black" stroke-width="1" fill="none" />
<polyline points="224.0,402.0,432.0,402.0" stroke="black" stroke-width="1" fill="none" />
<polyline points="424.0,354.0,232.0,354.0" stroke="black" stroke-width="1" fill="none" />
<polyline points="232.0,352.0,416.0,168.0" stroke="black" stroke-width="1" fill="none" />
<polyline points="416.0,160.0,232.0,344.0" stroke="black" stroke-width="1" fill="none" />
<polyline points="232.0,350.0,424.0,350.0" stroke="black" stroke-width="1" fill="none" />
<polyline points="408.0,160.0,224.0,344.0" stroke="black" stroke-width="1" fill="none" />
<polyline points="224.0,342.0,416.0,342.0" stroke="black" stroke-width="1" fill="none" />
<polyline points="408.0,152.0,224.0,336.0" stroke="black" stroke-width="1" fill="none" />
<polyline points="224.0,334.0,416.0,334.0" stroke="black" stroke-width="1" fill="none" />
<polyline points="408.0,144.0,224.0,328.0" stroke="black" stroke-width="1" fill="none" />
<polyline points="224.0,326.0,424.0,326.0" stroke="black" stroke-width="1" fill="none" />
<polyline points="408.0,136.0,216.0,328.0" stroke="black" stroke-width="1" fill="none" />
<polyline points="216.0,322.0,424.0,322.0" stroke="black" stroke-width="1" fill="none" />
<polyline points="400.0,136.0,216.0,320.0" stroke="black" stroke-width="1" fill="none" />
<polyline points="216.0,318.0,424.0,318.0" stroke="black" stroke-width="1" fill="none" />
<polyline points="400.0,128.0,208.0,320.0" stroke="black" stroke-width="1" fill="none" />
<polyline points="208.0,314.0,432.0,314.0" stroke="black" stroke-width="1" fill="none" />
<polyline points="392.0,128.0,208.0,312.0" stroke="black" stroke-width="1" fill="none" />
<polyline points="200.0,312.0,392.0,120.0" stroke="black" stroke-width="1" fill="none" />
<polyline points="392.0,112.0,200.0,304.0" stroke="black" stroke-width="1" fill="none" />
<polyline points="200.0,302.0,440.0,302.0" stroke="black" stroke-width="1" fill="none" />
<polyline points="392.0,104.0,200.0,296.0" stroke="black" stroke-width="1" fill="none" />
<polyline points="200.0,298.0,448.0,298.0" stroke="black" stroke-width="1" fill="none" />
<polyline points="384.0,104.0,208.0,280.0" stroke="black" stroke-width="1" fill="none" />
<polyline points="208.0,278.0,472.0,278.0" stroke="black" stroke-width="1" fill="none" />
<polyline points="384.0,96.0,208.0,272.0" stroke="black" stroke-width="1" fill="none" />
<polyline points="208.0,270.0,480.0,270.0" stroke="black" stroke-width="1" fill="none" />
<polyline points="384.0,88.0,208.0,264.0" stroke="black" stroke-width="1" fill="none" />
<polyline points="200.0,264.0,376.0,88.0" stroke="black" stroke-width="1" fill="none" />
<polyline points="368.0,80.0,184.0,264.0" stroke="black" stroke-width="1" fill="none" />
<polyline points="192.0,264.0,384.0,72.0" stroke="black" stroke-width="1" fill="none" />
<polyline points="384.0,64.0,376.0,72.0" stroke="black" stroke-width="1" fill="none" />
<polyline points="376.0,70.0,384.0,70.0" stroke="black" stroke-width="1" fill="none" />
<polyline points="384.0,56.0,176.0,264.0" stroke="black" stroke-width="1" fill="none" />
<polyline points="176.0,256.0,376.0,56.0" stroke="black" stroke-width="1" fill="none" />
<polyline points="368.0,56.0,168.0,256.0" stroke="black" stroke-width="1" fill="none" />
<polyline points="168.0,254.0,488.0,254.0" stroke="black" stroke-width="1" fill="none" />
<polyline points="384.0,62.0,352.0,62.0" stroke="black" stroke-width="1" fill="none" />
<polyline points="352.0,56.0,160.0,248.0" stroke="black" stroke-width="1" fill="none" />
<polyline points="168.0,248.0,360.0,56.0" stroke="black" stroke-width="1" fill="none" />
<polyline points="352.0,50.0,368.0,50.0" stroke="black" stroke-width="1" fill="none" />
<polyline points="344.0,56.0,152.0,248.0" stroke="black" stroke-width="1" fill="none" />
<polyline points="144.0,248.0,336.0,56.0" stroke="black" stroke-width="1" fill="none" />
<polyline points="328.0,56.0,128.0,256.0" stroke="black" stroke-width="1" fill="none" />
<polyline points="120.0,256.0,320.0,56.0" stroke="black" stroke-width="1" fill="none" />
<polyline points="312.0,56.0,112.0,256.0" stroke="black" stroke-width="1" fill="none" />
<polyline points="112.0,254.0,128.0,254.0" stroke="black" stroke-width="1" fill="none" />
<polyline points="104.0,256.0,312.0,48.0" stroke="black" stroke-width="1" fill="none" />
<polyline points="304.0,48.0,96.0,256.0" stroke="black" stroke-width="1" fill="none" />
<polyline points="88.0,256.0,296.0,48.0" stroke="black" stroke-width="1" fill="none" />
<polyline points="296.0,40.0,280.0,56.0" stroke="black" stroke-width="1" fill="none" />
<polyline points="280.0,58.0,384.0,58.0" stroke="black" stroke-width="1" fill="none" />
<polyline points="344.0,62.0,288.0,62.0" stroke="black" stroke-width="1" fill="none" />
<polyline points="288.0,54.0,312.0,54.0" stroke="black" stroke-width="1" fill="none" />
<polyline points="328.0,50.0,280.0,50.0" stroke="black" stroke-width="1" fill="none" />
<polyline points="280.0,42.0,304.0,42.0" stroke="black" stroke-width="1" fill="none" />
<polyline points="272.0,64.0,72.0,264.0" stroke="black" stroke-width="1" fill="none" />
<polyline points="72.0,258.0,88.0,258.0" stroke="black" stroke-width="1" fill="none" />
<polyline points="72.0,256.0,264.0,64.0" stroke="black" stroke-width="1" fill="none" />
<polyline points="264.0,56.0,64.0,256.0" stroke="black" stroke-width="1" fill="none" />
<polyline points="64.0,254.0,96.0,254.0" stroke="black" stroke-width="1" fill="none" />
<polyline points="64.0,248.0,256.0,56.0" stroke="black" stroke-width="1" fill="none" />
<polyline points="248.0,56.0,56.0,248.0" stroke="black" stroke-width="1" fill="none" />
<polyline points="56.0,246.0,496.0,246.0" stroke="black" stroke-width="1" fill="none" />
<polyline points="432.0,394.0,224.0,394.0" stroke="black" stroke-width="1" fill="none" />
<polyline points="216.0,418.0,424.0,418.0" stroke="black" stroke-width="1" fill="none" />
<polyline points="424.0,346.0,224.0,346.0" stroke="black" stroke-width="1" fill="none" />
<polyline points="224.0,338.0,424.0,338.0" stroke="black" stroke-width="1" fill="none" />
<polyline points="424.0,330.0,224.0,330.0" stroke="black" stroke-width="1" fill="none" />
<polyline points="200.0,310.0,432.0,310.0" stroke="black" stroke-width="1" fill="none" />
<polyline points="408.0,426.0,216.0,426.0" stroke="black" stroke-width="1" fill="none" />
<polyline points="200.0,306.0,440.0,306.0" stroke="black" stroke-width="1" fill="none" />
<polyline points="448.0,294.0,208.0,294.0" stroke="black" stroke-width="1" fill="none" />
<polyline points="208.0,286.0,456.0,286.0" stroke="black" stroke-width="1" fill="none" />
<polyline points="456.0,290.0,200.0,290.0" stroke="black" stroke-width="1" fill="none" />
<polyline points="200.0,282.0,464.0,282.0" stroke="black" stroke-width="1" fill="none" />
<polyline points="472.0,274.0,200.0,274.0" stroke="black" stroke-width="1" fill="none" />
<polyline points="200.0,266.0,480.0,266.0" stroke="black" stroke-width="1" fill="none" />
<polyline points="480.0,262.0,200.0,262.0" stroke="black" stroke-width="1" fill="none" />
<polyline points="168.0,258.0,488.0,258.0" stroke="black" stroke-width="1" fill="none" />
<polyline points="248.0,48.0,48.0,248.0" stroke="black" stroke-width="1" fill="none" />
<polyline points="48.0,242.0,496.0,242.0" stroke="black" stroke-width="1" fill="none" />
<polyline points="240.0,48.0,48.0,240.0" stroke="black" stroke-width="1" fill="none" />
<polyline points="40.0,240.0,232.0,48.0" stroke="black" stroke-width="1" fill="none" />
<polyline points="232.0,40.0,40.0,232.0" stroke="black" stroke-width="1" fill="none" />
<polyline points="40.0,230.0,504.0,230.0" stroke="black" stroke-width="1" fill="none" />
<polyline points="496.0,250.0,168.0,250.0" stroke="black" stroke-width="1" fill="none" />
<polyline points="144.0,250.0,56.0,250.0" stroke="black" stroke-width="1" fill="none" />
<polyline points="40.0,238.0,496.0,238.0" stroke="black" stroke-width="1" fill="none" />
<polyline points="224.0,40.0,32.0,232.0" stroke="black" stroke-width="1" fill="none" />
<polyline points="32.0,226.0,504.0,226.0" stroke="black" stroke-width="1" fill="none" />
<polyline points="216.0,40.0,32.0,224.0" stroke="black" stroke-width="1" fill="none" />
<polyline points="32.0,222.0,456.0,222.0" stroke="black" stroke-width="1" fill="none" />
<polyline points="208.0,40.0,32.0,216.0" stroke="black" stroke-width="1" fill="none" />
<polyline points="24.0,216.0,208.0,32.0" stroke="black" stroke-width="1" fill="none" />
<polyline points="208.0,24.0,24.0,208.0" stroke="black" stroke-width="1" fill="none" />
<polyline points="24.0,214.0,448.0,214.0" stroke="black" stroke-width="1" fill="none" />
<polyline points="208.0,16.0,16.0,208.0" stroke="black" stroke-width="1" fill="none" />
<polyline points="16.0,206.0,448.0,206.0" stroke="black" stroke-width="1" fill="none" />
<polyline points="208.0,8.0,16.0,200.0" stroke="black" stroke-width="1" fill="none" />
<polyline points="16.0,198.0,440.0,198.0" stroke="black" stroke-width="1" fill="none" />
<polyline points="208.0,0.0,8.0,200.0" stroke="black" stroke-width="1" fill="none" />
<polyline points="8.0,202.0,456.0,202.0" stroke="black" stroke-width="1" fill="none" />
<polyline points="200.0,0.0,8.0,192.0" stroke="black" stroke-width="1" fill="none" />
<polyline points="8.0,190.0,432.0,190.0" stroke="black" stroke-width="1" fill="none" />
<polyline points="184.0,8.0,8.0,184.0" stroke="black" stroke-width="1" fill="none" />
<polyline points="8.0,178.0,424.0,178.0" stroke="black" stroke-width="1" fill="none" />
<polyline points="176.0,8.0,16.0,168.0" stroke="black" stroke-width="1" fill="none" />
<polyline points="16.0,166.0,416.0,166.0" stroke="black" stroke-width="1" fill="none" />
<polyline points="208.0,2.0,176.0,2.0" stroke="black" stroke-width="1" fill="none" />
<polyline points="168.0,8.0,16.0,160.0" stroke="black" stroke-width="1" fill="none" />
<polyline points="16.0,158.0,408.0,158.0" stroke="black" stroke-width="1" fill="none" />
<polyline points="160.0,8.0,16.0,152.0" stroke="black" stroke-width="1" fill="none" />
<polyline points="16.0,150.0,408.0,150.0" stroke="black" stroke-width="1" fill="none" />
<polyline points="168.0,2.0,160.0,2.0" stroke="black" stroke-width="1" fill="none" />
<polyline points="152.0,8.0,16.0,144.0" stroke="black" stroke-width="1" fill="none" />
<polyline points="16.0,142.0,400.0,142.0" stroke="black" stroke-width="1" fill="none" />
<polyline points="208.0,14.0,152.0,14.0" stroke="black" stroke-width="1" fill="none" />
<polyline points="144.0,8.0,16.0,136.0" stroke="black" stroke-width="1" fill="none" />
<polyline points="8.0,136.0,128.0,16.0" stroke="black" stroke-width="1" fill="none" />
<polyline points="128.0,22.0,208.0,22.0" stroke="black" stroke-width="1" fill="none" />
<polyline points="216.0,10.0,136.0,10.0" stroke="black" stroke-width="1" fill="none" />
<polyline points="112.0,24.0,16.0,120.0" stroke="black" stroke-width="1" fill="none" />
<polyline points="16.0,118.0,392.0,118.0" stroke="black" stroke-width="1" fill="none" />
<polyline points="104.0,24.0,64.0,64.0" stroke="black" stroke-width="1" fill="none" />
<polyline points="64.0,62.0,264.0,62.0" stroke="black" stroke-width="1" fill="none" />
<polyline points="96.0,24.0,64.0,56.0" stroke="black" stroke-width="1" fill="none" />
<polyline points="64.0,54.0,240.0,54.0" stroke="black" stroke-width="1" fill="none" />
<polyline points="96.0,16.0,88.0,24.0" stroke="black" stroke-width="1" fill="none" />
<polyline points="88.0,18.0,216.0,18.0" stroke="black" stroke-width="1" fill="none" />
<polyline points="208.0,30.0,88.0,30.0" stroke="black" stroke-width="1" fill="none" />
<polyline points="80.0,32.0,64.0,48.0" stroke="black" stroke-width="1" fill="none" />
<polyline points="64.0,42.0,240.0,42.0" stroke="black" stroke-width="1" fill="none" />
<polyline points="208.0,38.0,80.0,38.0" stroke="black" stroke-width="1" fill="none" />
<polyline points="72.0,34.0,216.0,34.0" stroke="black" stroke-width="1" fill="none" />
<polyline points="208.0,26.0,80.0,26.0" stroke="black" stroke-width="1" fill="none" />
<polyline points="72.0,46.0,216.0,46.0" stroke="black" stroke-width="1" fill="none" />
<polyline points="64.0,70.0,368.0,70.0" stroke="black" stroke-width="1" fill="none" />
<polyline points="368.0,78.0,56.0,78.0" stroke="black" stroke-width="1" fill="none" />
<polyline points="48.0,80.0,24.0,104.0" stroke="black" stroke-width="1" fill="none" />
<polyline points="24.0,98.0,392.0,98.0" stroke="black" stroke-width="1" fill="none" />
<polyline points="384.0,66.0,56.0,66.0" stroke="black" stroke-width="1" fill="none" />
<polyline points="56.0,58.0,272.0,58.0" stroke="black" stroke-width="1" fill="none" />
<polyline points="248.0,50.0,56.0,50.0" stroke="black" stroke-width="1" fill="none" />
<polyline points="48.0,74.0,384.0,74.0" stroke="black" stroke-width="1" fill="none" />
<polyline points="376.0,86.0,48.0,86.0" stroke="black" stroke-width="1" fill="none" />
<polyline points="40.0,94.0,376.0,94.0" stroke="black" stroke-width="1" fill="none" />
<polyline points="504.0,234.0,40.0,234.0" stroke="black" stroke-width="1" fill="none" />
<polyline points="24.0,218.0,512.0,218.0" stroke="black" stroke-width="1" fill="none" />
<polyline points="384.0,102.0,32.0,102.0" stroke="black" stroke-width="1" fill="none" />
<polyline points="24.0,110.0,392.0,110.0" stroke="black" stroke-width="1" fill="none" />
<polyline points="384.0,90.0,32.0,90.0" stroke="black" stroke-width="1" fill="none" />
<polyline points="32.0,82.0,384.0,82.0" stroke="black" stroke-width="1" fill="none" />
<polyline points="456.0,210.0,16.0,210.0" stroke="black" stroke-width="1" fill="none" />
<polyline points="8.0,194.0,448.0,194.0" stroke="black" stroke-width="1" fill="none" />
<polyline points="424.0,182.0,16.0,182.0" stroke="black" stroke-width="1" fill="none" />
<polyline points="16.0,174.0,416.0,174.0" stroke="black" stroke-width="1" fill="none" />
<polyline points="416.0,162.0,16.0,162.0" stroke="black" stroke-width="1" fill="none" />
<polyline points="16.0,154.0,416.0,154.0" stroke="black" stroke-width="1" fill="none" />
<polyline points="408.0,146.0,16.0,146.0" stroke="black" stroke-width="1" fill="none" />
<polyline points="8.0,138.0,408.0,138.0" stroke="black" stroke-width="1" fill="none" />
<polyline points="392.0,126.0,16.0,126.0" stroke="black" stroke-width="1" fill="none" />
<polyline points="8.0,122.0,400.0,122.0" stroke="black" stroke-width="1" fill="none" />
<polyline points="392.0,114.0,16.0,114.0" stroke="black" stroke-width="1" fill="none" />
<polyline points="16.0,106.0,392.0,106.0" stroke="black" stroke-width="1" fill="none" />
<polyline points="424.0,170.0,8.0,170.0" stroke="black" stroke-width="1" fill="none" />
<polyline points="8.0,134.0,400.0,134.0" stroke="black" stroke-width="1" fill="none" />
<polyline points="408.0,130.0,8.0,130.0" stroke="black" stroke-width="1" fill="none" />
</svg>