<svg xmlns="http://www.w3.org/2000/svg" height="507px" width="512px" version="1.1"><polyline points="3.0,1.0,2.0,9.0,2.0,17.0,2.0,25.0,2.0,33.0,2.0,41.0,2.0,49.0,2.0,57.0,2.0,65.0,2.0,73.0,2.0,81.0,2.0,89.0,2.0,97.0,2.0,105.0,2.0,113.0,2.0,121.0,2.0,129.0,2.0,137.0,2.0,145.0,2.0,153.0,2.0,161.0,2.0,169.0,2.0,177.0,2.0,185.0,2.0,193.0,2.0,201.0,2.0,209.0,2.0,217.0,2.0,225.0,2.0,233.0,2.0,241.0,2.0,249.0,2.0,257.0,2.0,265.0,2.0,273.0,2.0,281.0,2.0,289.0,2.0,297.0,2.0,305.0,2.0,313.0,2.0,321.0,2.0,329.0,2.0,337.0,2.0,345.0,2.0,353.0,2.0,361.0,2.0,369.0,2.0,377.0,2.0,385.0,2.0,393.0,2.0,401.0,2.0,409.0,2.0,417.0,2.0,425.0,2.0,433.0,2.0,441.0,2.0,449.0,2.0,457.0,2.0,465.0,2.0,473.0,2.0,481.0,2.0,489.0,2.0,497.0,2.0,505.0,8.0,507.0,16.0,507.0,24.0,507.0,32.0,507.0,40.0,507.0,48.0,507.0,56.0,507.0,64.0,507.0,72.0,507.0,80.0,507.0,88.0,507.0,96.0,507.0,104.0,507.0,112.0,507.0,120.0,507.0,128.0,507.0,136.0,507.0,144.0,507.0,152.0,507.0,160.0,507.0,168.0,507.0,176.0,507.0,184.0,507.0,192.0,507.0,200.0,507.0,208.0,507.0,216.0,507.0,224.0,507.0,232.0,507.0,240.0,507.0,248.0,507.0,256.0,507.0,264.0,507.0,272.0,507.0,280.0,507.0,288.0,507.0,296.0,507.0,304.0,507.0,312.0,507.0,320.0,507.0,328.0,507.0,336.0,507.0,344.0,507.0,352.0,507.0,360.0,507.0,368.0,507.0,376.0,507.0,384.0,507.0,392.0,507.0,400.0,507.0,408.0,507.0,416.0,507.0,424.0,507.0,432.0,507.0,440.0,507.0,448.0,507.0,456.0,507.0,464.0,507.0,472.0,507.0,480.0,507.0,488.0,507.0,496.0,507.0,504.0,507.0" stroke="black" stroke-width="1" fill="none" />
<polyline points="508.0,503.0,508.0,495.0,508.0,487.0,508.0,479.0,508.0,471.0,508.0,463.0,508.0,455.0,508.0,447.0,508.0,439.0,508.0,431.0,508.0,423.0,508.0,415.0,508.0,407.0,508.0,399.0,508.0,391.0,508.0,383.0,508.0,375.0,508.0,367.0,508.0,359.0,508.0,351.0,508.0,343.0,508.0,335.0,508.0,327.0,508.0,319.0,508.0,311.0,508.0,303.0,508.0,295.0,508.0,287.0,508.0,279.0,508.0,271.0,508.0,263.0,508.0,255.0,508.0,247.0,508.0,239.0,508.0,231.0,508.0,223.0,508.0,215.0,508.0,207.0,508.0,199.0,508.0,191.0,508.0,183.0,508.0,175.0,508.0,167.0,508.0,159.0,508.0,151.0,508.0,143.0,508.0,135.0,508.0,127.0,508.0,119.0,508.0,111.0,508.0,103.0,508.0,95.0,508.0,87.0,508.0,79.0,508.0,71.0,508.0,63.0,508.0,55.0,508.0,47.0,508.0,39.0,508.0,31.0,508.0,23.0,508.0,15.0,508.0,7.0,506.0,1.0,498.0,1.0,490.0,1.0,482.0,1.0,474.0,1.0,466.0,1.0,458.0,1.0,450.0,1.0,442.0,1.0,434.0,1.0,426.0,1.0,418.0,1.0,410.0,1.0,402.0,1.0,394.0,1.0,386.0,1.0,378.0,1.0,370.0,1.0,362.0,1.0,354.0,1.0,346.0,1.0,338.0,1.0,330.0,1.0,322.0,1.0,314.0,1.0,306.0,1.0,298.0,1.0,290.0,1.0,282.0,1.0,274.0,1.0,266.0,1.0,258.0,1.0,250.0,1.0,242.0,1.0,234.0,1.0,226.0,1.0,218.0,1.0,210.0,1.0,202.0,1.0,194.0,1.0,186.0,1.0,178.0,1.0,170.0,1.0,162.0,1.0,154.0,1.0,146.0,1.0,138.0,1.0,130.0,1.0,122.0,1.0,114.0,1.0,106.0,1.0,98.0,1.0,90.0,1.0,82.0,1.0,74.0,1.0,66.0,1.0,58.0,1.0,50.0,1.0,42.0,1.0,34.0,1.0,26.0,1.0,18.0,1.0,10.0,1.0,2.0,2.0" stroke="black" stroke-width="1" fill="none" />
<polyline points="0.0,2.0,8.0,2.0" stroke="black" stroke-width="1" fill="none" />
<polyline points="504.0,2.0,512.0,2.0" stroke="black" stroke-width="1" fill="none" />
<polyline points="512.0,506.0,504.0,506.0" stroke="black" stroke-width="1" fill="none" />
<polyline points="8.0,506.0,0.0,506.0" stroke="black" stroke-width="1" fill="none" />
</svg>