<svg xmlns="http://www.w3.org/2000/svg" height="435px" width="439px" version="1.1"><polyline points="313.0,81.0,332.0,89.0,347.0,97.0,360.0,105.0,371.0,113.0,380.0,121.0,388.0,129.0,395.0,137.0,402.0,145.0,408.0,153.0,413.0,161.0,417.0,169.0,421.0,177.0,425.0,185.0,428.0,193.0,430.0,201.0,432.0,209.0,435.0,217.0,436.0,225.0,437.0,233.0,437.0,241.0,439.0,249.0,439.0,257.0,438.0,265.0,437.0,273.0,436.0,281.0,435.0,289.0,433.0,297.0,431.0,305.0,428.0,313.0,425.0,321.0,421.0,329.0,418.0,337.0,413.0,345.0,408.0,353.0,403.0,361.0,396.0,369.0,388.0,377.0,380.0,385.0,372.0,393.0,362.0,401.0,350.0,409.0,335.0,417.0" stroke="black" stroke-width="1" fill="none" />
<polyline points="422.0,328.0,414.0,343.0,406.0,356.0,398.0,367.0,390.0,375.0,382.0,384.0,374.0,391.0,366.0,398.0,358.0,403.0,350.0,409.0,342.0,413.0,334.0,418.0,326.0,420.0,318.0,424.0,310.0,427.0,302.0,429.0,294.0,431.0,286.0,433.0,278.0,433.0,270.0,434.0,262.0,435.0,254.0,435.0,246.0,435.0,238.0,434.0,230.0,433.0,222.0,432.0,214.0,430.0,206.0,428.0,198.0,425.0,190.0,423.0,182.0,419.0,174.0,415.0,166.0,410.0,158.0,406.0,150.0,400.0,142.0,394.0,134.0,387.0,126.0,379.0,118.0,371.0,110.0,360.0,102.0,349.0,94.0,334.0,86.0,317.0" stroke="black" stroke-width="1" fill="none" />
<polyline points="83.0,197.0,91.0,177.0,99.0,162.0,107.0,149.0,115.0,139.0,123.0,130.0,131.0,122.0,139.0,115.0,147.0,108.0,155.0,102.0,163.0,98.0,171.0,93.0,179.0,89.0,187.0,85.0,195.0,83.0,203.0,80.0,211.0,77.0,219.0,76.0,227.0,75.0,235.0,73.0,243.0,72.0,251.0,72.0,259.0,72.0,267.0,72.0,275.0,72.0,283.0,74.0,291.0,75.0,299.0,77.0,307.0,79.0,315.0,81.0,323.0,85.0,331.0,88.0,339.0,92.0,347.0,96.0,355.0,101.0,363.0,106.0,371.0,112.0,379.0,119.0,387.0,127.0,395.0,135.0,403.0,145.0,411.0,158.0,419.0,172.0" stroke="black" stroke-width="1" fill="none" />
<polyline points="192.0,83.0,174.0,91.0,160.0,99.0,149.0,107.0,138.0,115.0,130.0,123.0,122.0,131.0,115.0,139.0,108.0,147.0,103.0,155.0,99.0,163.0,94.0,171.0,90.0,179.0,87.0,187.0,84.0,195.0,82.0,203.0,80.0,211.0,78.0,219.0,77.0,227.0,75.0,235.0,75.0,243.0,75.0,251.0,75.0,259.0,75.0,267.0,76.0,275.0,77.0,283.0,78.0,291.0,80.0,299.0,83.0,307.0,85.0,315.0,88.0,323.0,92.0,331.0,96.0,339.0,100.0,347.0,106.0,355.0,111.0,363.0,117.0,371.0,125.0,379.0,133.0,387.0,142.0,395.0,153.0,403.0,166.0,411.0,181.0,419.0,202.0,427.0" stroke="black" stroke-width="1" fill="none" />
</svg>