<svg xmlns="http://www.w3.org/2000/svg" height="383px" width="511px" version="1.1"><polyline points="1.0,0.0,1.0,8.0,1.0,16.0,1.0,24.0,1.0,32.0,1.0,40.0,1.0,48.0,1.0,56.0,1.0,64.0,1.0,72.0,1.0,80.0,1.0,88.0,1.0,96.0,1.0,104.0,1.0,112.0,1.0,120.0,1.0,128.0,1.0,136.0,1.0,144.0,1.0,152.0,1.0,160.0,1.0,168.0,1.0,176.0,1.0,184.0,1.0,192.0,1.0,200.0,1.0,208.0,1.0,216.0,1.0,224.0,1.0,232.0,1.0,240.0,1.0,248.0,1.0,256.0,1.0,264.0,1.0,272.0,1.0,280.0,1.0,288.0,1.0,296.0,1.0,304.0,1.0,312.0,1.0,320.0,1.0,328.0,1.0,336.0,1.0,344.0,1.0,352.0,1.0,360.0,1.0,368.0,1.0,376.0,3.0,383.0,11.0,383.0,19.0,383.0,27.0,383.0,35.0,383.0,43.0,383.0,51.0,383.0,59.0,383.0,67.0,383.0,75.0,383.0,83.0,383.0,91.0,383.0,99.0,383.0,107.0,383.0,115.0,383.0,123.0,383.0,131.0,383.0,139.0,383.0,147.0,383.0,155.0,383.0,163.0,383.0,171.0,383.0,179.0,383.0,187.0,383.0,195.0,383.0,203.0,383.0,211.0,383.0,219.0,383.0,227.0,383.0,235.0,383.0,243.0,383.0,251.0,383.0,259.0,383.0,267.0,383.0,275.0,383.0,283.0,383.0,291.0,383.0,299.0,383.0,307.0,383.0,315.0,383.0,323.0,383.0,331.0,383.0,339.0,383.0,347.0,383.0,355.0,383.0,363.0,383.0,371.0,383.0,379.0,383.0,387.0,383.0,395.0,383.0,403.0,383.0,411.0,383.0,419.0,383.0,427.0,383.0,435.0,383.0,443.0,383.0,451.0,383.0,459.0,383.0,467.0,383.0,475.0,383.0,483.0,383.0,491.0,383.0,499.0,383.0,507.0,383.0" stroke="black" stroke-width="1" fill="none" />
<polyline points="511.0,379.0,511.0,371.0,511.0,363.0,511.0,355.0,511.0,347.0,511.0,339.0,511.0,331.0,511.0,323.0,511.0,315.0,511.0,307.0,511.0,299.0,511.0,291.0,511.0,283.0,511.0,275.0,511.0,267.0,511.0,259.0,511.0,251.0,511.0,243.0,511.0,235.0,511.0,227.0,511.0,219.0,511.0,211.0,511.0,203.0,511.0,195.0,511.0,187.0,511.0,179.0,511.0,171.0,511.0,163.0,511.0,155.0,511.0,147.0,511.0,139.0,511.0,131.0,511.0,123.0,511.0,115.0,511.0,107.0,511.0,99.0,511.0,91.0,511.0,83.0,511.0,75.0,511.0,67.0,511.0,59.0,511.0,51.0,511.0,43.0,511.0,35.0,511.0,27.0,511.0,19.0,511.0,11.0,511.0,3.0,504.0,1.0,496.0,1.0,488.0,1.0,480.0,1.0,472.0,1.0,464.0,1.0,456.0,1.0,448.0,1.0,440.0,1.0,432.0,1.0,424.0,1.0,416.0,1.0,408.0,1.0,400.0,1.0,392.0,1.0,384.0,1.0,376.0,1.0,368.0,1.0,360.0,1.0,352.0,1.0,344.0,1.0,336.0,1.0,328.0,1.0,320.0,1.0,312.0,1.0,304.0,1.0,296.0,1.0,288.0,1.0,280.0,1.0,272.0,1.0,264.0,1.0,256.0,1.0,248.0,1.0,240.0,1.0,232.0,1.0,224.0,1.0,216.0,1.0,208.0,1.0,200.0,1.0,192.0,1.0,184.0,1.0,176.0,1.0,168.0,1.0,160.0,1.0,152.0,1.0,144.0,1.0,136.0,1.0,128.0,1.0,120.0,1.0,112.0,1.0,104.0,1.0,96.0,1.0,88.0,1.0,80.0,1.0,72.0,1.0,64.0,1.0,56.0,1.0,48.0,1.0,40.0,1.0,32.0,1.0,24.0,1.0,16.0,1.0,8.0,1.0,0.0,1.0" stroke="black" stroke-width="1" fill="none" />
<polyline points="124.0,68.0,132.0,60.0" stroke="black" stroke-width="1" fill="none" />
<polyline points="200.0,17.0,180.0,25.0,164.0,33.0,151.0,41.0,141.0,49.0,132.0,57.0,124.0,65.0,116.0,73.0,110.0,81.0,104.0,89.0,99.0,97.0,95.0,105.0,90.0,113.0,87.0,121.0,84.0,129.0,81.0,137.0,79.0,145.0,77.0,153.0,75.0,161.0,74.0,169.0,73.0,177.0,73.0,185.0,73.0,193.0,73.0,201.0,74.0,209.0,74.0,217.0,76.0,225.0,78.0,233.0,79.0,241.0,82.0,249.0,85.0,257.0,88.0,265.0,92.0,273.0,96.0,281.0,101.0,289.0,106.0,297.0,112.0,305.0,119.0,313.0,127.0,321.0,135.0,329.0,145.0,337.0,156.0,345.0,170.0,353.0,186.0,361.0" stroke="black" stroke-width="1" fill="none" />
<polyline points="86.0,249.0,94.0,268.0,102.0,284.0,110.0,296.0,118.0,306.0,126.0,315.0,134.0,323.0,142.0,330.0,150.0,336.0,158.0,342.0,166.0,347.0,174.0,351.0,182.0,355.0,190.0,358.0,198.0,361.0,206.0,364.0,214.0,366.0,222.0,367.0,230.0,369.0,238.0,370.0,246.0,371.0,254.0,371.0,262.0,371.0,270.0,370.0,278.0,369.0,286.0,368.0,294.0,366.0,302.0,365.0,310.0,362.0,318.0,360.0,326.0,356.0,334.0,353.0,342.0,348.0,350.0,344.0,358.0,338.0,366.0,332.0,374.0,326.0,382.0,318.0,390.0,310.0,398.0,300.0,406.0,289.0,414.0,275.0,422.0,257.0" stroke="black" stroke-width="1" fill="none" />
<polyline points="387.0,317.0,381.0,323.0" stroke="black" stroke-width="1" fill="none" />
<polyline points="430.0,144.0,425.0,122.0,417.0,106.0,409.0,92.0,401.0,81.0,393.0,71.0,385.0,63.0,377.0,55.0,369.0,48.0,361.0,42.0,353.0,37.0,345.0,32.0,337.0,28.0,329.0,24.0,321.0,21.0,313.0,18.0,305.0,15.0,297.0,14.0,289.0,12.0,281.0,10.0,273.0,10.0,265.0,9.0,257.0,9.0,249.0,9.0,241.0,9.0,233.0,10.0,225.0,11.0,217.0,13.0,209.0,15.0,201.0,17.0,193.0,20.0,185.0,23.0,177.0,26.0,169.0,31.0,161.0,35.0,153.0,40.0,145.0,46.0,137.0,52.0,129.0,60.0,121.0,68.0,113.0,77.0,105.0,87.0,97.0,100.0,89.0,116.0,81.0,136.0" stroke="black" stroke-width="1" fill="none" />
<polyline points="313.0,22.0,333.0,30.0,348.0,38.0,360.0,46.0,370.0,54.0,379.0,62.0,387.0,70.0,394.0,78.0,400.0,86.0,406.0,94.0,411.0,102.0,415.0,110.0,419.0,118.0,422.0,126.0,425.0,134.0,428.0,142.0,430.0,150.0,431.0,158.0,433.0,166.0,434.0,174.0,434.0,182.0,435.0,190.0,435.0,198.0,434.0,206.0,433.0,214.0,432.0,222.0,430.0,230.0,429.0,238.0,426.0,246.0,424.0,254.0,420.0,262.0,417.0,270.0,412.0,278.0,408.0,286.0,402.0,294.0,396.0,302.0,390.0,310.0,382.0,318.0,374.0,326.0,364.0,334.0,352.0,342.0,339.0,350.0,320.0,358.0" stroke="black" stroke-width="1" fill="none" />
</svg>