<svg xmlns="http://www.w3.org/2000/svg" height="255px" width="511px" version="1.1"><polyline points="1.0,0.0,1.0,8.0,1.0,16.0,1.0,24.0,1.0,32.0,1.0,40.0,1.0,48.0,1.0,56.0,1.0,64.0,1.0,72.0,1.0,80.0,1.0,88.0,1.0,96.0,1.0,104.0,1.0,112.0,1.0,120.0,1.0,128.0,1.0,136.0,1.0,144.0,1.0,152.0,1.0,160.0,1.0,168.0,7.0,170.0,16.0,167.0" stroke="black" stroke-width="1" fill="none" />
<polyline points="7.0,169.0,9.0,175.0,2.0,184.0,1.0,192.0,3.0,192.0,10.0,194.0,18.0,203.0,26.0,210.0,39.0,216.0,50.0,217.0,54.0,220.0,58.0,222.0" stroke="black" stroke-width="1" fill="none" />
<polyline points="69.0,216.0,76.0,216.0,74.0,224.0,77.0,220.0" stroke="black" stroke-width="1" fill="none" />
<polyline points="74.0,220.0,82.0,213.0,86.0,209.0" stroke="black" stroke-width="1" fill="none" />
<polyline points="96.0,207.0,88.0,201.0,83.0,196.0,75.0,202.0" stroke="black" stroke-width="1" fill="none" />
<polyline points="89.0,188.0,95.0,190.0,88.0,190.0,92.0,198.0,88.0,208.0,98.0,215.0,103.0,212.0,110.0,195.0,117.0,198.0,128.0,201.0,136.0,195.0,144.0,192.0,155.0,189.0,157.0,189.0,165.0,189.0" stroke="black" stroke-width="1" fill="none" />
<polyline points="172.0,180.0,175.0,181.0,173.0,186.0,178.0,196.0,185.0,203.0,183.0,208.0,180.0,217.0,179.0,225.0,182.0,235.0,175.0,239.0,172.0,247.0,178.0,251.0,175.0,255.0" stroke="black" stroke-width="1" fill="none" />
<polyline points="176.0,242.0,184.0,233.0,193.0,230.0,201.0,231.0" stroke="black" stroke-width="1" fill="none" />
<polyline points="204.0,226.0,208.0,229.0,201.0,233.0,206.0,242.0,213.0,239.0,218.0,232.0" stroke="black" stroke-width="1" fill="none" />
<polyline points="216.0,243.0,217.0,237.0,229.0,243.0,236.0,241.0" stroke="black" stroke-width="1" fill="none" />
<polyline points="244.0,244.0,239.0,252.0,240.0,250.0,230.0,249.0,243.0,243.0,237.0,240.0,235.0,232.0" stroke="black" stroke-width="1" fill="none" />
<polyline points="237.0,232.0,245.0,225.0" stroke="black" stroke-width="1" fill="none" />
<polyline points="253.0,234.0,264.0,243.0,266.0,249.0" stroke="black" stroke-width="1" fill="none" />
<polyline points="279.0,239.0,290.0,246.0,280.0,248.0,275.0,250.0,283.0,249.0" stroke="black" stroke-width="1" fill="none" />
<polyline points="289.0,253.0,295.0,250.0,302.0,247.0,304.0,243.0,305.0,235.0" stroke="black" stroke-width="1" fill="none" />
<polyline points="291.0,222.0,291.0,226.0,281.0,232.0,280.0,238.0,274.0,240.0,271.0,244.0,267.0,252.0,255.0,251.0,262.0,251.0,268.0,249.0,275.0,250.0,280.0,248.0,294.0,247.0,305.0,247.0,312.0,251.0,324.0,255.0" stroke="black" stroke-width="1" fill="none" />
<polyline points="335.0,248.0,327.0,242.0,334.0,240.0,330.0,234.0" stroke="black" stroke-width="1" fill="none" />
<polyline points="325.0,240.0,333.0,245.0,340.0,236.0,348.0,236.0,359.0,233.0,363.0,230.0" stroke="black" stroke-width="1" fill="none" />
<polyline points="360.0,226.0,364.0,234.0,361.0,242.0,368.0,239.0,366.0,248.0,378.0,247.0" stroke="black" stroke-width="1" fill="none" />
<polyline points="394.0,237.0,385.0,233.0,376.0,244.0,367.0,241.0,359.0,238.0" stroke="black" stroke-width="1" fill="none" />
<polyline points="351.0,244.0,351.0,248.0,341.0,250.0,351.0,255.0" stroke="black" stroke-width="1" fill="none" />
<polyline points="346.0,205.0,346.0,208.0,341.0,202.0" stroke="black" stroke-width="1" fill="none" />
<polyline points="317.0,215.0,325.0,224.0,333.0,229.0,332.0,233.0,314.0,239.0,314.0,247.0,306.0,252.0,318.0,252.0" stroke="black" stroke-width="1" fill="none" />
<polyline points="305.0,210.0,310.0,200.0,313.0,192.0,312.0,189.0,318.0,177.0,324.0,171.0,323.0,169.0,315.0,159.0" stroke="black" stroke-width="1" fill="none" />
<polyline points="310.0,162.0,314.0,158.0,310.0,166.0,308.0,180.0,315.0,181.0" stroke="black" stroke-width="1" fill="none" />
<polyline points="338.0,153.0,346.0,153.0,354.0,154.0,357.0,155.0,349.0,163.0,354.0,172.0,362.0,173.0" stroke="black" stroke-width="1" fill="none" />
<polyline points="366.0,159.0,372.0,167.0,371.0,175.0,371.0,183.0,374.0,191.0,377.0,199.0,378.0,207.0,379.0,215.0,382.0,223.0,370.0,227.0,372.0,227.0,380.0,229.0,388.0,227.0,394.0,224.0,401.0,212.0" stroke="black" stroke-width="1" fill="none" />
<polyline points="397.0,211.0,395.0,203.0,399.0,189.0,409.0,187.0" stroke="black" stroke-width="1" fill="none" />
<polyline points="407.0,185.0,407.0,189.0,403.0,197.0,414.0,206.0,412.0,219.0" stroke="black" stroke-width="1" fill="none" />
<polyline points="407.0,232.0,415.0,237.0,409.0,246.0,414.0,252.0,426.0,251.0,430.0,255.0" stroke="black" stroke-width="1" fill="none" />
<polyline points="444.0,250.0,432.0,254.0,429.0,245.0,435.0,235.0,450.0,234.0,448.0,234.0,440.0,230.0" stroke="black" stroke-width="1" fill="none" />
<polyline points="429.0,231.0,431.0,240.0,441.0,238.0,455.0,235.0" stroke="black" stroke-width="1" fill="none" />
<polyline points="450.0,245.0,443.0,252.0,451.0,253.0" stroke="black" stroke-width="1" fill="none" />
<polyline points="477.0,247.0,485.0,246.0,496.0,240.0,498.0,246.0" stroke="black" stroke-width="1" fill="none" />
<polyline points="509.0,203.0,504.0,198.0,496.0,193.0,495.0,200.0" stroke="black" stroke-width="1" fill="none" />
<polyline points="480.0,189.0,488.0,188.0,491.0,176.0,499.0,172.0" stroke="black" stroke-width="1" fill="none" />
<polyline points="498.0,169.0,490.0,177.0,497.0,188.0,493.0,196.0,484.0,196.0,492.0,206.0,497.0,208.0,494.0,219.0,491.0,225.0" stroke="black" stroke-width="1" fill="none" />
<polyline points="464.0,249.0,456.0,250.0,459.0,250.0,452.0,250.0,457.0,236.0,464.0,236.0,466.0,228.0,474.0,215.0,471.0,212.0,474.0,204.0,480.0,195.0,476.0,192.0,474.0,184.0,467.0,178.0,471.0,181.0" stroke="black" stroke-width="1" fill="none" />
<polyline points="461.0,172.0,464.0,180.0,472.0,175.0,480.0,174.0,487.0,171.0,495.0,166.0,503.0,170.0,509.0,178.0" stroke="black" stroke-width="1" fill="none" />
<polyline points="478.0,196.0,477.0,192.0,471.0,197.0,468.0,193.0,460.0,193.0,452.0,183.0,446.0,178.0,435.0,182.0,433.0,177.0,427.0,175.0,419.0,177.0,411.0,175.0,403.0,174.0,391.0,176.0,383.0,172.0,369.0,169.0,361.0,162.0,353.0,163.0,350.0,159.0,344.0,168.0,336.0,171.0,339.0,163.0,336.0,155.0,336.0,146.0,336.0,138.0,335.0,130.0" stroke="black" stroke-width="1" fill="none" />
<polyline points="336.0,138.0,344.0,136.0,352.0,135.0,364.0,141.0,373.0,139.0" stroke="black" stroke-width="1" fill="none" />
<polyline points="365.0,146.0,357.0,147.0,349.0,145.0,341.0,145.0" stroke="black" stroke-width="1" fill="none" />
<polyline points="361.0,155.0,369.0,157.0,379.0,168.0,376.0,176.0,377.0,188.0,380.0,193.0,388.0,195.0,389.0,199.0,397.0,192.0,405.0,186.0,409.0,197.0,419.0,191.0,420.0,181.0" stroke="black" stroke-width="1" fill="none" />
<polyline points="423.0,169.0,431.0,170.0,439.0,172.0,447.0,173.0" stroke="black" stroke-width="1" fill="none" />
<polyline points="457.0,178.0,458.0,181.0,455.0,182.0,443.0,187.0,445.0,195.0,446.0,203.0,442.0,205.0,443.0,202.0,454.0,200.0,456.0,195.0,466.0,188.0" stroke="black" stroke-width="1" fill="none" />
<polyline points="446.0,185.0,438.0,190.0,432.0,192.0,426.0,201.0,422.0,206.0" stroke="black" stroke-width="1" fill="none" />
<polyline points="424.0,241.0,426.0,249.0" stroke="black" stroke-width="1" fill="none" />
<polyline points="498.0,250.0,487.0,253.0,478.0,251.0,481.0,247.0,497.0,242.0,494.0,236.0,499.0,228.0,504.0,228.0,507.0,220.0,507.0,215.0,503.0,211.0,492.0,217.0,489.0,213.0,486.0,201.0,479.0,209.0,471.0,212.0,461.0,205.0,453.0,209.0,455.0,206.0,461.0,197.0,467.0,197.0,466.0,192.0,465.0,182.0,463.0,174.0,455.0,170.0,453.0,165.0,461.0,162.0,466.0,155.0,462.0,147.0,457.0,138.0,454.0,130.0,455.0,122.0,452.0,126.0" stroke="black" stroke-width="1" fill="none" />
<polyline points="449.0,140.0,441.0,143.0" stroke="black" stroke-width="1" fill="none" />
<polyline points="434.0,144.0,442.0,150.0" stroke="black" stroke-width="1" fill="none" />
<polyline points="439.0,167.0,431.0,163.0,423.0,163.0,417.0,169.0,409.0,172.0,401.0,169.0,393.0,165.0" stroke="black" stroke-width="1" fill="none" />
<polyline points="389.0,153.0,381.0,153.0" stroke="black" stroke-width="1" fill="none" />
<polyline points="376.0,154.0,384.0,147.0,392.0,147.0,405.0,153.0" stroke="black" stroke-width="1" fill="none" />
<polyline points="414.0,135.0,406.0,132.0" stroke="black" stroke-width="1" fill="none" />
<polyline points="403.0,130.0,411.0,124.0,410.0,125.0,405.0,133.0,395.0,140.0" stroke="black" stroke-width="1" fill="none" />
<polyline points="379.0,148.0,376.0,156.0,390.0,158.0,395.0,169.0,390.0,169.0,384.0,184.0,388.0,192.0,390.0,193.0,397.0,199.0,397.0,208.0,397.0,216.0,399.0,224.0,392.0,226.0,392.0,237.0,397.0,242.0,398.0,247.0,392.0,254.0,393.0,252.0,398.0,249.0,406.0,242.0,419.0,248.0,428.0,247.0" stroke="black" stroke-width="1" fill="none" />
<polyline points="411.0,181.0,403.0,181.0,395.0,184.0,387.0,182.0,379.0,179.0" stroke="black" stroke-width="1" fill="none" />
<polyline points="433.0,172.0,424.0,180.0,420.0,189.0,420.0,196.0,423.0,202.0,423.0,210.0,426.0,217.0,422.0,219.0,430.0,222.0,438.0,220.0" stroke="black" stroke-width="1" fill="none" />
<polyline points="482.0,140.0,490.0,133.0,498.0,134.0,505.0,134.0" stroke="black" stroke-width="1" fill="none" />
<polyline points="509.0,134.0,511.0,142.0,511.0,150.0,511.0,158.0,511.0,166.0,507.0,174.0,505.0,184.0,501.0,192.0,496.0,194.0,488.0,199.0,478.0,201.0,480.0,210.0,484.0,212.0,475.0,222.0,474.0,229.0,476.0,234.0,469.0,238.0,465.0,229.0,471.0,236.0,478.0,240.0,487.0,226.0,493.0,233.0,497.0,234.0,505.0,230.0,509.0,240.0" stroke="black" stroke-width="1" fill="none" />
<polyline points="505.0,140.0,503.0,150.0,500.0,154.0,497.0,147.0,498.0,139.0,511.0,131.0,511.0,123.0,511.0,115.0,511.0,107.0,511.0,99.0,510.0,91.0,511.0,83.0,511.0,75.0,511.0,67.0,511.0,59.0,511.0,51.0,511.0,43.0,511.0,35.0,511.0,27.0,511.0,19.0,511.0,11.0,511.0,3.0,504.0,1.0,496.0,1.0,488.0,1.0,480.0,1.0,472.0,1.0,464.0,1.0,456.0,1.0,448.0,1.0,440.0,1.0,432.0,1.0,424.0,1.0,416.0,1.0,408.0,1.0,400.0,1.0,392.0,1.0,384.0,1.0,376.0,1.0,368.0,1.0,360.0,1.0,352.0,1.0,344.0,1.0,336.0,1.0,328.0,1.0,320.0,1.0,312.0,1.0,304.0,1.0,296.0,1.0,288.0,1.0,280.0,1.0,272.0,1.0,264.0,1.0,256.0,1.0,248.0,1.0,240.0,1.0,232.0,1.0,224.0,1.0,216.0,1.0,208.0,1.0,200.0,1.0,192.0,1.0,184.0,1.0,176.0,1.0,168.0,1.0,160.0,1.0,152.0,1.0,144.0,1.0,136.0,1.0,128.0,1.0,120.0,1.0,112.0,1.0,104.0,1.0,96.0,1.0,88.0,1.0,80.0,1.0,72.0,1.0,64.0,1.0,56.0,1.0,48.0,1.0,40.0,1.0,32.0,1.0,24.0,1.0,16.0,1.0,8.0,1.0,0.0,1.0" stroke="black" stroke-width="1" fill="none" />
<polyline points="109.0,89.0,117.0,87.0,125.0,86.0,132.0,90.0,140.0,87.0" stroke="black" stroke-width="1" fill="none" />
<polyline points="142.0,136.0,134.0,137.0" stroke="black" stroke-width="1" fill="none" />
<polyline points="137.0,154.0,129.0,156.0" stroke="black" stroke-width="1" fill="none" />
<polyline points="125.0,162.0,133.0,163.0" stroke="black" stroke-width="1" fill="none" />
<polyline points="131.0,176.0,130.0,184.0,130.0,195.0,136.0,203.0,127.0,201.0,123.0,210.0,129.0,212.0,137.0,220.0,137.0,228.0,121.0,228.0,132.0,226.0,137.0,231.0,142.0,228.0,156.0,225.0,166.0,235.0,173.0,235.0,183.0,230.0,189.0,222.0,195.0,219.0,205.0,222.0,213.0,224.0,226.0,231.0,230.0,235.0,237.0,224.0,246.0,219.0,255.0,223.0" stroke="black" stroke-width="1" fill="none" />
<polyline points="261.0,202.0,258.0,192.0,250.0,187.0,242.0,192.0" stroke="black" stroke-width="1" fill="none" />
<polyline points="245.0,201.0,237.0,207.0,231.0,207.0,227.0,203.0,221.0,211.0,234.0,209.0,241.0,204.0,251.0,200.0,252.0,192.0" stroke="black" stroke-width="1" fill="none" />
<polyline points="254.0,198.0,256.0,206.0,256.0,214.0,250.0,218.0,246.0,219.0,237.0,224.0,231.0,234.0,217.0,242.0,222.0,242.0,220.0,248.0" stroke="black" stroke-width="1" fill="none" />
<polyline points="245.0,255.0,253.0,254.0" stroke="black" stroke-width="1" fill="none" />
<polyline points="230.0,219.0,236.0,219.0,239.0,214.0,244.0,208.0" stroke="black" stroke-width="1" fill="none" />
<polyline points="232.0,189.0,240.0,186.0,246.0,183.0,232.0,191.0,229.0,196.0,232.0,181.0,241.0,180.0,241.0,172.0,248.0,169.0" stroke="black" stroke-width="1" fill="none" />
<polyline points="248.0,172.0,248.0,177.0,245.0,180.0" stroke="black" stroke-width="1" fill="none" />
<polyline points="246.0,182.0,254.0,179.0,262.0,171.0,266.0,172.0,257.0,173.0" stroke="black" stroke-width="1" fill="none" />
<polyline points="260.0,182.0,252.0,183.0" stroke="black" stroke-width="1" fill="none" />
<polyline points="239.0,169.0,231.0,177.0,220.0,187.0,212.0,193.0" stroke="black" stroke-width="1" fill="none" />
<polyline points="209.0,209.0,209.0,213.0" stroke="black" stroke-width="1" fill="none" />
<polyline points="198.0,225.0,191.0,233.0,196.0,238.0,195.0,243.0,202.0,244.0,201.0,252.0,204.0,249.0,208.0,255.0,217.0,255.0" stroke="black" stroke-width="1" fill="none" />
<polyline points="222.0,254.0,217.0,253.0,207.0,248.0,211.0,241.0,218.0,232.0,229.0,228.0,223.0,221.0,220.0,213.0,223.0,208.0,223.0,200.0,223.0,192.0,224.0,187.0,230.0,179.0,223.0,180.0,222.0,172.0,224.0,164.0,227.0,156.0,225.0,152.0" stroke="black" stroke-width="1" fill="none" />
<polyline points="229.0,142.0,218.0,160.0,206.0,169.0,203.0,173.0,195.0,171.0" stroke="black" stroke-width="1" fill="none" />
<polyline points="193.0,167.0,195.0,165.0,192.0,173.0,188.0,179.0,200.0,180.0" stroke="black" stroke-width="1" fill="none" />
<polyline points="201.0,197.0,201.0,193.0,197.0,188.0,195.0,182.0,202.0,176.0,203.0,168.0,208.0,161.0,203.0,157.0,209.0,152.0,208.0,144.0,201.0,154.0" stroke="black" stroke-width="1" fill="none" />
<polyline points="214.0,142.0,206.0,137.0,198.0,134.0,193.0,140.0,199.0,132.0" stroke="black" stroke-width="1" fill="none" />
<polyline points="207.0,122.0,215.0,121.0" stroke="black" stroke-width="1" fill="none" />
<polyline points="227.0,126.0,238.0,109.0,246.0,110.0,255.0,117.0" stroke="black" stroke-width="1" fill="none" />
<polyline points="261.0,125.0,259.0,133.0,252.0,138.0,248.0,148.0,250.0,144.0,263.0,134.0,271.0,137.0,275.0,140.0,278.0,145.0,288.0,148.0,290.0,159.0" stroke="black" stroke-width="1" fill="none" />
<polyline points="301.0,146.0,306.0,138.0,298.0,133.0" stroke="black" stroke-width="1" fill="none" />
<polyline points="300.0,135.0,308.0,130.0" stroke="black" stroke-width="1" fill="none" />
<polyline points="309.0,142.0,309.0,150.0,307.0,158.0,308.0,153.0" stroke="black" stroke-width="1" fill="none" />
<polyline points="315.0,144.0,302.0,151.0,300.0,158.0,285.0,168.0,283.0,160.0,282.0,155.0,273.0,162.0,279.0,161.0,278.0,153.0,278.0,145.0,283.0,137.0,283.0,131.0,290.0,123.0,289.0,131.0" stroke="black" stroke-width="1" fill="none" />
<polyline points="294.0,115.0,300.0,126.0,298.0,134.0,301.0,134.0,300.0,142.0,302.0,151.0,299.0,158.0,302.0,166.0,305.0,171.0,311.0,176.0,312.0,184.0,316.0,190.0,316.0,198.0,312.0,206.0,311.0,214.0,310.0,222.0,311.0,226.0,308.0,234.0,318.0,238.0,318.0,248.0,325.0,253.0,339.0,255.0" stroke="black" stroke-width="1" fill="none" />
<polyline points="269.0,158.0,270.0,157.0,267.0,146.0,265.0,144.0" stroke="black" stroke-width="1" fill="none" />
<polyline points="256.0,144.0,259.0,139.0,259.0,149.0,262.0,157.0,258.0,165.0,266.0,164.0,268.0,169.0" stroke="black" stroke-width="1" fill="none" />
<polyline points="266.0,154.0,258.0,157.0" stroke="black" stroke-width="1" fill="none" />
<polyline points="240.0,168.0,244.0,168.0,249.0,176.0,256.0,185.0,257.0,186.0,263.0,191.0,265.0,197.0,262.0,210.0,261.0,218.0,259.0,221.0,261.0,229.0,271.0,232.0,279.0,235.0,287.0,229.0,297.0,232.0,306.0,234.0" stroke="black" stroke-width="1" fill="none" />
<polyline points="241.0,157.0,233.0,170.0,228.0,171.0,232.0,170.0,235.0,162.0" stroke="black" stroke-width="1" fill="none" />
<polyline points="190.0,190.0,188.0,191.0,180.0,194.0" stroke="black" stroke-width="1" fill="none" />
<polyline points="179.0,200.0,187.0,198.0" stroke="black" stroke-width="1" fill="none" />
<polyline points="166.0,203.0,164.0,211.0,172.0,216.0" stroke="black" stroke-width="1" fill="none" />
<polyline points="161.0,195.0,148.0,204.0,145.0,212.0" stroke="black" stroke-width="1" fill="none" />
<polyline points="145.0,219.0,140.0,211.0,138.0,205.0,137.0,207.0" stroke="black" stroke-width="1" fill="none" />
<polyline points="131.0,205.0,132.0,213.0,142.0,220.0,140.0,228.0,128.0,237.0,137.0,245.0,136.0,251.0" stroke="black" stroke-width="1" fill="none" />
<polyline points="135.0,244.0,138.0,236.0" stroke="black" stroke-width="1" fill="none" />
<polyline points="146.0,231.0,150.0,228.0,154.0,231.0,164.0,239.0,149.0,244.0,140.0,253.0,152.0,252.0,157.0,243.0,165.0,238.0,175.0,238.0,187.0,238.0,189.0,234.0,191.0,240.0,195.0,241.0,202.0,246.0" stroke="black" stroke-width="1" fill="none" />
<polyline points="188.0,254.0,192.0,252.0,189.0,244.0,183.0,244.0" stroke="black" stroke-width="1" fill="none" />
<polyline points="184.0,245.0,184.0,253.0" stroke="black" stroke-width="1" fill="none" />
<polyline points="159.0,245.0,159.0,245.0,151.0,253.0" stroke="black" stroke-width="1" fill="none" />
<polyline points="148.0,239.0,143.0,241.0,146.0,243.0,146.0,251.0,157.0,253.0,167.0,253.0" stroke="black" stroke-width="1" fill="none" />
<polyline points="137.0,219.0,130.0,219.0,124.0,219.0" stroke="black" stroke-width="1" fill="none" />
<polyline points="119.0,225.0,121.0,228.0,120.0,240.0,129.0,238.0,135.0,239.0,139.0,243.0,147.0,243.0,152.0,228.0,158.0,235.0" stroke="black" stroke-width="1" fill="none" />
<polyline points="194.0,196.0,183.0,194.0,179.0,183.0,173.0,186.0,163.0,178.0,162.0,179.0,163.0,171.0,154.0,168.0" stroke="black" stroke-width="1" fill="none" />
<polyline points="163.0,167.0,171.0,165.0" stroke="black" stroke-width="1" fill="none" />
<polyline points="164.0,144.0,172.0,138.0" stroke="black" stroke-width="1" fill="none" />
<polyline points="164.0,136.0,160.0,144.0,163.0,137.0" stroke="black" stroke-width="1" fill="none" />
<polyline points="110.0,157.0,118.0,156.0,114.0,168.0,119.0,174.0,116.0,182.0,109.0,191.0,108.0,198.0,107.0,203.0,101.0,211.0,94.0,215.0,86.0,224.0,81.0,228.0,75.0,234.0,69.0,238.0,67.0,243.0,64.0,250.0,65.0,245.0,78.0,248.0" stroke="black" stroke-width="1" fill="none" />
<polyline points="73.0,254.0,70.0,250.0,71.0,242.0" stroke="black" stroke-width="1" fill="none" />
<polyline points="85.0,232.0,92.0,226.0,89.0,234.0,91.0,236.0,87.0,238.0,81.0,250.0,79.0,253.0,89.0,255.0" stroke="black" stroke-width="1" fill="none" />
<polyline points="93.0,241.0,101.0,240.0,106.0,230.0,115.0,232.0" stroke="black" stroke-width="1" fill="none" />
<polyline points="108.0,254.0,108.0,247.0,115.0,236.0,106.0,236.0,112.0,232.0,107.0,227.0,107.0,219.0,103.0,218.0,103.0,217.0,102.0,205.0,100.0,198.0,102.0,191.0,100.0,183.0,95.0,188.0" stroke="black" stroke-width="1" fill="none" />
<polyline points="97.0,200.0,105.0,199.0,106.0,185.0,117.0,188.0,124.0,196.0,134.0,190.0,142.0,188.0,150.0,181.0" stroke="black" stroke-width="1" fill="none" />
<polyline points="140.0,188.0,148.0,175.0,135.0,179.0,122.0,177.0,111.0,184.0,115.0,177.0,110.0,174.0,109.0,166.0,98.0,169.0" stroke="black" stroke-width="1" fill="none" />
<polyline points="87.0,162.0,79.0,160.0,75.0,170.0" stroke="black" stroke-width="1" fill="none" />
<polyline points="78.0,175.0,75.0,183.0,70.0,188.0,72.0,191.0,67.0,197.0,63.0,203.0,67.0,211.0,61.0,220.0,59.0,223.0,63.0,231.0,64.0,233.0,59.0,240.0,56.0,248.0,56.0,244.0" stroke="black" stroke-width="1" fill="none" />
<polyline points="52.0,252.0,38.0,252.0,42.0,254.0,47.0,254.0,44.0,246.0,42.0,238.0,41.0,237.0" stroke="black" stroke-width="1" fill="none" />
<polyline points="33.0,203.0,41.0,192.0" stroke="black" stroke-width="1" fill="none" />
<polyline points="40.0,173.0,48.0,174.0" stroke="black" stroke-width="1" fill="none" />
<polyline points="59.0,166.0,51.0,160.0,44.0,155.0,33.0,158.0,25.0,157.0" stroke="black" stroke-width="1" fill="none" />
<polyline points="21.0,145.0,29.0,144.0,37.0,151.0,38.0,159.0,44.0,164.0" stroke="black" stroke-width="1" fill="none" />
<polyline points="46.0,153.0,47.0,162.0,63.0,166.0,63.0,174.0,58.0,182.0,52.0,187.0,43.0,192.0,38.0,196.0,25.0,205.0,23.0,218.0,24.0,226.0,29.0,233.0,29.0,233.0,33.0,222.0,40.0,231.0,45.0,238.0,53.0,233.0,64.0,223.0,64.0,233.0,72.0,225.0,75.0,237.0" stroke="black" stroke-width="1" fill="none" />
<polyline points="88.0,237.0,96.0,240.0,92.0,248.0,97.0,248.0,100.0,254.0" stroke="black" stroke-width="1" fill="none" />
<polyline points="123.0,196.0,122.0,188.0" stroke="black" stroke-width="1" fill="none" />
<polyline points="118.0,186.0,114.0,194.0,110.0,199.0,115.0,205.0,117.0,212.0,115.0,214.0,119.0,210.0,126.0,210.0,127.0,206.0,137.0,216.0,145.0,218.0,147.0,213.0,154.0,210.0,160.0,214.0,168.0,220.0,176.0,220.0" stroke="black" stroke-width="1" fill="none" />
<polyline points="106.0,131.0,98.0,127.0,90.0,127.0,82.0,131.0" stroke="black" stroke-width="1" fill="none" />
<polyline points="85.0,128.0,82.0,136.0,87.0,140.0" stroke="black" stroke-width="1" fill="none" />
<polyline points="82.0,143.0,74.0,140.0" stroke="black" stroke-width="1" fill="none" />
<polyline points="62.0,143.0,52.0,145.0,44.0,142.0" stroke="black" stroke-width="1" fill="none" />
<polyline points="49.0,153.0,61.0,161.0,69.0,161.0" stroke="black" stroke-width="1" fill="none" />
<polyline points="67.0,155.0,72.0,163.0,68.0,171.0,62.0,182.0,57.0,189.0,61.0,196.0,46.0,200.0,46.0,208.0,50.0,218.0,54.0,225.0,51.0,232.0,48.0,240.0,53.0,242.0,59.0,254.0,62.0,247.0,68.0,239.0,76.0,242.0,84.0,240.0,88.0,244.0,92.0,253.0,99.0,252.0,108.0,251.0" stroke="black" stroke-width="1" fill="none" />
<polyline points="87.0,153.0,79.0,153.0,71.0,151.0,63.0,150.0,55.0,155.0,47.0,150.0,39.0,146.0,31.0,145.0" stroke="black" stroke-width="1" fill="none" />
<polyline points="13.0,157.0,9.0,152.0,7.0,148.0" stroke="black" stroke-width="1" fill="none" />
<polyline points="26.0,170.0,22.0,178.0,18.0,187.0,14.0,194.0,17.0,198.0,22.0,195.0,30.0,187.0,43.0,190.0,51.0,188.0,52.0,183.0,60.0,181.0" stroke="black" stroke-width="1" fill="none" />
<polyline points="20.0,176.0,28.0,170.0,39.0,166.0,40.0,174.0,29.0,183.0,25.0,185.0,17.0,192.0,23.0,196.0,17.0,204.0,19.0,208.0,12.0,213.0,9.0,219.0,9.0,229.0,20.0,231.0,22.0,231.0,32.0,222.0,36.0,211.0,41.0,201.0,44.0,203.0,52.0,191.0,62.0,189.0,70.0,184.0,72.0,188.0,78.0,175.0,85.0,181.0,89.0,176.0,100.0,181.0,108.0,181.0" stroke="black" stroke-width="1" fill="none" />
<polyline points="96.0,139.0,93.0,131.0" stroke="black" stroke-width="1" fill="none" />
<polyline points="8.0,187.0,10.0,195.0,13.0,203.0,13.0,211.0,2.0,216.0,2.0,216.0,11.0,212.0,12.0,218.0" stroke="black" stroke-width="1" fill="none" />
<polyline points="33.0,230.0,34.0,221.0,29.0,216.0,35.0,208.0,35.0,195.0,36.0,187.0,27.0,183.0,19.0,183.0,11.0,187.0,3.0,186.0" stroke="black" stroke-width="1" fill="none" />
<polyline points="6.0,252.0,14.0,252.0" stroke="black" stroke-width="1" fill="none" />
<polyline points="225.0,113.0,223.0,116.0,226.0,108.0" stroke="black" stroke-width="1" fill="none" />
<polyline points="224.0,91.0,232.0,98.0,239.0,107.0,243.0,115.0,244.0,123.0,246.0,126.0,249.0,135.0,247.0,134.0,259.0,132.0,262.0,125.0,266.0,129.0,280.0,135.0,287.0,134.0,295.0,124.0,298.0,121.0,307.0,123.0,311.0,118.0" stroke="black" stroke-width="1" fill="none" />
<polyline points="313.0,106.0,305.0,107.0,297.0,111.0" stroke="black" stroke-width="1" fill="none" />
<polyline points="301.0,106.0,297.0,114.0,297.0,122.0,293.0,130.0,288.0,133.0,284.0,134.0,291.0,141.0,286.0,144.0,292.0,146.0,284.0,151.0,288.0,153.0,293.0,154.0,288.0,163.0,287.0,168.0,286.0,176.0,288.0,184.0" stroke="black" stroke-width="1" fill="none" />
<polyline points="317.0,101.0,311.0,93.0,313.0,85.0,313.0,77.0,320.0,73.0,312.0,79.0" stroke="black" stroke-width="1" fill="none" />
<polyline points="307.0,55.0,293.0,61.0,289.0,59.0,279.0,61.0,271.0,66.0" stroke="black" stroke-width="1" fill="none" />
<polyline points="260.0,65.0,263.0,62.0,258.0,62.0,259.0,68.0,261.0,72.0" stroke="black" stroke-width="1" fill="none" />
<polyline points="272.0,53.0,268.0,46.0,260.0,40.0,251.0,36.0" stroke="black" stroke-width="1" fill="none" />
<polyline points="252.0,39.0,260.0,36.0,268.0,34.0,276.0,35.0,284.0,33.0,292.0,43.0" stroke="black" stroke-width="1" fill="none" />
<polyline points="284.0,37.0,288.0,45.0,295.0,49.0,300.0,49.0,308.0,48.0,316.0,46.0,323.0,48.0,331.0,57.0,333.0,60.0" stroke="black" stroke-width="1" fill="none" />
<polyline points="333.0,69.0,330.0,61.0,327.0,53.0" stroke="black" stroke-width="1" fill="none" />
<polyline points="322.0,50.0,323.0,58.0,324.0,66.0,324.0,74.0,325.0,82.0,325.0,82.0" stroke="black" stroke-width="1" fill="none" />
<polyline points="274.0,39.0,266.0,38.0,265.0,43.0" stroke="black" stroke-width="1" fill="none" />
<polyline points="246.0,42.0,234.0,50.0,228.0,58.0,226.0,63.0,224.0,71.0,222.0,79.0,220.0,87.0,221.0,95.0,227.0,103.0,235.0,110.0,231.0,118.0,227.0,126.0,226.0,134.0,224.0,142.0,221.0,150.0,219.0,158.0,212.0,166.0,210.0,174.0,205.0,183.0,207.0,190.0,205.0,199.0,198.0,203.0,192.0,205.0,184.0,213.0,183.0,204.0,187.0,211.0" stroke="black" stroke-width="1" fill="none" />
<polyline points="231.0,85.0,230.0,77.0,232.0,69.0,235.0,61.0,234.0,59.0" stroke="black" stroke-width="1" fill="none" />
<polyline points="224.0,68.0,232.0,52.0,240.0,47.0,248.0,42.0,255.0,50.0,250.0,51.0,247.0,59.0,247.0,58.0,256.0,69.0,260.0,57.0,268.0,54.0,276.0,50.0,284.0,47.0,284.0,58.0,269.0,72.0" stroke="black" stroke-width="1" fill="none" />
<polyline points="234.0,77.0,233.0,85.0" stroke="black" stroke-width="1" fill="none" />
<polyline points="230.0,40.0,238.0,37.0" stroke="black" stroke-width="1" fill="none" />
<polyline points="411.0,117.0,419.0,113.0,429.0,105.0" stroke="black" stroke-width="1" fill="none" />
<polyline points="474.0,103.0,466.0,108.0,457.0,109.0,472.0,106.0,480.0,98.0" stroke="black" stroke-width="1" fill="none" />
<polyline points="491.0,82.0,499.0,85.0" stroke="black" stroke-width="1" fill="none" />
<polyline points="498.0,113.0,498.0,121.0" stroke="black" stroke-width="1" fill="none" />
<polyline points="497.0,115.0,505.0,115.0" stroke="black" stroke-width="1" fill="none" />
<polyline points="485.0,133.0,482.0,141.0,476.0,149.0,480.0,157.0" stroke="black" stroke-width="1" fill="none" />
</svg>