<svg xmlns="http://www.w3.org/2000/svg" height="456px" width="491px" version="1.1"><polyline points="253.0,44.0,249.0,52.0,244.0,60.0,240.0,68.0,235.0,76.0,230.0,84.0,226.0,92.0,221.0,100.0,217.0,108.0,212.0,116.0,207.0,124.0,203.0,132.0,198.0,140.0,194.0,148.0,189.0,156.0,184.0,164.0,180.0,172.0,175.0,180.0,170.0,188.0,166.0,196.0,161.0,204.0,157.0,212.0,152.0,220.0,147.0,228.0,143.0,236.0,138.0,244.0,134.0,252.0,129.0,260.0,124.0,268.0,120.0,276.0,115.0,284.0,111.0,292.0,106.0,300.0,101.0,308.0,97.0,316.0,92.0,324.0,87.0,332.0,83.0,340.0,78.0,348.0,74.0,356.0,69.0,364.0,64.0,372.0,60.0,380.0,55.0,388.0,51.0,396.0,46.0,404.0,41.0,412.0,37.0,420.0,32.0,428.0,28.0,436.0,23.0,444.0,18.0,452.0,22.0,445.0,30.0,431.0,38.0,417.0,46.0,404.0,54.0,390.0,62.0,376.0,70.0,362.0,78.0,348.0,86.0,334.0,94.0,320.0,102.0,306.0,110.0,293.0,118.0,279.0,126.0,265.0,134.0,251.0,142.0,237.0,150.0,223.0,158.0,209.0,166.0,195.0,174.0,181.0,182.0,168.0,190.0,154.0,198.0,140.0,206.0,126.0,214.0,112.0,222.0,98.0,230.0,84.0,238.0,70.0,246.0,57.0,254.0,45.0,262.0,56.0,270.0,70.0,278.0,84.0,286.0,98.0,294.0,112.0,302.0,125.0,310.0,139.0,318.0,153.0,326.0,167.0,334.0,181.0,342.0,195.0,350.0,209.0,358.0,222.0,366.0,236.0,374.0,250.0,382.0,264.0,390.0,278.0,398.0,292.0,406.0,305.0,414.0,319.0,422.0,333.0,430.0,347.0,438.0,361.0,446.0,375.0,454.0,389.0,462.0,402.0,470.0,416.0,478.0,430.0,486.0,444.0" stroke="black" stroke-width="1" fill="none" />
<polyline points="483.0,456.0,475.0,456.0,467.0,456.0,459.0,456.0,451.0,456.0,443.0,456.0,435.0,456.0,427.0,456.0,419.0,456.0,411.0,456.0,403.0,456.0,395.0,456.0,387.0,456.0,379.0,456.0,371.0,455.0,363.0,455.0,355.0,455.0,347.0,455.0,339.0,455.0,331.0,455.0,323.0,455.0,315.0,455.0,307.0,455.0,299.0,455.0,291.0,455.0,283.0,455.0,275.0,455.0,267.0,455.0,259.0,455.0,251.0,455.0,243.0,455.0,235.0,455.0,227.0,455.0,219.0,455.0,211.0,455.0,203.0,455.0,195.0,455.0,187.0,455.0,179.0,455.0,171.0,455.0,163.0,455.0,155.0,455.0,147.0,455.0,139.0,455.0,131.0,455.0,123.0,455.0,115.0,455.0,107.0,455.0,99.0,455.0,91.0,455.0,83.0,455.0,75.0,455.0,67.0,455.0,59.0,455.0,51.0,455.0,43.0,455.0,35.0,455.0,27.0,455.0,19.0,455.0" stroke="black" stroke-width="1" fill="none" />
<polyline points="491.0,454.0,486.0,446.0,482.0,438.0,477.0,430.0,472.0,422.0,468.0,414.0,463.0,406.0,459.0,398.0,454.0,390.0,449.0,382.0,445.0,374.0,440.0,366.0,436.0,358.0,431.0,350.0,426.0,342.0,422.0,334.0,417.0,326.0,412.0,318.0,408.0,310.0,403.0,302.0,399.0,294.0,394.0,286.0,389.0,278.0,385.0,270.0,380.0,262.0,375.0,254.0,371.0,246.0,366.0,238.0,362.0,230.0,357.0,222.0,352.0,214.0,348.0,206.0,343.0,198.0,339.0,190.0,334.0,182.0,329.0,174.0,325.0,166.0,320.0,158.0,315.0,150.0,311.0,142.0,306.0,134.0,302.0,126.0,297.0,118.0,292.0,110.0,288.0,102.0,283.0,94.0,278.0,86.0,274.0,78.0,269.0,70.0,265.0,62.0,260.0,54.0,255.0,46.0" stroke="black" stroke-width="1" fill="none" />
</svg>