<svg xmlns="http://www.w3.org/2000/svg" height="452px" width="511px" version="1.1"><polyline points="1.0,0.0,1.0,8.0,1.0,16.0,1.0,24.0,1.0,32.0,1.0,40.0,1.0,48.0,1.0,56.0,1.0,64.0,1.0,72.0,1.0,80.0,1.0,88.0,1.0,96.0,1.0,104.0,1.0,112.0,1.0,120.0,1.0,128.0,1.0,136.0,1.0,144.0,1.0,152.0,1.0,160.0,1.0,168.0,1.0,176.0,1.0,184.0,1.0,192.0,1.0,200.0,1.0,208.0,1.0,216.0,1.0,224.0,1.0,232.0,1.0,240.0,1.0,248.0,1.0,256.0,1.0,264.0,1.0,272.0,1.0,280.0,1.0,288.0,1.0,296.0,1.0,304.0,1.0,312.0,1.0,320.0,1.0,328.0,1.0,336.0,1.0,344.0,1.0,352.0,1.0,360.0,1.0,368.0,1.0,376.0,1.0,384.0,1.0,392.0,1.0,400.0,1.0,408.0,1.0,416.0,1.0,424.0,1.0,432.0,1.0,440.0,1.0,448.0,6.0,452.0,14.0,452.0,22.0,452.0,30.0,452.0,38.0,452.0,46.0,452.0,54.0,452.0,62.0,452.0,70.0,452.0,78.0,452.0,86.0,452.0,94.0,452.0,102.0,452.0,110.0,452.0,118.0,452.0,126.0,452.0,134.0,452.0,142.0,452.0,150.0,452.0,158.0,452.0,166.0,452.0,174.0,452.0,182.0,452.0,190.0,452.0,198.0,452.0,206.0,452.0,214.0,452.0,222.0,452.0,230.0,452.0,238.0,452.0,246.0,452.0,254.0,452.0,262.0,452.0,270.0,452.0,278.0,452.0,286.0,452.0,294.0,452.0,302.0,452.0,310.0,452.0,318.0,452.0,326.0,452.0,334.0,452.0,342.0,452.0,350.0,452.0,358.0,452.0,366.0,452.0,374.0,452.0,382.0,452.0,390.0,452.0,398.0,452.0,406.0,452.0,414.0,452.0,422.0,452.0,430.0,452.0,438.0,452.0,446.0,452.0,454.0,452.0,462.0,452.0,470.0,452.0,478.0,452.0,486.0,452.0,494.0,452.0,502.0,452.0,510.0,452.0" stroke="black" stroke-width="1" fill="none" />
<polyline points="501.0,407.0,493.0,409.0,485.0,400.0" stroke="black" stroke-width="1" fill="none" />
<polyline points="494.0,390.0,502.0,389.0" stroke="black" stroke-width="1" fill="none" />
<polyline points="495.0,389.0,499.0,397.0" stroke="black" stroke-width="1" fill="none" />
<polyline points="484.0,421.0,476.0,416.0" stroke="black" stroke-width="1" fill="none" />
<polyline points="468.0,394.0,460.0,393.0" stroke="black" stroke-width="1" fill="none" />
<polyline points="468.0,375.0,476.0,372.0,484.0,373.0" stroke="black" stroke-width="1" fill="none" />
<polyline points="445.0,378.0,445.0,380.0,445.0,388.0,457.0,394.0,461.0,402.0,464.0,415.0" stroke="black" stroke-width="1" fill="none" />
<polyline points="461.0,422.0,453.0,422.0,445.0,422.0,437.0,422.0,429.0,422.0" stroke="black" stroke-width="1" fill="none" />
<polyline points="429.0,419.0,437.0,419.0,445.0,419.0,453.0,419.0,461.0,419.0" stroke="black" stroke-width="1" fill="none" />
<polyline points="464.0,333.0,456.0,333.0,448.0,333.0" stroke="black" stroke-width="1" fill="none" />
<polyline points="429.0,333.0,434.0,345.0,441.0,351.0" stroke="black" stroke-width="1" fill="none" />
<polyline points="429.0,372.0,426.0,364.0,429.0,356.0,427.0,348.0,427.0,340.0,422.0,332.0" stroke="black" stroke-width="1" fill="none" />
<polyline points="429.0,297.0,437.0,296.0,445.0,296.0" stroke="black" stroke-width="1" fill="none" />
<polyline points="426.0,277.0,418.0,277.0,410.0,276.0" stroke="black" stroke-width="1" fill="none" />
<polyline points="401.0,292.0,409.0,296.0,408.0,304.0,408.0,312.0,408.0,318.0,410.0,326.0,410.0,334.0" stroke="black" stroke-width="1" fill="none" />
<polyline points="390.0,294.0,390.0,286.0,387.0,278.0" stroke="black" stroke-width="1" fill="none" />
<polyline points="394.0,269.0,387.0,260.0,380.0,250.0,373.0,238.0" stroke="black" stroke-width="1" fill="none" />
<polyline points="370.0,240.0,371.0,248.0,372.0,256.0,373.0,264.0,371.0,272.0,376.0,280.0" stroke="black" stroke-width="1" fill="none" />
<polyline points="381.0,273.0,380.0,265.0,380.0,257.0" stroke="black" stroke-width="1" fill="none" />
<polyline points="392.0,247.0,392.0,250.0,397.0,258.0,401.0,265.0,406.0,271.0,409.0,279.0,413.0,286.0,420.0,292.0,422.0,300.0,427.0,308.0,434.0,316.0,435.0,324.0,440.0,331.0,443.0,339.0,450.0,347.0,452.0,355.0,460.0,363.0,464.0,371.0,468.0,379.0,471.0,387.0,476.0,395.0,484.0,403.0,487.0,411.0,492.0,419.0,494.0,427.0" stroke="black" stroke-width="1" fill="none" />
<polyline points="408.0,243.0,400.0,240.0,392.0,241.0" stroke="black" stroke-width="1" fill="none" />
<polyline points="369.0,226.0,361.0,220.0" stroke="black" stroke-width="1" fill="none" />
<polyline points="352.0,225.0,353.0,217.0,352.0,209.0,355.0,203.0" stroke="black" stroke-width="1" fill="none" />
<polyline points="373.0,203.0,381.0,203.0,389.0,203.0" stroke="black" stroke-width="1" fill="none" />
<polyline points="369.0,168.0,361.0,166.0,353.0,163.0" stroke="black" stroke-width="1" fill="none" />
<polyline points="346.0,153.0,340.0,161.0,348.0,169.0,353.0,177.0,355.0,185.0,361.0,193.0,366.0,199.0,366.0,207.0,373.0,215.0,381.0,221.0,380.0,229.0,385.0,237.0,391.0,245.0,406.0,253.0" stroke="black" stroke-width="1" fill="none" />
<polyline points="354.0,238.0,360.0,233.0,352.0,232.0" stroke="black" stroke-width="1" fill="none" />
<polyline points="323.0,182.0,315.0,178.0" stroke="black" stroke-width="1" fill="none" />
<polyline points="316.0,177.0,315.0,185.0" stroke="black" stroke-width="1" fill="none" />
<polyline points="325.0,165.0,331.0,173.0,334.0,181.0,333.0,189.0,334.0,197.0,334.0,205.0" stroke="black" stroke-width="1" fill="none" />
<polyline points="343.0,182.0,336.0,174.0,330.0,163.0,323.0,149.0,317.0,134.0,309.0,128.0" stroke="black" stroke-width="1" fill="none" />
<polyline points="318.0,112.0,326.0,112.0,334.0,112.0" stroke="black" stroke-width="1" fill="none" />
<polyline points="335.0,145.0,343.0,148.0,351.0,147.0" stroke="black" stroke-width="1" fill="none" />
<polyline points="315.0,150.0,315.0,158.0,315.0,166.0" stroke="black" stroke-width="1" fill="none" />
<polyline points="296.0,144.0,297.0,136.0,299.0,128.0,296.0,120.0,299.0,112.0" stroke="black" stroke-width="1" fill="none" />
<polyline points="298.0,101.0,290.0,91.0" stroke="black" stroke-width="1" fill="none" />
<polyline points="299.0,73.0,307.0,73.0,315.0,76.0" stroke="black" stroke-width="1" fill="none" />
<polyline points="295.0,54.0,285.0,46.0,277.0,39.0" stroke="black" stroke-width="1" fill="none" />
<polyline points="285.0,43.0,293.0,45.0" stroke="black" stroke-width="1" fill="none" />
<polyline points="285.0,53.0,285.0,61.0,287.0,69.0,294.0,77.0,296.0,84.0,303.0,92.0,306.0,100.0,310.0,108.0,316.0,115.0,317.0,123.0,324.0,130.0,329.0,138.0,331.0,146.0,336.0,154.0" stroke="black" stroke-width="1" fill="none" />
<polyline points="278.0,107.0,278.0,99.0,279.0,91.0,278.0,83.0,277.0,75.0,275.0,71.0" stroke="black" stroke-width="1" fill="none" />
<polyline points="263.0,66.0,255.0,69.0,252.0,71.0,264.0,64.0,260.0,56.0" stroke="black" stroke-width="1" fill="none" />
<polyline points="247.0,44.0,255.0,34.0,249.0,42.0,247.0,50.0,245.0,58.0,236.0,66.0,233.0,74.0,227.0,82.0,222.0,90.0,217.0,98.0,212.0,106.0,207.0,114.0,205.0,122.0,198.0,130.0,194.0,138.0,189.0,146.0,183.0,154.0,182.0,162.0,175.0,170.0,171.0,178.0,166.0,186.0,162.0,194.0,159.0,202.0,161.0,205.0,159.0,197.0" stroke="black" stroke-width="1" fill="none" />
<polyline points="150.0,210.0,154.0,207.0,150.0,215.0,147.0,223.0,141.0,231.0,136.0,239.0,129.0,247.0,129.0,255.0,122.0,263.0,119.0,271.0,113.0,279.0,108.0,287.0,105.0,295.0,97.0,303.0,94.0,311.0,88.0,319.0,85.0,327.0,81.0,335.0,75.0,343.0,72.0,351.0,66.0,359.0,64.0,367.0,55.0,375.0,50.0,383.0,46.0,391.0,43.0,399.0,40.0,407.0" stroke="black" stroke-width="1" fill="none" />
<polyline points="39.0,412.0,31.0,415.0" stroke="black" stroke-width="1" fill="none" />
<polyline points="32.0,414.0,29.0,422.0" stroke="black" stroke-width="1" fill="none" />
<polyline points="10.0,426.0,18.0,435.0,26.0,435.0,34.0,435.0,42.0,435.0,50.0,435.0,58.0,435.0,66.0,435.0,74.0,435.0,82.0,435.0,90.0,435.0,98.0,435.0,106.0,435.0,114.0,435.0,122.0,435.0,130.0,435.0,138.0,435.0,146.0,435.0,154.0,435.0,162.0,435.0,170.0,435.0,178.0,435.0,186.0,435.0,194.0,435.0,202.0,435.0,210.0,435.0,218.0,435.0,226.0,435.0,234.0,435.0,242.0,435.0,250.0,435.0,258.0,435.0,266.0,435.0,274.0,435.0,282.0,435.0,290.0,435.0,298.0,435.0,306.0,435.0,314.0,435.0,322.0,435.0,330.0,435.0,338.0,435.0,346.0,435.0,354.0,435.0,362.0,435.0,370.0,435.0,378.0,435.0,386.0,435.0,394.0,435.0,402.0,435.0,410.0,435.0,418.0,435.0,426.0,435.0,434.0,435.0,442.0,435.0,450.0,435.0,458.0,435.0,466.0,435.0,474.0,435.0,482.0,435.0,490.0,433.0" stroke="black" stroke-width="1" fill="none" />
<polyline points="143.0,224.0,136.0,236.0,130.0,254.0,122.0,261.0" stroke="black" stroke-width="1" fill="none" />
<polyline points="112.0,276.0,123.0,277.0,122.0,285.0" stroke="black" stroke-width="1" fill="none" />
<polyline points="107.0,259.0,99.0,259.0,91.0,263.0" stroke="black" stroke-width="1" fill="none" />
<polyline points="96.0,258.0,91.0,266.0,92.0,274.0,95.0,282.0" stroke="black" stroke-width="1" fill="none" />
<polyline points="88.0,289.0,81.0,298.0,73.0,299.0" stroke="black" stroke-width="1" fill="none" />
<polyline points="77.0,314.0,73.0,310.0,73.0,302.0,82.0,297.0,85.0,289.0" stroke="black" stroke-width="1" fill="none" />
<polyline points="112.0,286.0,104.0,296.0,96.0,304.0,89.0,319.0,82.0,329.0,75.0,341.0" stroke="black" stroke-width="1" fill="none" />
<polyline points="69.0,373.0,62.0,370.0,54.0,376.0" stroke="black" stroke-width="1" fill="none" />
<polyline points="51.0,354.0,43.0,351.0,35.0,356.0" stroke="black" stroke-width="1" fill="none" />
<polyline points="40.0,351.0,36.0,359.0,36.0,367.0,31.0,375.0,31.0,383.0" stroke="black" stroke-width="1" fill="none" />
<polyline points="37.0,382.0,36.0,374.0,31.0,371.0" stroke="black" stroke-width="1" fill="none" />
<polyline points="25.0,391.0,17.0,392.0" stroke="black" stroke-width="1" fill="none" />
<polyline points="20.0,389.0,19.0,397.0,18.0,405.0" stroke="black" stroke-width="1" fill="none" />
<polyline points="16.0,409.0,8.0,412.0" stroke="black" stroke-width="1" fill="none" />
<polyline points="20.0,440.0,28.0,440.0,36.0,440.0,44.0,440.0,52.0,440.0,60.0,440.0,68.0,440.0,76.0,440.0,84.0,440.0,92.0,440.0,100.0,440.0,108.0,440.0,116.0,440.0,124.0,440.0,132.0,440.0,140.0,440.0,148.0,440.0,156.0,440.0,164.0,440.0,172.0,440.0,180.0,440.0,188.0,440.0,196.0,440.0,204.0,440.0,212.0,440.0,220.0,440.0,228.0,440.0,236.0,440.0,244.0,440.0,252.0,440.0,260.0,440.0,268.0,440.0,276.0,440.0,284.0,440.0,292.0,440.0,300.0,440.0,308.0,440.0,316.0,440.0,324.0,440.0,332.0,440.0,340.0,440.0,348.0,440.0,356.0,440.0,364.0,440.0,372.0,440.0,380.0,440.0,388.0,440.0,396.0,440.0,404.0,440.0,412.0,440.0,420.0,440.0,428.0,440.0,436.0,440.0,444.0,440.0,452.0,440.0,460.0,440.0,468.0,440.0,476.0,440.0" stroke="black" stroke-width="1" fill="none" />
<polyline points="175.0,169.0,182.0,155.0,189.0,144.0,197.0,133.0,205.0,121.0,212.0,110.0,219.0,96.0" stroke="black" stroke-width="1" fill="none" />
<polyline points="234.0,80.0,242.0,82.0" stroke="black" stroke-width="1" fill="none" />
<polyline points="221.0,54.0,213.0,54.0,205.0,56.0" stroke="black" stroke-width="1" fill="none" />
<polyline points="206.0,54.0,203.0,62.0,203.0,70.0,203.0,78.0,203.0,88.0,205.0,87.0" stroke="black" stroke-width="1" fill="none" />
<polyline points="200.0,93.0,192.0,92.0,184.0,93.0" stroke="black" stroke-width="1" fill="none" />
<polyline points="186.0,91.0,187.0,99.0,189.0,107.0,187.0,115.0,185.0,123.0" stroke="black" stroke-width="1" fill="none" />
<polyline points="182.0,128.0,174.0,131.0,166.0,129.0" stroke="black" stroke-width="1" fill="none" />
<polyline points="168.0,128.0,166.0,136.0,166.0,144.0,166.0,152.0,166.0,160.0" stroke="black" stroke-width="1" fill="none" />
<polyline points="163.0,166.0,155.0,166.0,147.0,169.0" stroke="black" stroke-width="1" fill="none" />
<polyline points="148.0,168.0,147.0,176.0,144.0,184.0,142.0,196.0" stroke="black" stroke-width="1" fill="none" />
<polyline points="145.0,184.0,137.0,184.0,129.0,187.0" stroke="black" stroke-width="1" fill="none" />
<polyline points="132.0,184.0,131.0,192.0,131.0,200.0,131.0,208.0,129.0,216.0,129.0,228.0" stroke="black" stroke-width="1" fill="none" />
<polyline points="126.0,224.0,118.0,222.0,110.0,225.0" stroke="black" stroke-width="1" fill="none" />
<polyline points="114.0,221.0,113.0,229.0,110.0,237.0,112.0,245.0,110.0,253.0" stroke="black" stroke-width="1" fill="none" />
<polyline points="70.0,316.0,62.0,314.0,54.0,315.0" stroke="black" stroke-width="1" fill="none" />
<polyline points="55.0,314.0,56.0,322.0,57.0,330.0,55.0,338.0,54.0,346.0,53.0,354.0" stroke="black" stroke-width="1" fill="none" />
<polyline points="54.0,410.0,62.0,409.0,70.0,409.0,78.0,409.0,86.0,409.0,94.0,409.0,102.0,409.0,110.0,409.0,118.0,409.0,126.0,409.0,134.0,409.0,142.0,409.0,150.0,409.0,158.0,409.0,166.0,409.0,174.0,409.0,182.0,409.0,190.0,409.0,198.0,409.0,206.0,412.0,217.0,409.0,225.0,414.0,233.0,414.0,241.0,414.0,249.0,414.0,257.0,414.0,265.0,414.0,273.0,414.0,281.0,414.0,289.0,414.0,297.0,414.0,305.0,414.0,313.0,414.0,321.0,414.0,329.0,414.0,337.0,414.0,345.0,414.0,353.0,414.0,361.0,414.0,369.0,414.0,377.0,414.0,385.0,414.0,393.0,414.0,401.0,414.0,409.0,410.0,417.0,409.0,425.0,409.0,433.0,409.0,441.0,409.0,449.0,409.0,457.0,409.0" stroke="black" stroke-width="1" fill="none" />
<polyline points="218.0,422.0,210.0,422.0,202.0,422.0,194.0,422.0,186.0,422.0,178.0,422.0,170.0,422.0,162.0,422.0,154.0,422.0,146.0,422.0,138.0,422.0,130.0,422.0,122.0,422.0,114.0,422.0,106.0,422.0,98.0,422.0,90.0,422.0,82.0,422.0,74.0,422.0,66.0,422.0,58.0,422.0" stroke="black" stroke-width="1" fill="none" />
<polyline points="57.0,419.0,65.0,419.0,73.0,419.0,81.0,419.0,89.0,419.0,97.0,419.0,105.0,419.0,113.0,419.0,121.0,419.0,129.0,419.0,137.0,419.0,145.0,419.0,153.0,419.0,161.0,419.0,169.0,419.0,177.0,419.0,185.0,419.0,193.0,419.0,201.0,419.0,209.0,419.0,217.0,419.0" stroke="black" stroke-width="1" fill="none" />
<polyline points="20.0,443.0,28.0,443.0,36.0,443.0,44.0,443.0,52.0,443.0,60.0,443.0,68.0,443.0,76.0,443.0,84.0,443.0,92.0,443.0,100.0,443.0,108.0,443.0,116.0,443.0,124.0,443.0,132.0,443.0,140.0,443.0,148.0,443.0,156.0,443.0,164.0,443.0,172.0,443.0,180.0,443.0,188.0,443.0,196.0,443.0,204.0,443.0,212.0,443.0,220.0,443.0,228.0,443.0,236.0,443.0,244.0,443.0,252.0,443.0,260.0,443.0,268.0,443.0,276.0,443.0,284.0,443.0,292.0,443.0,300.0,443.0,308.0,443.0,316.0,443.0,324.0,443.0,332.0,443.0,340.0,443.0,348.0,443.0,356.0,443.0,364.0,443.0,372.0,443.0,380.0,443.0,388.0,443.0,396.0,443.0,404.0,443.0,412.0,443.0,420.0,443.0,428.0,443.0,436.0,443.0,444.0,443.0,452.0,443.0,460.0,443.0,468.0,443.0,476.0,443.0" stroke="black" stroke-width="1" fill="none" />
<polyline points="278.0,19.0,270.0,17.0,262.0,17.0" stroke="black" stroke-width="1" fill="none" />
<polyline points="257.0,16.0,261.0,24.0,266.0,32.0,271.0,39.0,278.0,46.0,282.0,49.0,289.0,54.0" stroke="black" stroke-width="1" fill="none" />
<polyline points="238.0,35.0,230.0,38.0,222.0,38.0" stroke="black" stroke-width="1" fill="none" />
<polyline points="226.0,35.0,222.0,43.0,225.0,50.0" stroke="black" stroke-width="1" fill="none" />
<polyline points="240.0,34.0,240.0,26.0,243.0,18.0,240.0,10.0,240.0,2.0" stroke="black" stroke-width="1" fill="none" />
<polyline points="0.0,1.0,8.0,1.0,16.0,1.0,24.0,1.0,32.0,1.0,40.0,1.0,48.0,1.0,56.0,1.0,64.0,1.0,72.0,1.0,80.0,1.0,88.0,1.0,96.0,1.0,104.0,1.0,112.0,1.0,120.0,1.0,128.0,1.0,136.0,1.0,144.0,1.0,152.0,1.0,160.0,1.0,168.0,1.0,176.0,1.0,184.0,1.0,192.0,1.0,200.0,1.0,208.0,1.0,216.0,1.0,224.0,1.0,232.0,1.0,240.0,1.0,248.0,1.0,256.0,1.0,264.0,1.0,272.0,1.0,280.0,1.0,288.0,1.0,296.0,1.0,304.0,1.0,312.0,1.0,320.0,1.0,328.0,1.0,336.0,1.0,344.0,1.0,352.0,1.0,360.0,1.0,368.0,1.0,376.0,1.0,384.0,1.0,392.0,1.0,400.0,1.0,408.0,1.0,416.0,1.0,424.0,1.0,432.0,1.0,440.0,1.0,448.0,1.0,456.0,1.0,464.0,1.0,472.0,1.0,480.0,1.0,488.0,1.0,496.0,1.0,504.0,1.0,511.0,3.0,511.0,11.0,511.0,19.0,511.0,27.0,511.0,35.0,511.0,43.0,511.0,51.0,511.0,59.0,511.0,67.0,511.0,75.0,511.0,83.0,511.0,91.0,511.0,99.0,511.0,107.0,511.0,115.0,511.0,123.0,511.0,131.0,511.0,139.0,511.0,147.0,511.0,155.0,511.0,163.0,511.0,171.0,511.0,179.0,511.0,187.0,511.0,195.0,511.0,203.0,511.0,211.0,511.0,219.0,511.0,227.0,511.0,235.0,511.0,243.0,511.0,251.0,511.0,259.0,511.0,267.0,511.0,275.0,511.0,283.0,511.0,291.0,511.0,299.0,511.0,307.0,511.0,315.0,511.0,323.0,511.0,331.0,511.0,339.0,511.0,347.0,511.0,355.0,511.0,363.0,511.0,371.0,511.0,379.0,511.0,387.0,511.0,395.0,511.0,403.0,511.0,411.0,511.0,419.0,511.0,427.0,511.0,435.0,511.0,443.0,511.0,451.0" stroke="black" stroke-width="1" fill="none" />
</svg>