<svg xmlns="http://www.w3.org/2000/svg" height="264px" width="511px" version="1.1"><polyline points="1.0,0.0,1.0,8.0,1.0,16.0,1.0,24.0,1.0,32.0,1.0,40.0,1.0,48.0,1.0,56.0,1.0,64.0,1.0,72.0,1.0,80.0,1.0,88.0,1.0,96.0,1.0,104.0,1.0,112.0,1.0,120.0,1.0,128.0,1.0,136.0,1.0,144.0,1.0,152.0,1.0,160.0,1.0,168.0,1.0,176.0,1.0,184.0,1.0,192.0,1.0,200.0,1.0,208.0,1.0,216.0,1.0,224.0,1.0,232.0,1.0,240.0,1.0,248.0,1.0,256.0,2.0,264.0,10.0,264.0,18.0,264.0,26.0,264.0,34.0,264.0,42.0,264.0,50.0,264.0,58.0,264.0,66.0,264.0,74.0,264.0,82.0,264.0,90.0,264.0,98.0,264.0,106.0,264.0,114.0,264.0,122.0,264.0,130.0,264.0,138.0,264.0,146.0,264.0,154.0,264.0,162.0,264.0,170.0,264.0,178.0,264.0,186.0,264.0,194.0,264.0,202.0,264.0,210.0,264.0,218.0,264.0,226.0,264.0,234.0,264.0,242.0,264.0,250.0,264.0,258.0,264.0,266.0,264.0,274.0,264.0,282.0,264.0,290.0,264.0,298.0,264.0,306.0,264.0,314.0,264.0,322.0,264.0,330.0,264.0,338.0,264.0,346.0,264.0,354.0,264.0,362.0,264.0,370.0,264.0,378.0,264.0,386.0,264.0,394.0,264.0,402.0,264.0,410.0,264.0,418.0,264.0,426.0,264.0,434.0,264.0,442.0,264.0,450.0,264.0,458.0,264.0,466.0,264.0,474.0,264.0,482.0,264.0,490.0,264.0,498.0,264.0,506.0,264.0" stroke="black" stroke-width="1" fill="none" />
<polyline points="511.0,256.0,511.0,248.0,511.0,240.0,511.0,232.0,511.0,224.0,511.0,216.0,511.0,208.0,511.0,200.0,511.0,192.0,511.0,184.0,511.0,176.0,511.0,168.0,511.0,160.0,511.0,152.0,511.0,144.0,511.0,136.0,511.0,128.0,511.0,120.0,511.0,112.0,511.0,104.0,511.0,96.0,511.0,88.0,511.0,80.0,511.0,72.0,511.0,64.0,511.0,51.0,511.0,43.0,511.0,35.0,511.0,27.0,511.0,19.0,511.0,11.0,511.0,3.0,504.0,1.0,496.0,1.0,488.0,1.0,480.0,1.0,472.0,1.0,464.0,1.0,456.0,1.0,448.0,1.0,440.0,1.0,432.0,1.0,424.0,1.0,416.0,1.0,408.0,1.0,400.0,1.0,392.0,1.0,384.0,1.0,376.0,1.0,368.0,1.0,360.0,1.0,352.0,1.0,344.0,1.0,336.0,1.0,328.0,1.0,320.0,1.0,312.0,1.0,304.0,1.0,296.0,1.0,288.0,1.0,280.0,1.0,272.0,1.0,264.0,1.0,256.0,1.0,248.0,1.0,240.0,1.0,232.0,1.0,224.0,1.0,216.0,1.0,208.0,1.0,200.0,1.0,192.0,1.0,184.0,1.0,176.0,1.0,168.0,1.0,160.0,1.0,152.0,1.0,144.0,1.0,136.0,1.0,128.0,1.0,120.0,1.0,112.0,1.0,104.0,1.0,96.0,1.0,88.0,1.0,80.0,1.0,72.0,1.0,64.0,1.0,56.0,1.0,48.0,1.0,40.0,1.0,32.0,1.0,24.0,1.0,16.0,1.0,8.0,1.0,0.0,1.0" stroke="black" stroke-width="1" fill="none" />
<polyline points="22.0,42.0,30.0,44.0,38.0,47.0,46.0,48.0,54.0,49.0,60.0,53.0,67.0,53.0,76.0,54.0" stroke="black" stroke-width="1" fill="none" />
<polyline points="80.0,47.0,88.0,52.0,98.0,52.0" stroke="black" stroke-width="1" fill="none" />
<polyline points="110.0,43.0,114.0,51.0,123.0,60.0,110.0,64.0,108.0,70.0,110.0,74.0,119.0,76.0,115.0,83.0,116.0,91.0,117.0,98.0,121.0,106.0,117.0,101.0,131.0,95.0,137.0,104.0,145.0,102.0,148.0,94.0,153.0,89.0,155.0,91.0,163.0,89.0,167.0,100.0" stroke="black" stroke-width="1" fill="none" />
<polyline points="173.0,92.0,170.0,89.0,166.0,94.0,165.0,86.0,154.0,84.0" stroke="black" stroke-width="1" fill="none" />
<polyline points="151.0,93.0,153.0,101.0,154.0,101.0" stroke="black" stroke-width="1" fill="none" />
<polyline points="147.0,91.0,149.0,95.0,146.0,101.0,139.0,107.0,134.0,115.0,127.0,123.0,124.0,133.0,119.0,139.0,120.0,151.0,129.0,162.0,129.0,170.0,129.0,178.0,132.0,186.0,137.0,192.0,143.0,202.0,139.0,210.0,140.0,216.0,137.0,221.0,139.0,227.0,136.0,235.0,136.0,243.0,137.0,251.0,144.0,246.0,145.0,249.0,156.0,251.0" stroke="black" stroke-width="1" fill="none" />
<polyline points="144.0,249.0,149.0,241.0,155.0,240.0,148.0,236.0,152.0,228.0,160.0,222.0,152.0,227.0" stroke="black" stroke-width="1" fill="none" />
<polyline points="158.0,217.0,166.0,215.0,167.0,217.0,171.0,210.0,178.0,200.0,184.0,194.0" stroke="black" stroke-width="1" fill="none" />
<polyline points="188.0,185.0,193.0,175.0,190.0,183.0,188.0,191.0,179.0,199.0,174.0,207.0,171.0,212.0,168.0,220.0" stroke="black" stroke-width="1" fill="none" />
<polyline points="157.0,235.0,147.0,243.0,145.0,239.0,143.0,237.0,142.0,234.0" stroke="black" stroke-width="1" fill="none" />
<polyline points="149.0,193.0,144.0,191.0,136.0,184.0" stroke="black" stroke-width="1" fill="none" />
<polyline points="129.0,162.0,131.0,151.0,139.0,149.0" stroke="black" stroke-width="1" fill="none" />
<polyline points="141.0,133.0,133.0,133.0" stroke="black" stroke-width="1" fill="none" />
<polyline points="134.0,126.0,137.0,134.0,139.0,141.0,139.0,149.0,144.0,152.0,145.0,154.0,149.0,151.0,157.0,151.0,165.0,153.0,170.0,158.0,177.0,161.0,179.0,165.0,184.0,169.0,191.0,165.0,195.0,171.0" stroke="black" stroke-width="1" fill="none" />
<polyline points="178.0,170.0,172.0,166.0,169.0,170.0,168.0,164.0,170.0,162.0,163.0,165.0" stroke="black" stroke-width="1" fill="none" />
<polyline points="145.0,136.0,137.0,129.0,124.0,132.0,118.0,129.0,116.0,136.0,116.0,142.0" stroke="black" stroke-width="1" fill="none" />
<polyline points="116.0,145.0,108.0,145.0,101.0,148.0,93.0,141.0,99.0,135.0,106.0,133.0,107.0,130.0,104.0,122.0" stroke="black" stroke-width="1" fill="none" />
<polyline points="104.0,122.0,112.0,124.0,120.0,123.0,124.0,124.0,132.0,119.0,134.0,109.0,150.0,106.0" stroke="black" stroke-width="1" fill="none" />
<polyline points="134.0,80.0,126.0,79.0,118.0,77.0" stroke="black" stroke-width="1" fill="none" />
<polyline points="129.0,88.0,134.0,78.0,130.0,70.0,123.0,66.0,109.0,67.0,108.0,65.0" stroke="black" stroke-width="1" fill="none" />
<polyline points="124.0,57.0,132.0,60.0,133.0,55.0,142.0,50.0" stroke="black" stroke-width="1" fill="none" />
<polyline points="143.0,47.0,145.0,55.0,146.0,59.0,150.0,63.0,146.0,72.0" stroke="black" stroke-width="1" fill="none" />
<polyline points="181.0,57.0,189.0,57.0,197.0,54.0,198.0,52.0,206.0,52.0,205.0,37.0,211.0,40.0,218.0,31.0" stroke="black" stroke-width="1" fill="none" />
<polyline points="209.0,28.0,217.0,22.0,215.0,25.0,213.0,33.0,209.0,34.0,204.0,38.0,206.0,43.0,196.0,52.0,187.0,60.0,180.0,68.0,173.0,66.0,177.0,68.0,184.0,65.0,189.0,59.0" stroke="black" stroke-width="1" fill="none" />
<polyline points="178.0,19.0,170.0,19.0" stroke="black" stroke-width="1" fill="none" />
<polyline points="165.0,37.0,161.0,29.0,153.0,32.0,146.0,32.0,149.0,18.0,141.0,22.0,136.0,27.0,128.0,32.0,121.0,31.0,119.0,23.0,126.0,19.0,127.0,21.0" stroke="black" stroke-width="1" fill="none" />
<polyline points="132.0,9.0,124.0,6.0" stroke="black" stroke-width="1" fill="none" />
<polyline points="124.0,37.0,116.0,37.0" stroke="black" stroke-width="1" fill="none" />
<polyline points="84.0,36.0,76.0,33.0" stroke="black" stroke-width="1" fill="none" />
<polyline points="71.0,31.0,79.0,26.0,87.0,21.0,95.0,18.0,97.0,22.0,109.0,16.0,117.0,13.0,118.0,7.0,121.0,12.0,127.0,19.0,133.0,15.0,138.0,9.0,146.0,8.0,153.0,10.0,158.0,11.0,163.0,12.0,171.0,12.0,172.0,8.0,180.0,9.0,188.0,8.0,196.0,8.0,204.0,6.0,212.0,10.0,219.0,14.0,227.0,14.0" stroke="black" stroke-width="1" fill="none" />
<polyline points="259.0,19.0,253.0,26.0,251.0,28.0,254.0,21.0,262.0,20.0,265.0,29.0" stroke="black" stroke-width="1" fill="none" />
<polyline points="263.0,16.0,271.0,17.0,279.0,17.0" stroke="black" stroke-width="1" fill="none" />
<polyline points="277.0,32.0,279.0,31.0,271.0,35.0,269.0,26.0,267.0,23.0,263.0,14.0" stroke="black" stroke-width="1" fill="none" />
<polyline points="269.0,45.0,277.0,45.0,285.0,43.0,293.0,50.0,293.0,55.0,288.0,63.0,293.0,55.0,302.0,53.0,310.0,49.0,315.0,46.0,326.0,36.0,332.0,37.0,339.0,40.0,342.0,40.0,350.0,35.0,356.0,35.0" stroke="black" stroke-width="1" fill="none" />
<polyline points="367.0,14.0,368.0,22.0,376.0,28.0,368.0,31.0,356.0,37.0,346.0,40.0,333.0,46.0,342.0,51.0,339.0,59.0,342.0,63.0,350.0,54.0,350.0,42.0,358.0,38.0,366.0,33.0,374.0,30.0,379.0,24.0,385.0,22.0,392.0,27.0,397.0,30.0,406.0,35.0,414.0,38.0,415.0,38.0,423.0,36.0" stroke="black" stroke-width="1" fill="none" />
<polyline points="424.0,45.0,432.0,40.0,440.0,36.0,453.0,40.0" stroke="black" stroke-width="1" fill="none" />
<polyline points="450.0,34.0,442.0,31.0,434.0,32.0" stroke="black" stroke-width="1" fill="none" />
<polyline points="432.0,29.0,432.0,29.0,432.0,37.0,429.0,47.0,433.0,45.0,437.0,50.0,441.0,50.0,451.0,43.0,459.0,46.0,467.0,43.0,472.0,48.0,475.0,43.0,481.0,43.0,484.0,47.0,493.0,42.0,498.0,53.0,502.0,53.0,510.0,57.0" stroke="black" stroke-width="1" fill="none" />
<polyline points="487.0,62.0,490.0,64.0,487.0,65.0" stroke="black" stroke-width="1" fill="none" />
<polyline points="504.0,60.0,495.0,59.0,490.0,59.0,486.0,67.0,478.0,71.0,470.0,71.0" stroke="black" stroke-width="1" fill="none" />
<polyline points="463.0,71.0,457.0,79.0,454.0,87.0,458.0,91.0,458.0,78.0" stroke="black" stroke-width="1" fill="none" />
<polyline points="462.0,82.0,474.0,83.0,465.0,91.0" stroke="black" stroke-width="1" fill="none" />
<polyline points="466.0,92.0,464.0,86.0,462.0,84.0,468.0,77.0,470.0,68.0,462.0,67.0,454.0,74.0,446.0,73.0,438.0,73.0" stroke="black" stroke-width="1" fill="none" />
<polyline points="431.0,81.0,438.0,73.0,431.0,81.0,431.0,83.0,438.0,90.0,434.0,98.0,423.0,105.0,420.0,110.0,417.0,114.0,415.0,122.0,407.0,119.0,408.0,130.0,400.0,135.0,387.0,143.0,375.0,148.0,375.0,154.0,374.0,160.0,375.0,157.0" stroke="black" stroke-width="1" fill="none" />
<polyline points="375.0,171.0,382.0,172.0,384.0,180.0" stroke="black" stroke-width="1" fill="none" />
<polyline points="390.0,161.0,403.0,154.0" stroke="black" stroke-width="1" fill="none" />
<polyline points="391.0,161.0,399.0,158.0,413.0,164.0" stroke="black" stroke-width="1" fill="none" />
<polyline points="414.0,178.0,422.0,177.0,422.0,184.0,415.0,193.0" stroke="black" stroke-width="1" fill="none" />
<polyline points="420.0,185.0,428.0,180.0,438.0,184.0,430.0,187.0,431.0,195.0,437.0,188.0,447.0,190.0,455.0,201.0" stroke="black" stroke-width="1" fill="none" />
<polyline points="469.0,194.0,477.0,192.0,476.0,194.0,482.0,197.0" stroke="black" stroke-width="1" fill="none" />
<polyline points="487.0,222.0,483.0,230.0,474.0,230.0,476.0,220.0,484.0,216.0,490.0,216.0,495.0,219.0" stroke="black" stroke-width="1" fill="none" />
<polyline points="475.0,224.0,474.0,232.0,468.0,233.0,471.0,230.0" stroke="black" stroke-width="1" fill="none" />
<polyline points="450.0,228.0,454.0,223.0,451.0,217.0,453.0,211.0,454.0,203.0,446.0,195.0,442.0,191.0,433.0,183.0,425.0,188.0" stroke="black" stroke-width="1" fill="none" />
<polyline points="436.0,178.0,444.0,177.0,453.0,180.0" stroke="black" stroke-width="1" fill="none" />
<polyline points="461.0,181.0,458.0,173.0" stroke="black" stroke-width="1" fill="none" />
<polyline points="452.0,215.0,450.0,209.0,445.0,217.0,442.0,223.0,434.0,216.0,431.0,216.0,419.0,209.0,411.0,216.0,403.0,217.0,401.0,217.0,397.0,212.0,403.0,205.0,408.0,193.0,413.0,185.0,408.0,184.0" stroke="black" stroke-width="1" fill="none" />
<polyline points="402.0,195.0,397.0,201.0,396.0,202.0,400.0,194.0" stroke="black" stroke-width="1" fill="none" />
<polyline points="415.0,213.0,423.0,213.0,431.0,211.0,435.0,221.0,442.0,229.0,446.0,236.0,448.0,235.0" stroke="black" stroke-width="1" fill="none" />
<polyline points="426.0,223.0,428.0,215.0" stroke="black" stroke-width="1" fill="none" />
<polyline points="407.0,139.0,415.0,139.0,421.0,136.0" stroke="black" stroke-width="1" fill="none" />
<polyline points="417.0,122.0,414.0,130.0,415.0,135.0,407.0,137.0,407.0,144.0,406.0,152.0,403.0,154.0,395.0,160.0,391.0,165.0,395.0,173.0,402.0,170.0,414.0,170.0,419.0,160.0,423.0,167.0,431.0,166.0,435.0,168.0,442.0,170.0,451.0,172.0,459.0,172.0,467.0,179.0" stroke="black" stroke-width="1" fill="none" />
<polyline points="424.0,121.0,432.0,117.0,443.0,109.0" stroke="black" stroke-width="1" fill="none" />
<polyline points="434.0,110.0,426.0,107.0" stroke="black" stroke-width="1" fill="none" />
<polyline points="414.0,101.0,422.0,106.0,427.0,103.0,435.0,96.0,444.0,84.0" stroke="black" stroke-width="1" fill="none" />
<polyline points="438.0,99.0,431.0,107.0,430.0,110.0,434.0,116.0,437.0,119.0" stroke="black" stroke-width="1" fill="none" />
<polyline points="430.0,114.0,420.0,117.0,416.0,126.0,412.0,119.0,404.0,125.0,405.0,117.0,404.0,115.0,403.0,107.0,414.0,103.0,406.0,109.0,404.0,118.0" stroke="black" stroke-width="1" fill="none" />
<polyline points="403.0,132.0,395.0,137.0,387.0,143.0" stroke="black" stroke-width="1" fill="none" />
<polyline points="389.0,143.0,392.0,151.0,385.0,160.0,388.0,171.0,398.0,175.0,406.0,174.0" stroke="black" stroke-width="1" fill="none" />
<polyline points="390.0,153.0,385.0,145.0,375.0,153.0,372.0,148.0,373.0,147.0,369.0,139.0,369.0,133.0" stroke="black" stroke-width="1" fill="none" />
<polyline points="356.0,152.0,359.0,145.0,359.0,141.0,367.0,132.0,367.0,133.0,359.0,141.0,353.0,149.0,353.0,162.0,355.0,165.0,361.0,159.0" stroke="black" stroke-width="1" fill="none" />
<polyline points="346.0,158.0,345.0,150.0,339.0,148.0" stroke="black" stroke-width="1" fill="none" />
<polyline points="344.0,133.0,336.0,132.0,333.0,131.0,325.0,130.0,320.0,122.0,314.0,126.0,303.0,133.0,296.0,134.0" stroke="black" stroke-width="1" fill="none" />
<polyline points="310.0,123.0,310.0,131.0,312.0,145.0,303.0,149.0,307.0,147.0,315.0,144.0,322.0,139.0,331.0,136.0" stroke="black" stroke-width="1" fill="none" />
<polyline points="307.0,115.0,308.0,110.0,322.0,105.0" stroke="black" stroke-width="1" fill="none" />
<polyline points="303.0,85.0,302.0,80.0" stroke="black" stroke-width="1" fill="none" />
<polyline points="295.0,69.0,291.0,74.0,283.0,76.0,293.0,72.0,292.0,65.0,296.0,56.0,304.0,49.0,309.0,44.0,316.0,38.0,318.0,37.0,310.0,39.0" stroke="black" stroke-width="1" fill="none" />
<polyline points="316.0,35.0,324.0,32.0,332.0,29.0" stroke="black" stroke-width="1" fill="none" />
<polyline points="308.0,54.0,313.0,55.0,307.0,63.0,300.0,64.0" stroke="black" stroke-width="1" fill="none" />
<polyline points="277.0,50.0,283.0,51.0,280.0,52.0,270.0,60.0,266.0,64.0,267.0,71.0,263.0,79.0" stroke="black" stroke-width="1" fill="none" />
<polyline points="271.0,70.0,262.0,62.0" stroke="black" stroke-width="1" fill="none" />
<polyline points="261.0,53.0,263.0,50.0,271.0,42.0,267.0,45.0,259.0,53.0,254.0,63.0,245.0,70.0,248.0,73.0,244.0,74.0,253.0,82.0,250.0,89.0,244.0,95.0,253.0,102.0,261.0,106.0,259.0,110.0,253.0,120.0,258.0,111.0,260.0,117.0,267.0,121.0,275.0,119.0,283.0,119.0,290.0,110.0" stroke="black" stroke-width="1" fill="none" />
<polyline points="280.0,100.0,282.0,100.0,283.0,108.0,283.0,119.0,289.0,129.0,291.0,132.0,288.0,140.0,293.0,142.0,298.0,146.0,302.0,151.0,311.0,157.0,304.0,165.0,297.0,173.0,298.0,181.0,289.0,183.0,289.0,183.0" stroke="black" stroke-width="1" fill="none" />
<polyline points="286.0,176.0,280.0,174.0,286.0,165.0,290.0,165.0,294.0,169.0,303.0,166.0,311.0,157.0" stroke="black" stroke-width="1" fill="none" />
<polyline points="294.0,166.0,286.0,165.0" stroke="black" stroke-width="1" fill="none" />
<polyline points="303.0,177.0,304.0,185.0,295.0,189.0,291.0,197.0,288.0,204.0,277.0,212.0,279.0,215.0,282.0,209.0,290.0,202.0" stroke="black" stroke-width="1" fill="none" />
<polyline points="303.0,177.0,311.0,180.0" stroke="black" stroke-width="1" fill="none" />
<polyline points="280.0,215.0,272.0,216.0,273.0,219.0,264.0,214.0,264.0,209.0,261.0,201.0,258.0,193.0,252.0,188.0,259.0,183.0,259.0,177.0,254.0,172.0,259.0,165.0,256.0,171.0" stroke="black" stroke-width="1" fill="none" />
<polyline points="227.0,163.0,222.0,155.0,219.0,153.0,218.0,147.0,216.0,139.0,220.0,131.0,223.0,123.0,225.0,120.0,234.0,110.0,242.0,108.0,238.0,95.0,239.0,87.0,237.0,83.0,241.0,78.0,239.0,81.0" stroke="black" stroke-width="1" fill="none" />
<polyline points="239.0,90.0,247.0,86.0,255.0,83.0" stroke="black" stroke-width="1" fill="none" />
<polyline points="259.0,99.0,265.0,107.0,268.0,118.0,266.0,125.0,273.0,127.0" stroke="black" stroke-width="1" fill="none" />
<polyline points="278.0,100.0,286.0,94.0,291.0,96.0,286.0,110.0,284.0,105.0,292.0,104.0,299.0,102.0,314.0,109.0,322.0,110.0,324.0,99.0" stroke="black" stroke-width="1" fill="none" />
<polyline points="295.0,96.0,287.0,95.0" stroke="black" stroke-width="1" fill="none" />
<polyline points="291.0,115.0,283.0,115.0,276.0,106.0,267.0,103.0,259.0,99.0" stroke="black" stroke-width="1" fill="none" />
<polyline points="239.0,107.0,231.0,108.0" stroke="black" stroke-width="1" fill="none" />
<polyline points="229.0,104.0,227.0,112.0,228.0,117.0,238.0,113.0,246.0,106.0,251.0,111.0" stroke="black" stroke-width="1" fill="none" />
<polyline points="237.0,101.0,229.0,101.0" stroke="black" stroke-width="1" fill="none" />
<polyline points="225.0,125.0,217.0,134.0" stroke="black" stroke-width="1" fill="none" />
<polyline points="220.0,150.0,228.0,158.0,236.0,158.0,244.0,158.0,252.0,161.0" stroke="black" stroke-width="1" fill="none" />
<polyline points="292.0,76.0,282.0,69.0,274.0,69.0,264.0,74.0,258.0,73.0,252.0,73.0,260.0,68.0,262.0,60.0,253.0,57.0,252.0,64.0" stroke="black" stroke-width="1" fill="none" />
<polyline points="367.0,14.0,375.0,14.0" stroke="black" stroke-width="1" fill="none" />
<polyline points="389.0,40.0,397.0,36.0,410.0,40.0" stroke="black" stroke-width="1" fill="none" />
<polyline points="125.0,94.0,117.0,90.0,114.0,91.0,106.0,84.0,101.0,72.0,93.0,75.0,95.0,72.0,87.0,69.0,79.0,65.0" stroke="black" stroke-width="1" fill="none" />
<polyline points="71.0,45.0,79.0,46.0,96.0,43.0,95.0,51.0,102.0,56.0,111.0,50.0,123.0,46.0,129.0,49.0,134.0,49.0,138.0,42.0,146.0,44.0,147.0,47.0,156.0,50.0,160.0,46.0,166.0,54.0,165.0,62.0,166.0,68.0" stroke="black" stroke-width="1" fill="none" />
<polyline points="84.0,72.0,81.0,68.0,75.0,61.0,75.0,55.0,66.0,45.0,66.0,43.0,66.0,37.0,74.0,29.0,79.0,21.0,83.0,24.0" stroke="black" stroke-width="1" fill="none" />
<polyline points="69.0,88.0,70.0,94.0" stroke="black" stroke-width="1" fill="none" />
<polyline points="62.0,87.0,64.0,95.0,69.0,102.0,70.0,111.0,72.0,119.0,79.0,123.0,79.0,131.0,83.0,136.0" stroke="black" stroke-width="1" fill="none" />
<polyline points="91.0,130.0,88.0,127.0,82.0,116.0,74.0,115.0" stroke="black" stroke-width="1" fill="none" />
<polyline points="22.0,72.0,14.0,71.0" stroke="black" stroke-width="1" fill="none" />
<polyline points="13.0,54.0,21.0,53.0" stroke="black" stroke-width="1" fill="none" />
<polyline points="7.0,52.0,7.0,49.0,9.0,57.0,7.0,63.0,7.0,71.0,10.0,80.0,7.0,85.0,12.0,79.0,20.0,78.0,28.0,68.0,36.0,72.0,44.0,68.0,50.0,73.0,52.0,75.0,59.0,80.0" stroke="black" stroke-width="1" fill="none" />
<polyline points="8.0,58.0,128.0,58.0" stroke="black" stroke-width="1" fill="none" />
<polyline points="128.0,56.0,120.0,64.0" stroke="black" stroke-width="1" fill="none" />
<polyline points="128.0,66.0,152.0,66.0" stroke="black" stroke-width="1" fill="none" />
<polyline points="152.0,72.0,96.0,128.0" stroke="black" stroke-width="1" fill="none" />
<polyline points="96.0,134.0,104.0,134.0" stroke="black" stroke-width="1" fill="none" />
<polyline points="96.0,136.0,152.0,80.0" stroke="black" stroke-width="1" fill="none" />
<polyline points="160.0,80.0,120.0,120.0" stroke="black" stroke-width="1" fill="none" />
<polyline points="128.0,120.0,136.0,112.0" stroke="black" stroke-width="1" fill="none" />
<polyline points="136.0,102.0,144.0,102.0" stroke="black" stroke-width="1" fill="none" />
<polyline points="144.0,104.0,152.0,96.0" stroke="black" stroke-width="1" fill="none" />
<polyline points="152.0,94.0,136.0,94.0" stroke="black" stroke-width="1" fill="none" />
<polyline points="136.0,86.0,152.0,86.0" stroke="black" stroke-width="1" fill="none" />
<polyline points="144.0,72.0,136.0,80.0" stroke="black" stroke-width="1" fill="none" />
<polyline points="136.0,78.0,144.0,78.0" stroke="black" stroke-width="1" fill="none" />
<polyline points="136.0,74.0,160.0,74.0" stroke="black" stroke-width="1" fill="none" />
<polyline points="168.0,64.0,216.0,16.0" stroke="black" stroke-width="1" fill="none" />
<polyline points="208.0,16.0,168.0,56.0" stroke="black" stroke-width="1" fill="none" />
<polyline points="168.0,58.0,192.0,58.0" stroke="black" stroke-width="1" fill="none" />
<polyline points="192.0,56.0,216.0,32.0" stroke="black" stroke-width="1" fill="none" />
<polyline points="216.0,24.0,176.0,64.0" stroke="black" stroke-width="1" fill="none" />
<polyline points="176.0,62.0,184.0,62.0" stroke="black" stroke-width="1" fill="none" />
<polyline points="184.0,64.0,176.0,72.0" stroke="black" stroke-width="1" fill="none" />
<polyline points="176.0,66.0,184.0,66.0" stroke="black" stroke-width="1" fill="none" />
<polyline points="176.0,54.0,200.0,54.0" stroke="black" stroke-width="1" fill="none" />
<polyline points="208.0,50.0,168.0,50.0" stroke="black" stroke-width="1" fill="none" />
<polyline points="168.0,48.0,208.0,8.0" stroke="black" stroke-width="1" fill="none" />
<polyline points="200.0,8.0,168.0,40.0" stroke="black" stroke-width="1" fill="none" />
<polyline points="168.0,38.0,208.0,38.0" stroke="black" stroke-width="1" fill="none" />
<polyline points="184.0,16.0,160.0,40.0" stroke="black" stroke-width="1" fill="none" />
<polyline points="160.0,34.0,216.0,34.0" stroke="black" stroke-width="1" fill="none" />
<polyline points="256.0,26.0,272.0,26.0" stroke="black" stroke-width="1" fill="none" />
<polyline points="272.0,24.0,264.0,32.0" stroke="black" stroke-width="1" fill="none" />
<polyline points="264.0,18.0,280.0,18.0" stroke="black" stroke-width="1" fill="none" />
<polyline points="280.0,48.0,256.0,72.0" stroke="black" stroke-width="1" fill="none" />
<polyline points="256.0,70.0,264.0,70.0" stroke="black" stroke-width="1" fill="none" />
<polyline points="264.0,72.0,256.0,80.0" stroke="black" stroke-width="1" fill="none" />
<polyline points="256.0,88.0,232.0,112.0" stroke="black" stroke-width="1" fill="none" />
<polyline points="232.0,110.0,240.0,110.0" stroke="black" stroke-width="1" fill="none" />
<polyline points="240.0,112.0,232.0,120.0" stroke="black" stroke-width="1" fill="none" />
<polyline points="232.0,114.0,264.0,114.0" stroke="black" stroke-width="1" fill="none" />
<polyline points="264.0,120.0,224.0,160.0" stroke="black" stroke-width="1" fill="none" />
<polyline points="224.0,154.0,312.0,154.0" stroke="black" stroke-width="1" fill="none" />
<polyline points="312.0,152.0,264.0,200.0" stroke="black" stroke-width="1" fill="none" />
<polyline points="264.0,198.0,288.0,198.0" stroke="black" stroke-width="1" fill="none" />
<polyline points="288.0,200.0,272.0,216.0" stroke="black" stroke-width="1" fill="none" />
<polyline points="272.0,214.0,280.0,214.0" stroke="black" stroke-width="1" fill="none" />
<polyline points="272.0,208.0,296.0,184.0" stroke="black" stroke-width="1" fill="none" />
<polyline points="296.0,176.0,264.0,208.0" stroke="black" stroke-width="1" fill="none" />
<polyline points="264.0,206.0,288.0,206.0" stroke="black" stroke-width="1" fill="none" />
<polyline points="304.0,200.0,312.0,192.0" stroke="black" stroke-width="1" fill="none" />
<polyline points="312.0,194.0,304.0,194.0" stroke="black" stroke-width="1" fill="none" />
<polyline points="296.0,174.0,288.0,174.0" stroke="black" stroke-width="1" fill="none" />
<polyline points="296.0,194.0,264.0,194.0" stroke="black" stroke-width="1" fill="none" />
<polyline points="264.0,192.0,304.0,152.0" stroke="black" stroke-width="1" fill="none" />
<polyline points="304.0,142.0,320.0,142.0" stroke="black" stroke-width="1" fill="none" />
<polyline points="320.0,136.0,312.0,144.0" stroke="black" stroke-width="1" fill="none" />
<polyline points="304.0,136.0,400.0,40.0" stroke="black" stroke-width="1" fill="none" />
<polyline points="400.0,32.0,256.0,176.0" stroke="black" stroke-width="1" fill="none" />
<polyline points="256.0,178.0,296.0,178.0" stroke="black" stroke-width="1" fill="none" />
<polyline points="264.0,176.0,296.0,144.0" stroke="black" stroke-width="1" fill="none" />
<polyline points="304.0,134.0,312.0,134.0" stroke="black" stroke-width="1" fill="none" />
<polyline points="320.0,126.0,408.0,126.0" stroke="black" stroke-width="1" fill="none" />
<polyline points="408.0,128.0,400.0,136.0" stroke="black" stroke-width="1" fill="none" />
<polyline points="392.0,144.0,384.0,152.0" stroke="black" stroke-width="1" fill="none" />
<polyline points="384.0,144.0,408.0,120.0" stroke="black" stroke-width="1" fill="none" />
<polyline points="416.0,114.0,440.0,114.0" stroke="black" stroke-width="1" fill="none" />
<polyline points="440.0,106.0,432.0,106.0" stroke="black" stroke-width="1" fill="none" />
<polyline points="416.0,112.0,440.0,88.0" stroke="black" stroke-width="1" fill="none" />
<polyline points="432.0,88.0,376.0,144.0" stroke="black" stroke-width="1" fill="none" />
<polyline points="376.0,142.0,384.0,142.0" stroke="black" stroke-width="1" fill="none" />
<polyline points="376.0,146.0,392.0,146.0" stroke="black" stroke-width="1" fill="none" />
<polyline points="392.0,162.0,408.0,162.0" stroke="black" stroke-width="1" fill="none" />
<polyline points="408.0,160.0,400.0,168.0" stroke="black" stroke-width="1" fill="none" />
<polyline points="384.0,170.0,416.0,170.0" stroke="black" stroke-width="1" fill="none" />
<polyline points="424.0,170.0,448.0,170.0" stroke="black" stroke-width="1" fill="none" />
<polyline points="448.0,178.0,440.0,178.0" stroke="black" stroke-width="1" fill="none" />
<polyline points="432.0,184.0,400.0,216.0" stroke="black" stroke-width="1" fill="none" />
<polyline points="400.0,210.0,456.0,210.0" stroke="black" stroke-width="1" fill="none" />
<polyline points="456.0,208.0,440.0,224.0" stroke="black" stroke-width="1" fill="none" />
<polyline points="440.0,216.0,456.0,200.0" stroke="black" stroke-width="1" fill="none" />
<polyline points="448.0,200.0,432.0,216.0" stroke="black" stroke-width="1" fill="none" />
<polyline points="432.0,214.0,448.0,214.0" stroke="black" stroke-width="1" fill="none" />
<polyline points="448.0,218.0,432.0,218.0" stroke="black" stroke-width="1" fill="none" />
<polyline points="432.0,208.0,448.0,192.0" stroke="black" stroke-width="1" fill="none" />
<polyline points="440.0,192.0,424.0,208.0" stroke="black" stroke-width="1" fill="none" />
<polyline points="416.0,198.0,448.0,198.0" stroke="black" stroke-width="1" fill="none" />
<polyline points="432.0,192.0,408.0,216.0" stroke="black" stroke-width="1" fill="none" />
<polyline points="408.0,214.0,416.0,214.0" stroke="black" stroke-width="1" fill="none" />
<polyline points="408.0,206.0,448.0,206.0" stroke="black" stroke-width="1" fill="none" />
<polyline points="416.0,192.0,400.0,208.0" stroke="black" stroke-width="1" fill="none" />
<polyline points="400.0,202.0,456.0,202.0" stroke="black" stroke-width="1" fill="none" />
<polyline points="480.0,226.0,488.0,226.0" stroke="black" stroke-width="1" fill="none" />
<polyline points="448.0,186.0,416.0,186.0" stroke="black" stroke-width="1" fill="none" />
<polyline points="400.0,194.0,448.0,194.0" stroke="black" stroke-width="1" fill="none" />
<polyline points="416.0,146.0,408.0,146.0" stroke="black" stroke-width="1" fill="none" />
<polyline points="384.0,162.0,376.0,162.0" stroke="black" stroke-width="1" fill="none" />
<polyline points="376.0,154.0,384.0,154.0" stroke="black" stroke-width="1" fill="none" />
<polyline points="376.0,136.0,432.0,80.0" stroke="black" stroke-width="1" fill="none" />
<polyline points="448.0,72.0,472.0,48.0" stroke="black" stroke-width="1" fill="none" />
<polyline points="464.0,48.0,440.0,72.0" stroke="black" stroke-width="1" fill="none" />
<polyline points="456.0,72.0,480.0,48.0" stroke="black" stroke-width="1" fill="none" />
<polyline points="488.0,48.0,464.0,72.0" stroke="black" stroke-width="1" fill="none" />
<polyline points="472.0,72.0,488.0,56.0" stroke="black" stroke-width="1" fill="none" />
<polyline points="496.0,56.0,488.0,64.0" stroke="black" stroke-width="1" fill="none" />
<polyline points="472.0,82.0,456.0,82.0" stroke="black" stroke-width="1" fill="none" />
<polyline points="456.0,74.0,472.0,74.0" stroke="black" stroke-width="1" fill="none" />
<polyline points="456.0,48.0,368.0,136.0" stroke="black" stroke-width="1" fill="none" />
<polyline points="368.0,138.0,400.0,138.0" stroke="black" stroke-width="1" fill="none" />
<polyline points="400.0,134.0,376.0,134.0" stroke="black" stroke-width="1" fill="none" />
<polyline points="360.0,146.0,344.0,146.0" stroke="black" stroke-width="1" fill="none" />
<polyline points="344.0,144.0,448.0,40.0" stroke="black" stroke-width="1" fill="none" />
<polyline points="448.0,48.0,344.0,152.0" stroke="black" stroke-width="1" fill="none" />
<polyline points="344.0,142.0,352.0,142.0" stroke="black" stroke-width="1" fill="none" />
<polyline points="344.0,138.0,360.0,138.0" stroke="black" stroke-width="1" fill="none" />
<polyline points="344.0,136.0,432.0,48.0" stroke="black" stroke-width="1" fill="none" />
<polyline points="432.0,42.0,448.0,42.0" stroke="black" stroke-width="1" fill="none" />
<polyline points="448.0,34.0,432.0,34.0" stroke="black" stroke-width="1" fill="none" />
<polyline points="424.0,40.0,336.0,128.0" stroke="black" stroke-width="1" fill="none" />
<polyline points="336.0,136.0,424.0,48.0" stroke="black" stroke-width="1" fill="none" />
<polyline points="416.0,40.0,328.0,128.0" stroke="black" stroke-width="1" fill="none" />
<polyline points="344.0,134.0,368.0,134.0" stroke="black" stroke-width="1" fill="none" />
<polyline points="328.0,110.0,408.0,110.0" stroke="black" stroke-width="1" fill="none" />
<polyline points="408.0,40.0,264.0,184.0" stroke="black" stroke-width="1" fill="none" />
<polyline points="264.0,182.0,296.0,182.0" stroke="black" stroke-width="1" fill="none" />
<polyline points="288.0,210.0,264.0,210.0" stroke="black" stroke-width="1" fill="none" />
<polyline points="264.0,202.0,288.0,202.0" stroke="black" stroke-width="1" fill="none" />
<polyline points="288.0,190.0,264.0,190.0" stroke="black" stroke-width="1" fill="none" />
<polyline points="256.0,186.0,312.0,186.0" stroke="black" stroke-width="1" fill="none" />
<polyline points="280.0,174.0,264.0,174.0" stroke="black" stroke-width="1" fill="none" />
<polyline points="256.0,170.0,296.0,170.0" stroke="black" stroke-width="1" fill="none" />
<polyline points="256.0,168.0,392.0,32.0" stroke="black" stroke-width="1" fill="none" />
<polyline points="384.0,32.0,256.0,160.0" stroke="black" stroke-width="1" fill="none" />
<polyline points="256.0,162.0,304.0,162.0" stroke="black" stroke-width="1" fill="none" />
<polyline points="304.0,126.0,296.0,126.0" stroke="black" stroke-width="1" fill="none" />
<polyline points="296.0,118.0,408.0,118.0" stroke="black" stroke-width="1" fill="none" />
<polyline points="400.0,46.0,360.0,46.0" stroke="black" stroke-width="1" fill="none" />
<polyline points="360.0,40.0,296.0,104.0" stroke="black" stroke-width="1" fill="none" />
<polyline points="288.0,104.0,280.0,112.0" stroke="black" stroke-width="1" fill="none" />
<polyline points="280.0,114.0,408.0,114.0" stroke="black" stroke-width="1" fill="none" />
<polyline points="392.0,38.0,384.0,38.0" stroke="black" stroke-width="1" fill="none" />
<polyline points="376.0,32.0,288.0,120.0" stroke="black" stroke-width="1" fill="none" />
<polyline points="280.0,120.0,240.0,160.0" stroke="black" stroke-width="1" fill="none" />
<polyline points="248.0,160.0,280.0,128.0" stroke="black" stroke-width="1" fill="none" />
<polyline points="272.0,120.0,232.0,160.0" stroke="black" stroke-width="1" fill="none" />
<polyline points="232.0,158.0,240.0,158.0" stroke="black" stroke-width="1" fill="none" />
<polyline points="248.0,158.0,304.0,158.0" stroke="black" stroke-width="1" fill="none" />
<polyline points="304.0,166.0,256.0,166.0" stroke="black" stroke-width="1" fill="none" />
<polyline points="224.0,152.0,256.0,120.0" stroke="black" stroke-width="1" fill="none" />
<polyline points="256.0,112.0,224.0,144.0" stroke="black" stroke-width="1" fill="none" />
<polyline points="224.0,142.0,288.0,142.0" stroke="black" stroke-width="1" fill="none" />
<polyline points="272.0,112.0,280.0,104.0" stroke="black" stroke-width="1" fill="none" />
<polyline points="272.0,104.0,320.0,56.0" stroke="black" stroke-width="1" fill="none" />
<polyline points="312.0,56.0,264.0,104.0" stroke="black" stroke-width="1" fill="none" />
<polyline points="256.0,104.0,304.0,56.0" stroke="black" stroke-width="1" fill="none" />
<polyline points="296.0,56.0,248.0,104.0" stroke="black" stroke-width="1" fill="none" />
<polyline points="248.0,112.0,224.0,136.0" stroke="black" stroke-width="1" fill="none" />
<polyline points="224.0,134.0,288.0,134.0" stroke="black" stroke-width="1" fill="none" />
<polyline points="312.0,110.0,320.0,110.0" stroke="black" stroke-width="1" fill="none" />
<polyline points="328.0,102.0,424.0,102.0" stroke="black" stroke-width="1" fill="none" />
<polyline points="392.0,26.0,376.0,26.0" stroke="black" stroke-width="1" fill="none" />
<polyline points="368.0,18.0,384.0,18.0" stroke="black" stroke-width="1" fill="none" />
<polyline points="400.0,34.0,360.0,34.0" stroke="black" stroke-width="1" fill="none" />
<polyline points="344.0,48.0,296.0,96.0" stroke="black" stroke-width="1" fill="none" />
<polyline points="288.0,96.0,328.0,56.0" stroke="black" stroke-width="1" fill="none" />
<polyline points="336.0,42.0,424.0,42.0" stroke="black" stroke-width="1" fill="none" />
<polyline points="488.0,62.0,344.0,62.0" stroke="black" stroke-width="1" fill="none" />
<polyline points="344.0,54.0,464.0,54.0" stroke="black" stroke-width="1" fill="none" />
<polyline points="328.0,34.0,320.0,34.0" stroke="black" stroke-width="1" fill="none" />
<polyline points="320.0,42.0,312.0,42.0" stroke="black" stroke-width="1" fill="none" />
<polyline points="312.0,50.0,496.0,50.0" stroke="black" stroke-width="1" fill="none" />
<polyline points="336.0,62.0,312.0,62.0" stroke="black" stroke-width="1" fill="none" />
<polyline points="296.0,70.0,456.0,70.0" stroke="black" stroke-width="1" fill="none" />
<polyline points="312.0,102.0,304.0,102.0" stroke="black" stroke-width="1" fill="none" />
<polyline points="296.0,78.0,432.0,78.0" stroke="black" stroke-width="1" fill="none" />
<polyline points="288.0,56.0,272.0,72.0" stroke="black" stroke-width="1" fill="none" />
<polyline points="272.0,64.0,288.0,48.0" stroke="black" stroke-width="1" fill="none" />
<polyline points="288.0,62.0,280.0,62.0" stroke="black" stroke-width="1" fill="none" />
<polyline points="280.0,70.0,288.0,70.0" stroke="black" stroke-width="1" fill="none" />
<polyline points="280.0,54.0,272.0,54.0" stroke="black" stroke-width="1" fill="none" />
<polyline points="272.0,62.0,264.0,62.0" stroke="black" stroke-width="1" fill="none" />
<polyline points="256.0,58.0,504.0,58.0" stroke="black" stroke-width="1" fill="none" />
<polyline points="280.0,102.0,272.0,102.0" stroke="black" stroke-width="1" fill="none" />
<polyline points="272.0,86.0,432.0,86.0" stroke="black" stroke-width="1" fill="none" />
<polyline points="296.0,50.0,264.0,50.0" stroke="black" stroke-width="1" fill="none" />
<polyline points="248.0,66.0,488.0,66.0" stroke="black" stroke-width="1" fill="none" />
<polyline points="424.0,106.0,256.0,106.0" stroke="black" stroke-width="1" fill="none" />
<polyline points="248.0,94.0,440.0,94.0" stroke="black" stroke-width="1" fill="none" />
<polyline points="440.0,82.0,248.0,82.0" stroke="black" stroke-width="1" fill="none" />
<polyline points="248.0,74.0,440.0,74.0" stroke="black" stroke-width="1" fill="none" />
<polyline points="440.0,98.0,240.0,98.0" stroke="black" stroke-width="1" fill="none" />
<polyline points="240.0,90.0,440.0,90.0" stroke="black" stroke-width="1" fill="none" />
<polyline points="264.0,126.0,232.0,126.0" stroke="black" stroke-width="1" fill="none" />
<polyline points="224.0,122.0,416.0,122.0" stroke="black" stroke-width="1" fill="none" />
<polyline points="248.0,106.0,232.0,106.0" stroke="black" stroke-width="1" fill="none" />
<polyline points="224.0,130.0,408.0,130.0" stroke="black" stroke-width="1" fill="none" />
<polyline points="296.0,150.0,224.0,150.0" stroke="black" stroke-width="1" fill="none" />
<polyline points="216.0,146.0,312.0,146.0" stroke="black" stroke-width="1" fill="none" />
<polyline points="320.0,138.0,216.0,138.0" stroke="black" stroke-width="1" fill="none" />
<polyline points="184.0,168.0,144.0,208.0" stroke="black" stroke-width="1" fill="none" />
<polyline points="144.0,210.0,176.0,210.0" stroke="black" stroke-width="1" fill="none" />
<polyline points="184.0,192.0,144.0,232.0" stroke="black" stroke-width="1" fill="none" />
<polyline points="144.0,230.0,152.0,230.0" stroke="black" stroke-width="1" fill="none" />
<polyline points="152.0,232.0,144.0,240.0" stroke="black" stroke-width="1" fill="none" />
<polyline points="136.0,242.0,152.0,242.0" stroke="black" stroke-width="1" fill="none" />
<polyline points="152.0,250.0,144.0,250.0" stroke="black" stroke-width="1" fill="none" />
<polyline points="136.0,234.0,152.0,234.0" stroke="black" stroke-width="1" fill="none" />
<polyline points="144.0,224.0,192.0,176.0" stroke="black" stroke-width="1" fill="none" />
<polyline points="184.0,176.0,144.0,216.0" stroke="black" stroke-width="1" fill="none" />
<polyline points="144.0,214.0,168.0,214.0" stroke="black" stroke-width="1" fill="none" />
<polyline points="176.0,206.0,152.0,206.0" stroke="black" stroke-width="1" fill="none" />
<polyline points="152.0,198.0,176.0,198.0" stroke="black" stroke-width="1" fill="none" />
<polyline points="176.0,168.0,144.0,200.0" stroke="black" stroke-width="1" fill="none" />
<polyline points="144.0,202.0,176.0,202.0" stroke="black" stroke-width="1" fill="none" />
<polyline points="160.0,222.0,144.0,222.0" stroke="black" stroke-width="1" fill="none" />
<polyline points="144.0,218.0,168.0,218.0" stroke="black" stroke-width="1" fill="none" />
<polyline points="184.0,194.0,144.0,194.0" stroke="black" stroke-width="1" fill="none" />
<polyline points="144.0,192.0,168.0,168.0" stroke="black" stroke-width="1" fill="none" />
<polyline points="168.0,160.0,144.0,184.0" stroke="black" stroke-width="1" fill="none" />
<polyline points="144.0,190.0,184.0,190.0" stroke="black" stroke-width="1" fill="none" />
<polyline points="160.0,160.0,136.0,184.0" stroke="black" stroke-width="1" fill="none" />
<polyline points="136.0,182.0,192.0,182.0" stroke="black" stroke-width="1" fill="none" />
<polyline points="160.0,152.0,136.0,176.0" stroke="black" stroke-width="1" fill="none" />
<polyline points="136.0,174.0,176.0,174.0" stroke="black" stroke-width="1" fill="none" />
<polyline points="152.0,152.0,136.0,168.0" stroke="black" stroke-width="1" fill="none" />
<polyline points="136.0,166.0,168.0,166.0" stroke="black" stroke-width="1" fill="none" />
<polyline points="144.0,152.0,136.0,160.0" stroke="black" stroke-width="1" fill="none" />
<polyline points="136.0,162.0,176.0,162.0" stroke="black" stroke-width="1" fill="none" />
<polyline points="192.0,186.0,136.0,186.0" stroke="black" stroke-width="1" fill="none" />
<polyline points="136.0,178.0,192.0,178.0" stroke="black" stroke-width="1" fill="none" />
<polyline points="160.0,226.0,136.0,226.0" stroke="black" stroke-width="1" fill="none" />
<polyline points="128.0,170.0,192.0,170.0" stroke="black" stroke-width="1" fill="none" />
<polyline points="160.0,154.0,128.0,154.0" stroke="black" stroke-width="1" fill="none" />
<polyline points="128.0,146.0,112.0,146.0" stroke="black" stroke-width="1" fill="none" />
<polyline points="120.0,138.0,96.0,138.0" stroke="black" stroke-width="1" fill="none" />
<polyline points="88.0,130.0,112.0,130.0" stroke="black" stroke-width="1" fill="none" />
<polyline points="88.0,128.0,128.0,88.0" stroke="black" stroke-width="1" fill="none" />
<polyline points="128.0,80.0,88.0,120.0" stroke="black" stroke-width="1" fill="none" />
<polyline points="88.0,126.0,104.0,126.0" stroke="black" stroke-width="1" fill="none" />
<polyline points="80.0,122.0,128.0,122.0" stroke="black" stroke-width="1" fill="none" />
<polyline points="120.0,86.0,112.0,86.0" stroke="black" stroke-width="1" fill="none" />
<polyline points="112.0,80.0,80.0,112.0" stroke="black" stroke-width="1" fill="none" />
<polyline points="80.0,118.0,128.0,118.0" stroke="black" stroke-width="1" fill="none" />
<polyline points="120.0,80.0,80.0,120.0" stroke="black" stroke-width="1" fill="none" />
<polyline points="72.0,114.0,136.0,114.0" stroke="black" stroke-width="1" fill="none" />
<polyline points="112.0,72.0,72.0,112.0" stroke="black" stroke-width="1" fill="none" />
<polyline points="72.0,110.0,136.0,110.0" stroke="black" stroke-width="1" fill="none" />
<polyline points="144.0,64.0,152.0,56.0" stroke="black" stroke-width="1" fill="none" />
<polyline points="152.0,62.0,144.0,62.0" stroke="black" stroke-width="1" fill="none" />
<polyline points="136.0,58.0,152.0,58.0" stroke="black" stroke-width="1" fill="none" />
<polyline points="144.0,48.0,136.0,56.0" stroke="black" stroke-width="1" fill="none" />
<polyline points="128.0,48.0,72.0,104.0" stroke="black" stroke-width="1" fill="none" />
<polyline points="72.0,102.0,112.0,102.0" stroke="black" stroke-width="1" fill="none" />
<polyline points="112.0,70.0,88.0,70.0" stroke="black" stroke-width="1" fill="none" />
<polyline points="80.0,62.0,120.0,62.0" stroke="black" stroke-width="1" fill="none" />
<polyline points="112.0,56.0,72.0,96.0" stroke="black" stroke-width="1" fill="none" />
<polyline points="72.0,94.0,112.0,94.0" stroke="black" stroke-width="1" fill="none" />
<polyline points="104.0,56.0,72.0,88.0" stroke="black" stroke-width="1" fill="none" />
<polyline points="64.0,88.0,96.0,56.0" stroke="black" stroke-width="1" fill="none" />
<polyline points="96.0,48.0,64.0,80.0" stroke="black" stroke-width="1" fill="none" />
<polyline points="64.0,86.0,104.0,86.0" stroke="black" stroke-width="1" fill="none" />
<polyline points="72.0,98.0,160.0,98.0" stroke="black" stroke-width="1" fill="none" />
<polyline points="168.0,46.0,208.0,46.0" stroke="black" stroke-width="1" fill="none" />
<polyline points="208.0,10.0,176.0,10.0" stroke="black" stroke-width="1" fill="none" />
<polyline points="176.0,16.0,160.0,32.0" stroke="black" stroke-width="1" fill="none" />
<polyline points="152.0,32.0,168.0,16.0" stroke="black" stroke-width="1" fill="none" />
<polyline points="160.0,16.0,144.0,32.0" stroke="black" stroke-width="1" fill="none" />
<polyline points="144.0,24.0,152.0,16.0" stroke="black" stroke-width="1" fill="none" />
<polyline points="152.0,22.0,216.0,22.0" stroke="black" stroke-width="1" fill="none" />
<polyline points="216.0,42.0,168.0,42.0" stroke="black" stroke-width="1" fill="none" />
<polyline points="152.0,30.0,208.0,30.0" stroke="black" stroke-width="1" fill="none" />
<polyline points="144.0,16.0,120.0,40.0" stroke="black" stroke-width="1" fill="none" />
<polyline points="128.0,40.0,120.0,48.0" stroke="black" stroke-width="1" fill="none" />
<polyline points="120.0,32.0,136.0,16.0" stroke="black" stroke-width="1" fill="none" />
<polyline points="128.0,16.0,120.0,24.0" stroke="black" stroke-width="1" fill="none" />
<polyline points="120.0,16.0,112.0,24.0" stroke="black" stroke-width="1" fill="none" />
<polyline points="112.0,18.0,224.0,18.0" stroke="black" stroke-width="1" fill="none" />
<polyline points="144.0,22.0,128.0,22.0" stroke="black" stroke-width="1" fill="none" />
<polyline points="128.0,10.0,160.0,10.0" stroke="black" stroke-width="1" fill="none" />
<polyline points="216.0,26.0,96.0,26.0" stroke="black" stroke-width="1" fill="none" />
<polyline points="96.0,40.0,56.0,80.0" stroke="black" stroke-width="1" fill="none" />
<polyline points="56.0,78.0,112.0,78.0" stroke="black" stroke-width="1" fill="none" />
<polyline points="80.0,48.0,88.0,40.0" stroke="black" stroke-width="1" fill="none" />
<polyline points="80.0,40.0,48.0,72.0" stroke="black" stroke-width="1" fill="none" />
<polyline points="48.0,70.0,80.0,70.0" stroke="black" stroke-width="1" fill="none" />
<polyline points="72.0,56.0,56.0,72.0" stroke="black" stroke-width="1" fill="none" />
<polyline points="48.0,74.0,120.0,74.0" stroke="black" stroke-width="1" fill="none" />
<polyline points="144.0,106.0,72.0,106.0" stroke="black" stroke-width="1" fill="none" />
<polyline points="64.0,90.0,168.0,90.0" stroke="black" stroke-width="1" fill="none" />
<polyline points="88.0,26.0,80.0,26.0" stroke="black" stroke-width="1" fill="none" />
<polyline points="72.0,34.0,136.0,34.0" stroke="black" stroke-width="1" fill="none" />
<polyline points="144.0,42.0,72.0,42.0" stroke="black" stroke-width="1" fill="none" />
<polyline points="64.0,48.0,40.0,72.0" stroke="black" stroke-width="1" fill="none" />
<polyline points="48.0,56.0,24.0,80.0" stroke="black" stroke-width="1" fill="none" />
<polyline points="24.0,72.0,48.0,48.0" stroke="black" stroke-width="1" fill="none" />
<polyline points="40.0,48.0,16.0,72.0" stroke="black" stroke-width="1" fill="none" />
<polyline points="16.0,70.0,32.0,70.0" stroke="black" stroke-width="1" fill="none" />
<polyline points="32.0,54.0,24.0,54.0" stroke="black" stroke-width="1" fill="none" />
<polyline points="24.0,48.0,16.0,56.0" stroke="black" stroke-width="1" fill="none" />
<polyline points="16.0,50.0,152.0,50.0" stroke="black" stroke-width="1" fill="none" />
<polyline points="168.0,82.0,56.0,82.0" stroke="black" stroke-width="1" fill="none" />
<polyline points="32.0,74.0,16.0,74.0" stroke="black" stroke-width="1" fill="none" />
<polyline points="16.0,66.0,112.0,66.0" stroke="black" stroke-width="1" fill="none" />
<polyline points="32.0,48.0,16.0,64.0" stroke="black" stroke-width="1" fill="none" />
<polyline points="16.0,62.0,72.0,62.0" stroke="black" stroke-width="1" fill="none" />
</svg>