<svg xmlns="http://www.w3.org/2000/svg" height="571px" width="511px" version="1.1"><polyline points="138.0,9.0,131.0,13.0" stroke="black" stroke-width="1" fill="none" />
<polyline points="127.0,13.5,121.5,17.5" stroke="black" stroke-width="1" fill="none" />
<polyline points="97.5,19.0,92.5,15.0" stroke="black" stroke-width="1" fill="none" />
<polyline points="88.0,15.0,87.0,19.0,85.5,23.0,84.5,27.0,80.5,31.0,70.5,35.0,67.0,39.0,64.0,43.0,62.5,47.0,60.0,51.0,58.5,55.0,59.0,59.0,61.5,63.0,59.0,67.0,55.0,71.0,50.5,75.0,47.0,79.0" stroke="black" stroke-width="1" fill="none" />
<polyline points="39.5,81.0,35.0,85.0,33.0,89.0,31.0,93.0,26.5,97.0,24.0,101.0,23.0,105.0,19.5,109.0,16.0,113.0,15.5,117.0,14.0,121.0,12.0,125.0,7.5,129.0,6.5,133.0,7.0,137.0,10.5,141.0,12.0,145.0,12.5,149.0,12.5,153.0,14.5,157.0,13.5,161.0,12.5,165.0,11.5,169.0,11.5,173.0,10.5,177.0,7.0,181.0,2.5,187.0,7.0,191.0,10.0,195.0,8.5,199.0,9.5,203.0,11.5,207.0,18.0,211.0,20.5,215.0,25.0,219.0,27.5,223.0,30.0,227.0,33.0,231.0,35.0,235.0,38.0,239.0,41.5,243.0,46.5,247.0,53.0,251.0,58.5,255.0,65.0,259.0,72.0,263.0" stroke="black" stroke-width="1" fill="none" />
<polyline points="80.0,265.0,89.0,261.0,100.0,257.0" stroke="black" stroke-width="1" fill="none" />
<polyline points="164.5,251.5,169.0,255.5,170.0,259.5,173.0,263.5" stroke="black" stroke-width="1" fill="none" />
<polyline points="170.0,259.5,174.0,264.0,178.0,264.0,182.0,264.0,186.0,264.0,190.0,264.0,194.0,264.0,198.0,265.5,202.0,268.5" stroke="black" stroke-width="1" fill="none" />
<polyline points="196.5,264.5,201.5,268.5,203.5,272.5,204.0,276.5,202.5,280.5,201.5,284.5,201.5,288.5,201.5,292.5,200.0,296.5,199.5,300.5,199.0,304.5,198.5,308.5,199.5,312.5,203.5,316.5,208.0,320.5,214.5,324.5,216.0,328.5,220.5,332.5,222.0,336.5,221.5,340.5,222.5,344.5,225.0,348.5,228.0,352.5,229.5,356.5,230.5,360.5,226.0,364.5,229.5,368.5,230.5,372.5,233.5,376.5,234.5,380.5,233.5,384.5,229.5,388.5,226.0,392.5,224.0,396.5,224.0,400.5,224.0,404.5,223.0,408.5,221.0,412.5,219.5,416.5,218.5,420.5,218.5,424.5,218.5,428.5,218.5,432.5,222.0,436.5,225.5,440.5,228.0,444.5,230.0,448.5,231.0,452.5,232.5,456.5,234.0,460.5,238.0,464.5,238.5,468.5,238.0,472.5,237.5,476.5,239.0,480.5,240.5,484.5,241.5,488.5,241.5,492.5,241.5,496.5,242.5,500.5,244.0,504.5,246.0,508.5,247.5,512.5,251.0,516.5,254.0,520.5,255.0,524.5,257.0,528.5,259.0,532.5,261.0,536.5,263.5,540.5,266.0,544.5,266.5,548.5,264.0,552.5,264.5,556.5,267.0,560.5,270.5,564.5,274.0,568.5" stroke="black" stroke-width="1" fill="none" />
<polyline points="264.5,556.5,268.5,562.0,272.5,566.5,276.5,570.5,280.5,570.5,284.5,569.5,288.5,568.5,292.5,568.0,296.5,566.0,300.5,565.5,304.5,566.0,308.5,565.5,312.5,566.5,316.5,566.5,320.5,564.5,324.5,564.0,328.5,562.5,332.5,562.0,336.5,558.5,340.5,555.0,344.5,551.0,348.5,547.0,352.5,542.5,356.5,538.0" stroke="black" stroke-width="1" fill="none" />
<polyline points="360.0,528.5,364.0,523.0,368.0,520.0,372.0,518.0" stroke="black" stroke-width="1" fill="none" />
<polyline points="373.5,493.0,377.5,490.0,381.5,488.5,385.5,487.0,389.5,486.5,393.5,483.5" stroke="black" stroke-width="1" fill="none" />
<polyline points="393.5,456.5,389.5,452.5" stroke="black" stroke-width="1" fill="none" />
<polyline points="389.0,449.5,393.0,445.0,397.0,441.5,401.0,438.0,405.0,434.0,409.0,430.5,413.0,426.5,417.0,426.5,421.0,425.5,425.0,422.5,429.0,417.0" stroke="black" stroke-width="1" fill="none" />
<polyline points="413.0,426.5,409.0,430.5,404.5,434.5,400.0,438.5,395.5,442.5,391.5,446.5,389.0,450.5,391.0,454.5,394.0,458.5,394.0,462.5,394.0,466.5,394.5,470.5,395.0,474.5,395.0,478.5,395.0,482.5,389.0,486.5,376.5,490.5,373.5,494.5,377.0,498.5,376.5,502.5,375.0,506.5,374.0,510.5,373.5,514.5,371.5,518.5,364.5,522.5,361.0,526.5,360.0,530.5,359.0,534.5,356.5,538.5,352.5,542.5,349.0,546.5,345.0,550.5,341.0,554.5,336.5,558.5" stroke="black" stroke-width="1" fill="none" />
<polyline points="263.0,539.0,259.0,531.5,255.0,524.0" stroke="black" stroke-width="1" fill="none" />
<polyline points="254.0,518.5,250.0,515.0,246.0,508.0,242.0,498.0" stroke="black" stroke-width="1" fill="none" />
<polyline points="237.0,462.5,233.0,458.0" stroke="black" stroke-width="1" fill="none" />
<polyline points="231.0,450.5,227.0,442.0,223.0,436.5,219.0,433.5" stroke="black" stroke-width="1" fill="none" />
<polyline points="224.0,394.5,228.0,390.5,232.0,386.0" stroke="black" stroke-width="1" fill="none" />
<polyline points="234.5,377.0,230.5,370.5,226.5,365.0" stroke="black" stroke-width="1" fill="none" />
<polyline points="226.0,364.5,230.0,361.0" stroke="black" stroke-width="1" fill="none" />
<polyline points="230.0,356.5,226.0,349.0,222.0,343.0" stroke="black" stroke-width="1" fill="none" />
<polyline points="219.5,331.0,215.5,327.0,211.5,322.0,207.5,319.5,203.5,316.0,199.5,312.0" stroke="black" stroke-width="1" fill="none" />
<polyline points="166.0,252.0,162.0,251.0,158.0,251.0,154.0,249.5,150.0,251.0,146.0,252.0,142.0,252.0,138.0,255.0,134.0,255.5,130.0,257.0,126.0,260.0,122.0,260.5,118.0,261.0,114.0,260.5,110.0,257.0,106.0,257.0,102.0,257.0,98.0,258.0,94.0,259.0,90.0,260.5,86.0,262.0,82.0,264.0,78.0,265.5,74.0,264.0,70.0,261.5,66.0,259.5,62.0,257.0,58.0,254.0,54.0,251.5,50.0,248.5,46.0,246.0,42.0,243.0,38.0,238.5,34.0,232.5,30.0,226.5,26.0,220.0,22.0,216.0,18.0,210.5,14.0,207.5,10.0,203.5" stroke="black" stroke-width="1" fill="none" />
<polyline points="8.0,192.0,4.0,187.5,0.0,186.5" stroke="black" stroke-width="1" fill="none" />
<polyline points="0.0,184.0,4.0,182.5,8.0,180.5" stroke="black" stroke-width="1" fill="none" />
<polyline points="11.5,141.5,7.5,138.5" stroke="black" stroke-width="1" fill="none" />
<polyline points="7.0,129.5,11.0,126.0,15.0,118.5" stroke="black" stroke-width="1" fill="none" />
<polyline points="16.0,113.0,20.0,108.5,24.0,101.0,28.0,95.5,32.0,90.5,36.0,84.0,40.0,81.0,44.0,80.5,48.0,78.0,52.0,74.0,56.0,70.5,60.0,66.0" stroke="black" stroke-width="1" fill="none" />
<polyline points="58.5,55.0,62.5,46.5,66.5,40.0,70.5,35.0,74.5,33.5,78.5,32.0,82.5,29.5,86.5,20.5,90.5,14.5,94.5,16.0,98.5,19.0,102.5,19.5,106.5,19.0,110.5,19.0,114.5,19.0,118.5,20.0,122.5,16.0,126.5,14.0,130.5,13.5,134.5,11.0,138.5,9.0,142.5,8.0,146.5,8.0,150.5,7.5,154.5,6.5,158.5,4.5,162.5,3.5,166.5,4.0,170.5,5.5,174.5,5.5,178.5,3.0,182.5,4.0,186.5,2.5,190.5,3.5,194.5,2.5,198.5,1.5" stroke="black" stroke-width="1" fill="none" />
<polyline points="206.0,0.5,207.0,2.0,208.0,5.0,212.0,3.5,211.0,4.0" stroke="black" stroke-width="1" fill="none" />
<polyline points="209.5,11.5,213.5,8.0,214.5,6.5,210.0,10.5,210.0,14.5,214.0,18.5,212.5,22.5,208.5,26.5,207.5,30.5,210.5,34.5,215.5,38.5" stroke="black" stroke-width="1" fill="none" />
<polyline points="208.0,31.5,212.0,35.0,216.0,39.0,220.0,40.5,224.0,42.5,228.0,41.0,232.0,40.5,236.0,42.5,240.0,44.5,244.0,46.0,248.0,52.5,252.0,55.0,256.0,55.0,260.0,55.0,264.0,57.0,268.0,59.5,272.0,62.0,276.0,62.5,280.0,58.5" stroke="black" stroke-width="1" fill="none" />
<polyline points="279.0,47.5,283.0,43.5,287.0,41.5,291.0,40.5,295.0,41.0,299.0,41.5,303.0,44.0,307.0,45.5,311.0,47.5,315.0,49.0,319.0,52.0,323.0,51.0,327.0,51.0,331.0,53.0,335.0,53.5,339.0,54.5,343.0,56.5,347.0,57.5,351.0,54.5,355.0,53.0,359.0,51.0,363.0,51.0,367.0,52.5,371.0,55.5,375.0,55.5,379.0,55.5,383.0,55.5,384.5,58.0,385.0,62.0,385.5,66.0,386.0,70.0,386.5,74.0,386.5,78.0,387.0,82.0" stroke="black" stroke-width="1" fill="none" />
<polyline points="383.5,93.5,387.5,99.0,391.5,106.0,395.5,113.5" stroke="black" stroke-width="1" fill="none" />
<polyline points="394.5,121.5,398.5,124.5,402.5,127.5" stroke="black" stroke-width="1" fill="none" />
<polyline points="410.0,154.0,414.0,158.0,418.0,162.0" stroke="black" stroke-width="1" fill="none" />
<polyline points="421.5,175.0,425.5,180.0,429.5,185.0,433.5,186.5,437.5,188.5,441.5,193.5,445.5,196.0,449.5,201.0" stroke="black" stroke-width="1" fill="none" />
<polyline points="453.0,211.0,457.0,215.0,461.0,219.0,465.0,219.0,469.0,217.0,473.0,216.5,477.0,216.5,481.0,214.0,485.0,213.5,489.0,213.5,493.0,213.5,497.0,213.0,501.0,211.0,505.0,209.0,509.0,208.5,499.5,211.5" stroke="black" stroke-width="1" fill="none" />
<polyline points="509.0,209.0,509.5,213.0,509.5,217.0,510.5,221.0,507.5,225.0,507.0,229.0,505.0,233.0,501.5,237.0,500.0,241.0,496.0,245.0,495.0,249.0,494.5,253.0,491.0,257.0,488.0,261.0,485.5,265.0,482.0,269.0,478.0,273.0,473.5,277.0,470.5,281.0,464.0,285.0,458.5,289.0,454.5,293.0,450.5,297.0,446.5,301.0,443.5,305.0,440.5,309.0,436.5,313.0,431.0,317.0,429.0,321.0,426.0,325.0,424.0,329.0,422.5,333.0,421.0,337.0,419.0,341.0,422.5,345.0,425.0,349.0,424.0,353.0,423.5,357.0,424.5,361.0,426.5,365.0,427.0,369.0,431.0,373.0,431.5,377.0,431.5,381.0,432.0,385.0,433.0,389.0,432.5,393.0,432.0,397.0,432.0,401.0,433.5,405.0,432.5,409.0,431.0,413.0,428.5,417.0,426.5,421.0,421.5,425.0" stroke="black" stroke-width="1" fill="none" />
<polyline points="459.5,423.5,463.5,416.5,467.5,415.0,471.5,414.0,475.5,412.5,479.5,411.0,483.5,407.0" stroke="black" stroke-width="1" fill="none" />
<polyline points="486.0,398.5,490.0,395.0" stroke="black" stroke-width="1" fill="none" />
<polyline points="492.0,389.0,496.0,387.0,500.0,392.0" stroke="black" stroke-width="1" fill="none" />
<polyline points="496.5,387.5,499.5,391.5,502.0,395.5,502.5,399.5,502.5,403.5,504.5,407.5,504.0,411.5,503.0,415.5" stroke="black" stroke-width="1" fill="none" />
<polyline points="502.0,415.5,498.0,415.5" stroke="black" stroke-width="1" fill="none" />
<polyline points="499.0,414.0,498.5,418.0,497.5,422.0,497.0,426.0,496.5,430.0,494.0,434.0,493.0,438.0,492.5,442.0,492.0,446.0,491.5,450.0,489.5,454.0,488.5,458.0,487.5,462.0,486.5,466.0,486.0,470.0,485.5,474.0,484.5,478.0,482.5,482.0,480.5,486.0,476.0,490.0" stroke="black" stroke-width="1" fill="none" />
<polyline points="479.5,486.5,475.5,490.5,471.5,491.5,467.5,493.5,463.5,493.0,459.5,489.0,455.5,482.5" stroke="black" stroke-width="1" fill="none" />
<polyline points="452.5,460.0,456.5,456.0" stroke="black" stroke-width="1" fill="none" />
<polyline points="460.5,490.5,457.0,486.5,455.5,482.5,455.5,478.5,456.0,474.5,453.5,470.5,453.0,466.5,452.5,462.5,454.5,458.5,457.0,454.5,459.5,450.5,460.5,446.5,460.5,442.5,459.0,438.5,459.0,434.5,459.0,430.5,459.0,426.5,460.0,422.5,461.5,418.5,468.0,414.5" stroke="black" stroke-width="1" fill="none" />
<polyline points="479.5,411.0,483.5,407.0,485.0,403.0,486.0,399.0,489.5,395.0,492.0,391.0,494.5,387.0" stroke="black" stroke-width="1" fill="none" />
<polyline points="431.0,372.5,427.0,369.0" stroke="black" stroke-width="1" fill="none" />
<polyline points="423.5,345.0,419.5,341.5" stroke="black" stroke-width="1" fill="none" />
<polyline points="422.5,331.0,426.5,324.5,430.5,317.5,434.5,315.5,438.5,311.5,442.5,307.5,446.5,301.0,450.5,297.0,454.5,293.0,458.5,289.0,462.5,286.0,466.5,283.5,470.5,281.0,474.5,276.0,478.5,272.5,482.5,268.5,486.5,263.5,490.5,257.5,494.5,252.0" stroke="black" stroke-width="1" fill="none" />
<polyline points="495.0,247.0,499.0,242.0,503.0,235.0" stroke="black" stroke-width="1" fill="none" />
<polyline points="380.0,83.5,376.0,78.5,372.0,72.0" stroke="black" stroke-width="1" fill="none" />
<polyline points="373.0,67.0,375.5,71.0,377.0,75.0,379.5,79.0,382.0,83.0" stroke="black" stroke-width="1" fill="none" />
<polyline points="383.5,84.5,379.5,78.0,375.5,70.5,371.5,66.5" stroke="black" stroke-width="1" fill="none" />
<polyline points="371.5,66.5,371.5,70.5,372.5,74.5,375.5,78.5,378.0,82.5,381.5,86.5,383.0,90.5,384.0,94.5,386.5,98.5,389.5,102.5,391.5,106.5,393.5,110.5,395.5,114.5,394.0,118.5,395.5,122.5,399.0,126.5,404.0,130.5,405.0,134.5,408.5,138.5,407.0,142.5,407.5,146.5,409.0,150.5,410.0,154.5,414.0,158.5,418.0,162.5,420.0,166.5,420.5,170.5,421.0,174.5,423.0,178.5,427.5,182.5,432.0,186.5,438.5,190.5,442.0,194.5,447.5,198.5,450.5,202.5,453.0,206.5,452.5,210.5,456.5,214.5,459.5,218.5" stroke="black" stroke-width="1" fill="none" />
<polyline points="370.5,55.5,364.5,51.5" stroke="black" stroke-width="1" fill="none" />
<polyline points="358.5,51.0,350.0,55.0" stroke="black" stroke-width="1" fill="none" />
<polyline points="315.0,49.5,305.0,45.5,299.0,41.5" stroke="black" stroke-width="1" fill="none" />
<polyline points="287.5,41.0,280.5,45.0,279.0,49.0,280.5,53.0,281.0,57.0,277.5,61.0" stroke="black" stroke-width="1" fill="none" />
<polyline points="267.5,59.5,260.5,55.5" stroke="black" stroke-width="1" fill="none" />
<polyline points="248.0,53.0,245.5,49.0,241.0,45.0,233.0,41.0" stroke="black" stroke-width="1" fill="none" />
<polyline points="211.5,23.5,207.5,28.5" stroke="black" stroke-width="1" fill="none" />
</svg>