<svg xmlns="http://www.w3.org/2000/svg" height="570px" width="511px" version="1.1"><polyline points="207.0,0.0,207.5,4.0,210.0,4.5" stroke="black" stroke-width="1" fill="none" />
<polyline points="211.5,4.0,214.0,2.5" stroke="black" stroke-width="1" fill="none" />
<polyline points="209.5,12.0,213.5,7.5,213.0,7.5,210.0,11.5,211.5,15.5,214.5,19.5,211.5,23.5,208.0,27.5,207.5,31.5,214.0,35.5,217.5,39.5" stroke="black" stroke-width="1" fill="none" />
<polyline points="207.5,31.0,211.5,34.5,215.5,37.5,219.5,40.0,223.5,42.0,227.5,41.0,231.5,40.0,235.5,42.0,239.5,44.0,243.5,45.5,247.5,52.0,251.5,54.5,255.5,54.5,259.5,55.0,263.5,57.0,267.5,59.0,271.5,61.5,275.5,62.0,279.5,58.5" stroke="black" stroke-width="1" fill="none" />
<polyline points="279.5,46.5,283.5,43.5,287.5,41.0,291.5,40.0,295.5,40.0,299.5,41.5,303.5,44.5,307.5,45.5,311.5,47.5,315.5,49.5,319.5,52.0,323.5,50.5,327.5,51.5,331.5,52.5,335.5,53.5,339.5,55.0,343.5,57.0,347.5,57.0,351.5,54.5,355.5,52.5,359.5,51.5,363.0,51.5,367.0,52.5,371.0,55.0,375.0,55.0,379.0,55.0,383.0,55.5" stroke="black" stroke-width="1" fill="none" />
<polyline points="383.5,55.0,384.5,59.0,384.5,63.0,385.0,67.0,386.5,71.0,386.5,75.0,387.0,79.0,387.0,83.0" stroke="black" stroke-width="1" fill="none" />
<polyline points="382.5,92.0,386.5,97.5,390.5,104.5,394.5,111.5" stroke="black" stroke-width="1" fill="none" />
<polyline points="395.0,121.5,399.0,125.5,403.0,127.5" stroke="black" stroke-width="1" fill="none" />
<polyline points="405.0,134.0,409.0,137.0" stroke="black" stroke-width="1" fill="none" />
<polyline points="410.0,154.0,414.0,158.0,418.0,162.0" stroke="black" stroke-width="1" fill="none" />
<polyline points="422.0,176.0,426.0,180.0,430.0,185.0,434.0,187.0,438.0,189.5,442.0,194.0,446.0,196.5,450.0,201.5" stroke="black" stroke-width="1" fill="none" />
<polyline points="452.0,210.0,456.0,213.5,460.0,218.5,464.0,219.5,468.0,217.0,472.0,217.0,476.0,217.0,480.0,214.5,484.0,214.0,488.0,214.0,492.0,214.0,496.0,214.0,500.0,211.5,504.0,209.5,508.5,209.5,509.0,213.5,509.5,217.5,508.0,223.0,507.0,227.0,506.0,231.0,503.0,235.0,500.5,239.0,498.0,243.0,495.0,247.0,494.5,251.0,492.5,255.0,489.5,259.0,487.0,263.0,484.0,267.0,480.5,271.0,476.0,275.0,472.0,279.0,467.0,283.0,460.5,287.0,456.5,291.0,452.0,295.0,448.5,299.0,444.5,303.0,442.5,307.0,438.5,311.0,434.5,315.0,430.0,319.0,427.5,323.0,425.0,327.0,422.5,331.0,422.0,335.0,419.5,339.0,420.5,343.0,424.5,347.0,424.5,351.0,424.0,355.0,424.0,359.0,425.5,363.0,427.0,367.0,429.0,371.0,431.5,375.0,431.5,379.0,431.5,383.0,432.5,387.0,432.5,391.0,432.0,395.0,432.0,399.0,434.0,403.0,432.5,407.0,431.5,411.0,430.5,415.5,427.0,419.5,423.5,423.5" stroke="black" stroke-width="1" fill="none" />
<polyline points="429.5,416.5,425.5,421.5,421.5,425.0,417.5,426.5,413.5,426.5,409.5,430.0,405.5,434.0,401.5,437.5,397.5,441.0,393.5,444.5,389.5,449.0" stroke="black" stroke-width="1" fill="none" />
<polyline points="390.0,453.0,394.0,457.0" stroke="black" stroke-width="1" fill="none" />
<polyline points="390.5,486.0,386.5,486.5,382.5,488.5,378.5,489.5,374.5,492.0" stroke="black" stroke-width="1" fill="none" />
<polyline points="386.0,486.5,377.0,490.5,374.5,494.5,377.0,498.5,376.5,502.5,374.5,506.5,374.5,510.5,374.0,514.5,371.0,518.5,364.5,522.5,361.0,526.5,359.5,530.5,359.0,534.5,356.0,538.5,352.5,542.5,349.0,546.5,345.0,550.5,340.5,554.5,336.5,558.5,331.5,562.5" stroke="black" stroke-width="1" fill="none" />
<polyline points="359.5,529.0,363.5,523.5,367.5,520.5,371.5,518.0" stroke="black" stroke-width="1" fill="none" />
<polyline points="455.0,482.0,459.0,488.5,463.0,493.0,467.0,493.5,471.0,491.5,475.0,491.0,479.0,487.0,483.0,480.5" stroke="black" stroke-width="1" fill="none" />
<polyline points="456.0,456.5,452.0,461.0" stroke="black" stroke-width="1" fill="none" />
<polyline points="459.5,422.0,463.5,416.5,467.5,414.5,471.5,414.0,475.5,412.5,479.5,410.0,483.5,406.0" stroke="black" stroke-width="1" fill="none" />
<polyline points="486.5,398.5,490.5,394.0,494.5,387.0,498.5,389.5" stroke="black" stroke-width="1" fill="none" />
<polyline points="496.0,387.0,499.0,391.0,501.5,395.0,502.0,399.0,502.0,403.0,504.5,407.0,504.0,411.0,504.0,415.0,499.0,417.0,497.5,421.0,497.0,425.0,496.5,429.0,495.0,433.0,493.5,437.0,492.0,441.0,492.0,445.0,491.5,449.0,490.0,453.0,489.0,457.0,487.5,461.0,487.0,465.0,486.5,469.0,486.5,473.0,484.5,477.0,482.5,481.0,481.5,485.0,477.0,489.0" stroke="black" stroke-width="1" fill="none" />
<polyline points="492.0,439.5,496.0,431.5" stroke="black" stroke-width="1" fill="none" />
<polyline points="498.5,415.0,502.5,416.0" stroke="black" stroke-width="1" fill="none" />
<polyline points="479.0,410.5,483.0,406.5,485.0,402.5,486.5,398.5,490.0,394.5,492.0,390.5,495.5,386.5" stroke="black" stroke-width="1" fill="none" />
<polyline points="468.5,414.0,462.0,418.0,459.5,422.0,459.5,426.0,459.0,430.0,459.0,434.0,459.5,438.0,460.0,442.0,460.0,446.0,459.5,450.0,457.5,454.0,455.0,458.0,452.0,462.0,452.5,466.0,454.0,470.0,455.5,474.0,455.0,478.0,455.0,482.0,457.0,486.0,460.0,490.0" stroke="black" stroke-width="1" fill="none" />
<polyline points="394.5,482.5,394.5,478.5,394.5,474.5,394.5,470.5,394.5,466.5,394.5,462.5,394.0,458.5,391.0,454.5,389.5,450.5,391.5,446.5,395.5,442.5,400.5,438.5,404.5,434.5,409.0,430.5,413.0,426.5" stroke="black" stroke-width="1" fill="none" />
<polyline points="431.5,373.5,427.5,369.0" stroke="black" stroke-width="1" fill="none" />
<polyline points="424.0,345.5,420.0,341.5" stroke="black" stroke-width="1" fill="none" />
<polyline points="419.5,339.0,423.5,329.0,427.5,323.0,431.5,317.0,435.5,314.0,439.5,310.0,443.5,305.5,447.5,299.5,451.5,295.5,455.5,291.5,459.5,287.5,463.5,285.5,467.5,283.0,471.5,279.5,475.5,275.5,479.5,272.0,483.5,268.0,487.5,262.0,491.5,256.5" stroke="black" stroke-width="1" fill="none" />
<polyline points="494.5,247.5,498.5,242.5,502.5,235.5,506.5,229.5" stroke="black" stroke-width="1" fill="none" />
<polyline points="507.0,224.5,511.0,222.0" stroke="black" stroke-width="1" fill="none" />
<polyline points="503.0,209.5,496.5,213.5" stroke="black" stroke-width="1" fill="none" />
<polyline points="461.5,219.5,457.0,215.5,452.5,211.5,452.0,207.5,451.5,203.5,448.0,199.5,443.0,195.5,439.5,191.5,435.5,187.5" stroke="black" stroke-width="1" fill="none" />
<polyline points="380.5,85.0,376.5,79.5,372.5,74.0" stroke="black" stroke-width="1" fill="none" />
<polyline points="372.0,67.5,376.0,72.0,380.0,79.0,384.0,84.5" stroke="black" stroke-width="1" fill="none" />
<polyline points="382.5,83.5,380.0,79.5,377.0,75.5,375.5,71.5,373.5,67.5" stroke="black" stroke-width="1" fill="none" />
<polyline points="373.0,67.0,371.5,71.0,373.0,75.0,375.5,79.0,378.5,83.0,381.5,87.0,382.0,91.0,384.0,95.0,387.0,99.0,389.5,103.0,391.5,107.0,394.0,111.0,394.5,115.0,394.5,119.0,396.5,123.0,400.0,127.0,404.5,131.0,406.0,135.0,408.0,139.5,407.0,143.5,408.5,147.5,409.5,151.5,411.0,155.5,415.0,159.5,419.0,163.5,420.0,167.5,421.0,171.0,421.5,175.0,423.5,179.0,428.0,183.0" stroke="black" stroke-width="1" fill="none" />
<polyline points="357.5,51.5,349.5,55.5" stroke="black" stroke-width="1" fill="none" />
<polyline points="317.0,51.5,311.0,47.5" stroke="black" stroke-width="1" fill="none" />
<polyline points="289.0,40.0,282.0,44.0,279.5,48.0,280.0,52.0,281.5,56.0,278.5,60.0" stroke="black" stroke-width="1" fill="none" />
<polyline points="267.5,59.5,261.0,55.5" stroke="black" stroke-width="1" fill="none" />
<polyline points="247.5,52.5,245.0,48.5,239.5,44.5,232.0,40.5" stroke="black" stroke-width="1" fill="none" />
<polyline points="211.0,24.0,207.0,29.5" stroke="black" stroke-width="1" fill="none" />
<polyline points="214.0,17.5,210.0,13.5" stroke="black" stroke-width="1" fill="none" />
<polyline points="200.0,2.0,196.0,2.5,192.0,3.5,187.5,3.0,183.5,4.0,179.5,2.5,175.5,4.5,171.5,5.0,167.5,4.5,163.5,4.5,159.5,4.0,155.5,7.0,151.5,7.0,147.5,7.5,143.5,7.5,139.5,8.5,135.5,10.0,131.5,12.5,127.5,14.0,123.5,15.0,119.5,19.0,115.5,19.5,111.5,19.5,107.5,19.5,103.5,19.5,99.5,19.5,95.5,17.0,91.5,15.0,87.5,16.0" stroke="black" stroke-width="1" fill="none" />
<polyline points="88.5,15.0,87.0,19.0,85.5,23.0,84.5,27.0,80.5,31.0,70.5,35.0,67.0,39.0,64.5,43.0,62.5,47.0,60.0,51.0,59.5,55.0,59.5,59.0,62.0,63.0,59.0,67.0,55.0,71.0,50.5,75.0,47.0,79.0" stroke="black" stroke-width="1" fill="none" />
<polyline points="41.5,80.0,36.0,84.0,33.5,88.0,31.5,92.0,27.5,96.0,25.0,100.0,23.5,104.0,20.5,108.0,17.0,112.0,15.0,116.0,14.5,120.0,12.5,124.0,7.5,128.0,7.0,132.0,7.0,136.0,8.5,140.0,12.0,144.0,12.5,148.0,12.0,152.0,14.0,156.0,13.5,160.0,12.5,164.0,12.0,168.0,12.0,172.0,10.0,176.0,8.5,180.0,0.5,184.0,3.5,182.0,7.5,180.5" stroke="black" stroke-width="1" fill="none" />
<polyline points="3.5,187.5,7.5,191.5,9.5,195.5,9.5,199.5,10.0,203.5,14.5,207.5,18.0,211.5,21.5,215.5,25.5,219.5,27.5,223.5,30.5,227.5,33.0,231.5,35.0,235.5,38.5,239.5,42.5,243.5,47.5,247.5,53.0,251.5,59.5,255.5,66.0,259.5,72.5,263.5" stroke="black" stroke-width="1" fill="none" />
<polyline points="82.5,263.5,91.0,259.5" stroke="black" stroke-width="1" fill="none" />
<polyline points="165.5,252.0,169.5,256.0,170.0,260.0,173.0,264.0" stroke="black" stroke-width="1" fill="none" />
<polyline points="170.0,260.0,174.0,264.0,178.0,264.0,182.0,264.0,186.0,264.0,190.0,264.5,194.0,264.5,198.0,265.5,202.0,269.0" stroke="black" stroke-width="1" fill="none" />
<polyline points="195.0,264.0,201.0,268.0,203.0,272.0,204.5,276.0,202.5,280.0,202.0,284.0,202.0,288.0,202.0,292.0,200.5,296.0,199.5,300.0,199.5,304.0,199.5,308.0,199.5,312.0,202.5,316.0,207.5,320.0,214.0,324.0,216.0,328.0,220.0,332.0,222.0,336.0,222.0,340.0,222.0,344.0,224.5,348.0,227.5,352.0,229.5,356.0,230.0,360.0,227.0,364.0,229.0,368.0,230.5,372.0,233.0,376.0,234.5,380.0,233.5,384.0,229.5,388.0,226.5,392.0,224.5,396.0,224.5,400.0,224.5,404.0,223.5,408.0,221.5,412.0,219.5,416.0,219.0,420.0,219.0,424.0,219.0,428.0,219.0,432.0,221.5,436.0,225.0,440.0,227.5,444.0,229.5,448.0,231.5,452.0,232.0,456.0,234.0,460.0,237.5,464.0,239.0,468.0,238.0,472.0,237.0,476.0,239.0,480.0,240.0,484.0,242.0,488.0,242.0,492.0,242.0,496.0,242.0,500.0,244.0,504.0,245.5,508.0,247.5,512.0,250.5,516.0,254.0,520.0,254.5,524.0,257.0,528.0,259.0,532.0,260.5,536.0,263.0,540.0,265.5,544.0,267.0,548.0,264.5,552.0,264.5,556.0,266.5,560.0,270.0,564.0,273.5,568.0" stroke="black" stroke-width="1" fill="none" />
<polyline points="282.5,570.0,286.5,568.5,290.5,568.5,294.5,567.5,298.5,566.0,302.5,566.0,306.5,566.0,310.5,566.0,314.5,566.5,318.5,565.5,322.5,564.0,326.5,563.5,330.5,563.5,334.5,560.0,338.5,556.5,342.5,553.0,346.5,549.0,350.5,544.5,354.5,540.0,358.5,535.5" stroke="black" stroke-width="1" fill="none" />
<polyline points="273.0,567.0,269.0,562.0,265.0,557.5" stroke="black" stroke-width="1" fill="none" />
<polyline points="267.0,545.5,263.0,539.0,259.0,531.5,255.0,524.5" stroke="black" stroke-width="1" fill="none" />
<polyline points="254.5,520.5,250.5,515.5,246.5,509.0,242.5,500.5" stroke="black" stroke-width="1" fill="none" />
<polyline points="241.5,485.5,237.5,476.5" stroke="black" stroke-width="1" fill="none" />
<polyline points="236.5,462.0,232.5,457.5" stroke="black" stroke-width="1" fill="none" />
<polyline points="227.0,442.0,223.0,437.0,219.0,433.0" stroke="black" stroke-width="1" fill="none" />
<polyline points="219.5,415.5,223.5,408.0" stroke="black" stroke-width="1" fill="none" />
<polyline points="224.5,394.5,228.5,389.5,232.5,385.0" stroke="black" stroke-width="1" fill="none" />
<polyline points="234.0,376.5,230.0,371.0" stroke="black" stroke-width="1" fill="none" />
<polyline points="230.5,357.0,226.5,349.5,222.5,344.0" stroke="black" stroke-width="1" fill="none" />
<polyline points="220.0,331.5,216.0,327.0,212.0,322.0,208.0,320.0,204.0,317.0,200.0,312.5" stroke="black" stroke-width="1" fill="none" />
<polyline points="166.0,252.0,162.0,251.5,158.0,251.5,154.0,249.5,150.0,251.0,146.0,252.0,142.0,252.5,138.0,254.5,134.0,256.0,130.0,257.0,126.0,259.5,122.0,260.0,118.0,261.5,114.0,260.0,110.0,257.5,106.0,257.0,102.0,257.0,98.0,257.5,94.0,259.0,90.0,260.0,86.0,262.0,82.0,264.0,78.0,264.5,74.0,264.0,70.0,261.5,66.0,259.5,62.0,257.0,58.0,254.0,54.0,251.5,50.0,248.5,46.0,246.0,42.0,242.5,38.0,238.5,34.0,232.0,30.0,226.0,26.0,220.0,22.0,215.5,18.0,211.0,14.0,207.0,10.0,203.5" stroke="black" stroke-width="1" fill="none" />
<polyline points="8.0,192.0,4.0,187.5,0.0,187.0" stroke="black" stroke-width="1" fill="none" />
<polyline points="11.5,142.0,7.5,137.5" stroke="black" stroke-width="1" fill="none" />
<polyline points="7.5,128.0,11.5,125.5" stroke="black" stroke-width="1" fill="none" />
<polyline points="15.0,115.0,19.0,109.5,23.0,104.5" stroke="black" stroke-width="1" fill="none" />
<polyline points="25.0,99.0,29.0,94.5,33.0,89.0,37.0,83.0,41.0,80.5,45.0,80.0,49.0,76.5,53.0,72.5,57.0,69.0,61.0,64.5" stroke="black" stroke-width="1" fill="none" />
<polyline points="59.5,52.5,63.5,44.5,67.5,38.0,71.5,34.5,75.5,32.5,79.5,31.5,83.5,28.5" stroke="black" stroke-width="1" fill="none" />
<polyline points="90.5,14.5,97.0,18.5" stroke="black" stroke-width="1" fill="none" />
<polyline points="121.5,17.5,128.5,13.5,137.0,9.5" stroke="black" stroke-width="1" fill="none" />
</svg>