<svg xmlns="http://www.w3.org/2000/svg" height="397px" width="406px" version="1.1"><polyline points="255.0,115.5,253.0,119.5,251.0,123.5,248.5,127.5,246.0,131.5,244.0,135.5,242.0,139.5,239.5,143.5,237.5,147.5,235.0,151.5,233.0,155.5,230.5,159.5,228.5,163.5,226.0,167.5" stroke="black" stroke-width="1" fill="none" />
<polyline points="221.5,170.0,214.0,166.0,207.5,162.0,200.5,158.0,194.0,154.0" stroke="black" stroke-width="1" fill="none" />
<polyline points="193.5,153.5,193.0,157.5,194.0,161.5,194.5,165.5,195.5,169.5,195.5,173.5,196.5,177.5,197.0,181.5,198.0,185.5,198.5,189.5,199.0,193.5,200.0,197.5,200.5,201.5,201.5,205.5,202.0,209.5,203.0,213.5,203.5,217.5,204.0,221.5,205.0,225.5,205.5,229.5,206.5,233.5" stroke="black" stroke-width="1" fill="none" />
<polyline points="206.0,234.0,202.0,230.5,198.0,226.5,194.0,222.5,190.0,219.0,186.0,215.0,182.0,211.5,178.0,207.5,174.0,204.0,170.0,200.0,166.0,196.0,162.0,193.5" stroke="black" stroke-width="1" fill="none" />
<polyline points="163.5,193.0,162.0,197.0,162.5,201.0,162.5,205.0,163.0,209.0,163.5,213.0,163.5,217.0,163.5,221.0" stroke="black" stroke-width="1" fill="none" />
<polyline points="161.5,223.0,157.5,222.5,153.5,222.5,149.5,222.0,145.5,221.5,141.5,221.5,137.5,221.0,133.5,220.0,129.5,220.0,125.5,220.0,121.5,219.0,117.5,219.0,113.5,218.5,109.5,218.0,105.5,218.0" stroke="black" stroke-width="1" fill="none" />
<polyline points="106.0,217.5,107.0,221.5,109.0,225.5,110.5,229.5,112.5,233.5,114.5,237.5,116.0,241.5,118.0,245.5,120.0,249.5,121.5,253.5,123.5,257.5,125.5,261.5,127.0,265.5,129.0,269.5,131.0,273.5,127.0,277.5,120.0,281.5,112.5,285.5,105.5,289.5,107.5,293.5,115.5,297.5,125.0,301.5,133.5,305.5,142.0,309.5,150.5,313.5,159.5,317.5,168.5,321.5,177.0,325.5,185.5,329.5,194.5,333.5,198.0,337.5,196.0,341.5,193.5,345.5,191.0,349.5,189.0,353.5,186.5,357.5,184.0,361.5,181.5,365.5,179.5,369.5,179.0,370.0,183.0,363.0,187.0,356.0,191.0,349.5,195.0,343.0" stroke="black" stroke-width="1" fill="none" />
<polyline points="179.0,372.5,183.0,371.0,187.0,370.0,191.0,369.0,195.0,368.0,199.0,367.0,203.0,366.0,207.0,365.0,211.0,364.0,215.0,363.0,219.0,362.0,223.0,361.0,227.0,360.0,231.0,359.0,235.0,358.0,239.0,357.0,243.0,356.5,247.0,357.5,251.0,359.5" stroke="black" stroke-width="1" fill="none" />
<polyline points="245.5,357.0,251.0,361.0,251.0,365.0,251.0,369.0,251.0,373.0,251.0,377.0,251.0,381.0,251.0,385.0,251.0,389.0,251.0,393.0,251.5,396.0,255.5,396.5,259.5,396.5" stroke="black" stroke-width="1" fill="none" />
<polyline points="260.5,359.5,264.5,357.5,268.5,356.5,272.5,357.0,276.5,358.0,280.5,359.0,284.5,360.0,288.5,361.0,292.5,362.0,296.5,363.0,300.5,364.0,304.5,365.0,308.5,366.0,312.5,367.0,316.5,368.0,320.5,369.0,324.5,370.0,328.5,371.0,332.5,372.5" stroke="black" stroke-width="1" fill="none" />
<polyline points="333.0,370.5,329.0,364.0,325.0,357.5,321.0,350.5,317.0,343.5,313.0,337.0" stroke="black" stroke-width="1" fill="none" />
<polyline points="312.5,335.5,316.5,333.5,320.5,332.0,324.5,330.0,328.5,328.0,332.5,326.0,336.5,324.5,340.5,322.5,344.5,321.0,348.5,319.0,352.5,317.0,356.5,315.0,360.5,313.5,364.5,311.5,368.5,309.5,372.5,307.5,376.5,306.0,380.5,304.0,384.5,302.5,388.5,300.5,392.5,298.5,396.5,296.5,400.5,295.0,404.5,293.0" stroke="black" stroke-width="1" fill="none" />
<polyline points="404.5,289.0,400.5,286.5,396.5,284.5,392.5,282.0,388.5,280.0,384.5,277.5,380.5,275.0" stroke="black" stroke-width="1" fill="none" />
<polyline points="380.0,273.5,384.0,265.0,388.0,256.5,392.0,248.5,396.0,239.5,400.0,230.5,404.0,222.0" stroke="black" stroke-width="1" fill="none" />
<polyline points="404.0,217.5,404.5,221.5,402.5,225.5,400.5,229.5,399.0,233.5,397.0,237.5,395.0,241.5,393.5,245.5,391.5,249.5,389.5,253.5,387.5,257.5,386.0,261.5,384.0,265.5,382.5,269.5,380.0,273.5,383.5,277.5,390.5,281.5,398.0,285.5,405.5,289.5,403.5,293.5,394.5,297.5,385.5,301.5,377.0,305.5,368.5,309.5,360.0,313.5,351.0,317.5,342.5,321.5,334.0,325.5,325.0,329.5,316.0,333.5,313.0,337.5,315.0,341.5,317.5,345.5,320.0,349.5,322.5,353.5,324.5,357.5,327.5,361.5,329.5,365.5,332.0,369.5" stroke="black" stroke-width="1" fill="none" />
<polyline points="266.5,356.5,260.5,360.5,260.5,364.5,260.5,368.5,260.5,372.5,260.5,376.5,260.5,380.5,260.5,384.5,260.5,388.5,260.5,392.5" stroke="black" stroke-width="1" fill="none" />
<polyline points="130.0,270.5,126.0,262.0,122.0,254.0,118.0,245.0,114.0,236.0,110.0,227.5,106.0,219.0" stroke="black" stroke-width="1" fill="none" />
<polyline points="131.0,275.0,127.0,277.5,123.0,280.0,119.0,282.0,115.0,284.0,111.0,286.5,107.0,289.0,103.0,291.5" stroke="black" stroke-width="1" fill="none" />
<polyline points="104.0,291.5,108.0,293.5,112.0,295.5,116.0,297.5,120.0,299.0,124.0,301.0,128.0,303.0,132.0,304.5,136.0,306.5,140.0,308.0,144.0,310.0,148.0,312.0,152.0,314.0,156.0,315.5,160.0,317.5,164.0,319.5,168.0,321.0,172.0,323.0,176.0,325.0,180.0,326.5,184.0,328.5,188.0,330.5,192.0,332.0,196.0,334.0" stroke="black" stroke-width="1" fill="none" />
<polyline points="205.0,234.0,201.0,230.0,197.0,226.0,193.0,222.0,188.5,218.0,184.5,214.0,180.0,210.0,175.5,206.0,171.5,202.0,167.5,198.0,163.5,194.0" stroke="black" stroke-width="1" fill="none" />
<polyline points="192.5,154.0,196.5,155.5,200.5,157.5,204.5,160.0,208.5,162.0,212.5,164.5,216.5,167.0,220.5,169.0,224.5,170.0,228.5,163.0,232.5,156.0,236.5,149.0,240.5,142.0,244.5,134.5,248.5,127.5,252.5,120.5,256.5,116.0,260.5,123.0,264.5,130.0,268.5,137.5,272.5,144.5,276.5,151.5,280.5,158.5,284.5,165.5,288.5,170.5,292.5,168.5,296.5,166.0,300.5,163.5,304.5,161.5,308.5,159.0,312.5,157.0,316.5,154.5,316.5,154.5,309.0,158.5,302.5,162.5,295.5,166.5,288.5,170.5" stroke="black" stroke-width="1" fill="none" />
<polyline points="318.5,154.0,318.5,158.0,317.5,162.0,317.0,166.0,316.0,170.0,315.5,174.0,315.0,178.0,314.0,182.0,313.5,186.0,312.5,190.0,312.5,194.0,311.5,198.0,311.0,202.0,310.0,206.0,309.5,210.0,308.5,214.0,308.0,218.0,307.5,222.0,306.5,226.0,306.0,230.0,305.0,234.0,309.5,230.5,313.5,226.5,317.5,222.5,321.5,219.0,325.5,215.0,329.5,211.5,333.5,207.5,337.5,204.0,341.5,200.0,345.5,196.0,349.5,193.5" stroke="black" stroke-width="1" fill="none" />
<polyline points="349.5,194.0,349.5,198.0,349.0,202.0,349.0,206.0,348.5,210.0,348.0,214.0,348.0,218.0,348.0,222.0,350.5,223.0,354.5,222.5,358.5,222.5,362.5,222.0,366.5,221.5,370.5,221.0,374.5,221.0,378.5,220.0,382.5,220.0,386.5,220.0,390.5,219.0,394.5,219.0,398.5,218.5,402.5,218.0" stroke="black" stroke-width="1" fill="none" />
<polyline points="348.0,193.0,344.5,197.0,340.5,201.0,336.5,205.0,332.0,209.0,327.5,213.0,323.5,217.0,319.5,221.0,315.0,225.0,311.0,229.0,307.0,233.0" stroke="black" stroke-width="1" fill="none" />
<polyline points="285.5,168.5,283.5,164.5,281.5,160.5,279.0,156.5,277.0,152.5,274.5,148.5,272.0,144.5,270.0,140.5,267.5,136.5,265.5,132.5,263.0,128.5,261.0,124.5,258.5,120.5,256.5,116.5" stroke="black" stroke-width="1" fill="none" />
</svg>